<?xml version="1.0" encoding="utf-8"?>
<!-- Generator: Adobe Illustrator 21.0.0, SVG Export Plug-In . SVG Version: 6.00 Build 0)  -->
<svg version="1.1" id="Layer_1" xmlns="http://www.w3.org/2000/svg" xmlns:xlink="http://www.w3.org/1999/xlink" x="0px" y="0px"
	 viewBox="0 0 36 42" style="enable-background:new 0 0 36 42;" xml:space="preserve">
<style type="text/css">
	.st0{fill:none;enable-background:new    ;}
	.st1{fill:#FFFFFF;}
</style>
<path class="st0" d="z"/>
<path class="st1" d="M36,30.8c-1,2.2-1.5,3.2-2.7,5.1c-1.8,2.7-4.3,6-7.3,6.1c-2.7,0-3.4-1.8-7.2-1.8c-3.7,0-4.5,1.8-7.2,1.8
	c-3.1,0-5.4-3.1-7.2-5.7c-4.9-7.5-5.5-16.4-2.4-21c2.2-3.3,5.6-5.3,8.8-5.3c3.3,0,5.3,1.8,8,1.8c2.6,0,4.2-1.8,8-1.8
	c2.9,0,5.9,1.6,8,4.2C27.7,18,28.9,28.1,36,30.8z M23.9,6.9c1.4-1.8,2.4-4.3,2-6.8c-2.2,0.2-4.9,1.6-6.4,3.4
	c-1.4,1.7-2.5,4.2-2.1,6.6C19.9,10.2,22.4,8.7,23.9,6.9z"/>
</svg>
