<?xml version="1.0" encoding="utf-8"?>
<!-- Generator: Adobe Illustrator 21.0.0, SVG Export Plug-In . SVG Version: 6.00 Build 0)  -->
<svg version="1.1" id="Capa_1" xmlns="http://www.w3.org/2000/svg" xmlns:xlink="http://www.w3.org/1999/xlink" x="0px" y="0px"
	 viewBox="0 0 36 41" style="enable-background:new 0 0 36 41;" xml:space="preserve">
<style type="text/css">
	.st0{fill:#FFFFFF;}
</style>
<path class="st0" d="M36,30.3c-1,2.2-1.5,3.2-2.7,5.1c-1.8,2.7-4.3,6-7.3,6.1c-2.7,0-3.4-1.8-7.2-1.8c-3.7,0-4.5,1.8-7.2,1.8
	c-3.1,0-5.4-3.1-7.2-5.7c-4.9-7.5-5.5-16.4-2.4-21c2.2-3.3,5.6-5.3,8.8-5.3c3.3,0,5.3,1.8,8,1.8c2.6,0,4.2-1.8,8-1.8
	c2.9,0,5.9,1.6,8,4.2C27.7,17.5,28.9,27.6,36,30.3z M23.9,6.4c1.4-1.8,2.4-4.3,2-6.8C23.7-0.3,21,1.1,19.5,3
	c-1.4,1.7-2.5,4.2-2.1,6.6C19.9,9.7,22.4,8.2,23.9,6.4z"/>
</svg>
