<?xml version="1.0" encoding="utf-8"?>
<!-- Generator: Adobe Illustrator 21.0.0, SVG Export Plug-In . SVG Version: 6.00 Build 0)  -->
<svg version="1.1" id="Layer_1" xmlns="http://www.w3.org/2000/svg" xmlns:xlink="http://www.w3.org/1999/xlink" x="0px" y="0px"
	 viewBox="0 0 26 46" style="enable-background:new 0 0 26 46;" xml:space="preserve">
<style type="text/css">
	.st0{fill:none;enable-background:new    ;}
	.st1{fill:#FFFFFF;}
</style>
<path class="st0" d="z"/>
<path class="st1" d="M16.8,23c0.2,0,0.5-0.1,0.6-0.3l7.7-11c1.1-1.5,1.1-3.4,0.1-5l-0.2-0.3c-0.2-0.3-0.4-0.6-0.6-0.9
	c-0.3-0.4-0.5-0.8-0.8-1.2c-0.3-0.4-0.6-0.9-0.8-1.3l-0.8-1.2c-0.2-0.3-0.4-0.6-0.6-0.9c-0.2-0.3-0.3-0.6-0.7-0.7
	c-0.2-0.1-0.5,0-0.7,0h-0.8h-1h-1.3h-1.4h-1.5h-1.6h-1.6H9.6H8.2H7.1H6.2H5.6H5.4c0,0,0,0,0,0C5.1,0.1,5,0.1,4.8,0.3c0,0,0,0,0,0.1
	c0,0-0.1,0.1-0.1,0.1l-4,6.3c-1,1.5-0.9,3.5,0.1,4.9c0.2,0.2,0.3,0.5,0.5,0.7c0.4,0.6,0.8,1.2,1.2,1.8c0.6,0.8,1.1,1.6,1.7,2.4
	c0.6,0.8,1.2,1.7,1.7,2.5c0.5,0.7,1,1.4,1.5,2.2c0.3,0.4,0.6,0.9,0.9,1.3C8.6,22.7,8.8,23,9.2,23h1.5v1.8c-4.8,1.1-8.4,5.3-8.4,10.4
	c0,5.9,4.8,10.7,10.7,10.7s10.7-4.8,10.7-10.7c0-5.1-3.6-9.4-8.4-10.4V23H16.8z M19.4,1.6l-2.5,4.6H9.1L7.5,3.3L6.6,1.6H19.4z
	 M16.1,7.7L13,13.4L9.9,7.7H16.1z M9.2,20.7l-7-9.9c-0.7-1-0.7-2.3-0.1-3.3l3.3-5.2l2.7,5l4.1,7.7L9.2,20.7z M13,27.4
	c-4.3,0-7.8,3.5-7.8,7.8c0,0.3-0.3,0.6-0.6,0.6s-0.6-0.3-0.6-0.6c0-4.9,4-8.9,8.9-8.9c0.3,0,0.6,0.3,0.6,0.6
	C13.6,27.1,13.3,27.4,13,27.4z M14.5,21.5h-3.1h-1L18,7.3l2.7-5L24,7.5c0.6,1,0.6,2.3-0.1,3.3l-7.5,10.7H14.5z"/>
</svg>
