<?xml version="1.0" encoding="utf-8"?>
<!-- Generator: Adobe Illustrator 21.0.0, SVG Export Plug-In . SVG Version: 6.00 Build 0)  -->
<svg version="1.1" id="Layer_1" xmlns="http://www.w3.org/2000/svg" xmlns:xlink="http://www.w3.org/1999/xlink" x="0px" y="0px"
	 viewBox="0 0 20 20" style="enable-background:new 0 0 20 20;" xml:space="preserve">
<style type="text/css">
	.st0{fill:none;enable-background:new    ;}
	.st1{fill:#FFFFFF;}
</style>
<path class="st0" d="z"/>
<path class="st1" d="M12.7,10l5.9-5.9c0.7-0.7,0.2-1.4-0.5-2.2c-0.7-0.7-1.4-1.3-2.2-0.5L10,7.3L4.1,1.4C3.3,0.6,2.6,1.2,1.9,1.9
	C1.1,2.6,0.6,3.3,1.4,4.1L7.3,10l-5.9,5.9c-0.7,0.7-0.2,1.4,0.5,2.2c0.7,0.7,1.4,1.3,2.2,0.5l5.9-5.9l5.9,5.9
	c0.7,0.7,1.4,0.2,2.2-0.5c0.7-0.7,1.3-1.4,0.5-2.2L12.7,10z"/>
</svg>
