<?xml version="1.0" encoding="utf-8"?>
<!-- Generator: Adobe Illustrator 21.0.0, SVG Export Plug-In . SVG Version: 6.00 Build 0)  -->
<svg version="1.1" id="Layer_1" xmlns="http://www.w3.org/2000/svg" xmlns:xlink="http://www.w3.org/1999/xlink" x="0px" y="0px"
	 viewBox="0 0 23 23" style="enable-background:new 0 0 23 23;" xml:space="preserve">
<style type="text/css">
	.st0{fill:none;enable-background:new    ;}
	.st1{fill:#FFFFFF;}
</style>
<path class="st0" d="M0,0"/>
<path class="st1" d="M20.4,0H2.6C1.1,0,0,1.1,0,2.6v17.9C0,21.9,1.1,23,2.6,23h8.9v-8.9H8.9v-3.2h2.6V8.3c0-2.8,1.5-4.7,4.8-4.7h2.3
	v3.3h-1.5c-1.3,0-1.8,1-1.8,1.8v2.2h3.3l-0.7,3.2h-2.6V23h5.1c1.4,0,2.6-1.1,2.6-2.6V2.6C23,1.1,21.9,0,20.4,0z"/>
</svg>
