<?xml version="1.0" encoding="utf-8"?>
<!-- Generator: Adobe Illustrator 21.0.0, SVG Export Plug-In . SVG Version: 6.00 Build 0)  -->
<svg version="1.1" id="Layer_1" xmlns="http://www.w3.org/2000/svg" xmlns:xlink="http://www.w3.org/1999/xlink" x="0px" y="0px"
	 viewBox="0 0 94.2 105.1" style="enable-background:new 0 0 94.2 105.1;" xml:space="preserve">
<style type="text/css">
	.st0{display:none;}
	.st1{display:inline;fill:#013038;}
	.st2{fill:#FFFFFF;}
</style>
<g id="Fundo" class="st0">
	<rect x="-39.6" y="-40.1" class="st1" width="173.9" height="185.3"/>
</g>
<g>
	<path class="st2" d="M76.4,44.2c-1.9,0-3.3,1.7-3.3,3.3c0,0.8,0,12.7-0.3,19.6c-0.6,8.8-6.1,15.5-14.6,16.8
		c-6.3,0.8-14.6,0.8-21,0.3c-8.8-0.8-15.5-7.5-15.7-16C21,66.5,20.4,52.5,21,38.4c0.3-5.8,3-10.5,6.6-13.2C32,21.8,36.1,21,46.9,21
		c11.3,0,21,1.7,24.3,6.1l0,0c0.6,0.6,1.1,1.1,1.9,1.1s1.7-0.3,2.2-0.8l11.6-10.5c1.1-1.1,1.4-2.8,0.3-3.9
		c-5-6.6-12.1-10.8-19.9-11.9C53.8-0.5,41.1-0.5,27,1.1C12.7,3.1,0.3,15.5,0.3,31.5C0.3,32.9,0,42.8,0,52.7C0,63.2,0.5,74,0.5,74.3
		c0.3,14.4,10.8,27.9,27.3,29.8c14.4,1.7,29,1.4,39.7,0c13.5-1.9,25.7-12.7,26.2-29.8c0.3-8.6,0.6-17.9,0.3-26.5
		c0-1.9-1.7-3.3-3.3-3.3C85.3,44.2,76.4,44.2,76.4,44.2z"/>
	<g>
		<path class="st2" d="M61.3,62.9c0-0.8,0.3-8.6,0.3-10.2c0-5.8-0.3-7.7-0.3-10.2c-0.3-4.1-2.8-8.8-9.4-9.4l0,0l0,0
			c-5.2,0.6-9.1,3.9-9.4,9.7c-0.3,3.3-0.3,6.9-0.3,10.2c0,3,0.3,9.4,0.3,10.5c0.6,4.4,3,8.6,9.4,9.4l0,0l0,0
			C58.2,71.8,60.7,67.4,61.3,62.9z"/>
		<path class="st2" d="M40.3,63.5c0-1.1-0.3-7.7-0.3-10.8c0-3.3,0-6.9,0.3-10.5c0.3-4.4,2.2-7.7,5.5-9.7c-1.4,0-2.8,0-3.9,0.3
			c-5.5,0.6-9.1,3.9-9.4,9.7c-0.3,3.3-0.3,6.9-0.3,10.2c0,3,0.3,9.4,0.3,10.5c0.6,4.4,3,8.6,9.4,9.4c1.4,0,2.8,0.3,3.9,0.3
			C42.8,70.7,40.8,67.6,40.3,63.5z"/>
	</g>
</g>
</svg>
