<?xml version="1.0" encoding="utf-8"?>
<!-- Generator: Adobe Illustrator 19.0.1, SVG Export Plug-In . SVG Version: 6.00 Build 0)  -->
<svg version="1.1" xmlns="http://www.w3.org/2000/svg" xmlns:xlink="http://www.w3.org/1999/xlink" x="0px" y="0px"
	 viewBox="0 0 94.2 105.1" style="enable-background:new 0 0 94.2 105.1;" xml:space="preserve">
<style type="text/css">
	.st0{display:none;}
	.st1{display:inline;fill:#013038;}
	.st2{fill:#FFFFFF;}
	.st3{fill:#00B0A8;}
	.st4{fill:#01676E;}
</style>
<g id="Fundo" class="st0">
	<rect x="-39.6" y="-40.1" class="st1" width="173.9" height="185.3"/>
</g>
<g id="Logotipo">
	<g>
		<path class="st2" d="M76.7,43.9c-1.9,0-3.4,1.5-3.4,3.4c0,0.9,0.1,12.8-0.3,19.5c-0.5,8.7-6.1,15.6-14.8,16.8
			c-6.3,0.9-14.7,0.7-21.2,0.1c-8.9-0.8-15.4-7.4-15.8-16.1c-0.3-1.2-0.8-15.2-0.2-29.4c0.3-5.8,2.9-10.5,6.7-13.4
			c4.3-3.3,8.5-4,19.3-4c11.3,0,20.9,1.6,24.3,6c0,0,0,0,0,0c0.5,0.6,1.2,1,2,1.1c0.8,0.1,1.6-0.2,2.2-0.7l11.6-10.4
			c1.1-1,1.3-2.7,0.4-3.8c-5.1-6.6-12.1-10.8-20-11.8C54-0.4,41.3-0.4,27.1,1.2C12.9,2.8,0.4,15.1,0.4,31.2C0.4,32.7,0,42.6,0,52.6
			c0,10.6,0.4,21.2,0.4,21.7c0.2,14.5,10.9,27.9,27.3,29.8c14.5,1.6,29.1,1.3,39.9-0.1c13.5-1.8,25.8-12.7,26.2-30
			c0.2-8.6,0.5-17.9,0.4-26.6c0-1.8-1.5-3.3-3.4-3.3C85.4,43.9,76.7,43.9,76.7,43.9z"/>
		<path class="st3" d="M61.9,52.5c0-5.8-0.2-7.7-0.3-10.3c-0.1-4.1-2.7-8.9-9.5-9.5c-3.3-0.3-6.7-0.3-9.9,0
			c-5.4,0.5-9.2,3.8-9.5,9.6c-0.2,3.4-0.3,6.8-0.3,10.3c0,3.1,0.2,9.5,0.3,10.5c0.5,4.4,3.2,8.7,9.5,9.3c3.5,0.3,6.9,0.3,9.9,0
			c6.5-0.6,8.9-5.1,9.5-9.5C61.6,62.1,61.9,54.2,61.9,52.5z"/>
		<path class="st4" d="M42.6,63.1c-0.1-1-0.3-7.4-0.3-10.5c0-3.5,0.1-6.9,0.3-10.3c0.3-5.7,4.1-9,9.5-9.5c-3.3-0.3-6.7-0.3-9.9,0
			c-5.4,0.5-9.2,3.8-9.5,9.6c-0.2,3.4-0.3,6.8-0.3,10.3c0,3.1,0.2,9.5,0.3,10.5c0.5,4.4,3.2,8.7,9.5,9.3c3.4,0.3,6.9,0.3,9.9,0
			C45.7,71.7,43,67.4,42.6,63.1z"/>
	</g>
</g>
</svg>
