<?xml version="1.0" encoding="utf-8"?>
<!-- Generator: Adobe Illustrator 21.0.0, SVG Export Plug-In . SVG Version: 6.00 Build 0)  -->
<svg version="1.1" id="Layer_1" xmlns="http://www.w3.org/2000/svg" xmlns:xlink="http://www.w3.org/1999/xlink" x="0px" y="0px"
	 viewBox="0 0 34 38" style="enable-background:new 0 0 34 38;" xml:space="preserve">
<style type="text/css">
	.st0{fill:#FFFFFF;}
</style>
<g>
	<path class="st0" d="M27.7,15.9c-0.7,0-1.2,0.6-1.2,1.2c0,0.3,0,4.6-0.1,7.1c-0.2,3.2-2.2,5.6-5.3,6.1c-2.3,0.3-5.3,0.3-7.6,0.1
		c-3.2-0.3-5.6-2.7-5.7-5.8C7.6,24,7.4,18.9,7.6,13.8C7.7,11.7,8.7,10,10,9c1.6-1.2,3.1-1.5,7-1.5c4.1,0,7.6,0.6,8.8,2.2
		c0,0,0,0,0,0c0.2,0.2,0.4,0.4,0.7,0.4c0.3,0,0.6-0.1,0.8-0.3l4.2-3.8c0.4-0.4,0.5-1,0.1-1.4c-1.8-2.4-4.4-3.9-7.2-4.3
		c-4.9-0.6-9.5-0.6-14.6,0C4.6,1,0.1,5.5,0.1,11.3C0.1,11.8,0,15.4,0,19c0,3.8,0.2,7.7,0.2,7.8c0.1,5.2,3.9,10.1,9.9,10.8
		c5.2,0.6,10.5,0.5,14.4,0c4.9-0.7,9.3-4.6,9.5-10.8c0.1-3.1,0.2-6.5,0.1-9.6c0-0.7-0.6-1.2-1.2-1.2C30.9,15.9,27.7,15.9,27.7,15.9z
		"/>
	<g>
		<path class="st0" d="M22.2,22.7c0-0.3,0.1-3.1,0.1-3.7c0-2.1-0.1-2.8-0.1-3.7c-0.1-1.5-1-3.2-3.4-3.4c0,0,0,0,0,0h0
			c-1.9,0.2-3.3,1.4-3.4,3.5c-0.1,1.2-0.1,2.5-0.1,3.7c0,1.1,0.1,3.4,0.1,3.8c0.2,1.6,1.1,3.1,3.4,3.4h0c0,0,0,0,0,0
			C21.1,25.9,22,24.3,22.2,22.7z"/>
		<path class="st0" d="M14.6,22.9c0-0.4-0.1-2.8-0.1-3.9c0-1.2,0-2.5,0.1-3.8c0.1-1.6,0.8-2.8,2-3.5c-0.5,0-1,0-1.4,0.1
			c-2,0.2-3.3,1.4-3.4,3.5c-0.1,1.2-0.1,2.5-0.1,3.7c0,1.1,0.1,3.4,0.1,3.8c0.2,1.6,1.1,3.1,3.4,3.4c0.5,0,1,0.1,1.4,0.1
			C15.5,25.5,14.8,24.4,14.6,22.9z"/>
	</g>
</g>
</svg>
