<?xml version="1.0" encoding="utf-8"?>
<!-- Generator: Adobe Illustrator 21.0.0, SVG Export Plug-In . SVG Version: 6.00 Build 0)  -->
<svg version="1.1" id="Layer_1" xmlns="http://www.w3.org/2000/svg" xmlns:xlink="http://www.w3.org/1999/xlink" x="0px" y="0px"
	 viewBox="0 0 23 23" style="enable-background:new 0 0 23 23;" xml:space="preserve">
<style type="text/css">
	.st0{fill:none;enable-background:new    ;}
	.st1{fill:#FFFFFF;}
</style>
<path class="st0" d="z"/>
<g>
	<path class="st1" d="M11.5,2.1c3.1,0,3.4,0,4.7,0.1c1.2,0.1,1.8,0.2,2.1,0.4c0.5,0.2,0.9,0.5,1.3,0.8s0.6,0.8,0.8,1.3
		c0.2,0.4,0.3,1,0.4,2.1c0.1,1.2,0.1,1.6,0.1,4.7s0,3.4-0.1,4.7c-0.1,1.2-0.2,1.8-0.4,2.1c-0.2,0.5-0.5,0.9-0.8,1.3
		s-0.8,0.6-1.3,0.8c-0.4,0.2-1,0.3-2.1,0.4c-1.2,0.1-1.6,0.1-4.7,0.1s-3.4,0-4.7-0.1c-1.2-0.1-1.8-0.2-2.1-0.4
		c-0.5-0.2-0.9-0.5-1.3-0.8s-0.6-0.8-0.8-1.3c-0.2-0.4-0.3-1-0.4-2.1c-0.1-1.2-0.1-1.6-0.1-4.7s0-3.4,0.1-4.7
		c0.1-1.2,0.2-1.8,0.4-2.1C2.8,4.2,3,3.8,3.4,3.4C3.8,3,4.1,2.8,4.7,2.5c0.4-0.2,1-0.3,2.1-0.4C8.1,2.1,8.4,2.1,11.5,2.1 M11.5,0
		C8.4,0,8,0,6.7,0.1S4.7,0.3,4,0.6C3.2,0.9,2.6,1.3,1.9,1.9C1.3,2.6,0.9,3.2,0.6,4S0.2,5.5,0.1,6.7S0,8.4,0,11.5s0,3.5,0.1,4.8
		s0.2,2.1,0.5,2.8c0.3,0.8,0.7,1.4,1.3,2.1c0.6,0.6,1.3,1,2.1,1.3c0.8,0.3,1.5,0.5,2.8,0.5C8,23,8.4,23,11.5,23s3.5,0,4.8-0.1
		c1.2-0.1,2.1-0.2,2.8-0.5c0.8-0.3,1.4-0.7,2.1-1.3c0.6-0.6,1-1.3,1.3-2.1c0.3-0.8,0.5-1.5,0.5-2.8C23,15,23,14.6,23,11.5
		s0-3.5-0.1-4.8c-0.1-1.2-0.2-2.1-0.5-2.8c-0.3-0.8-0.7-1.4-1.3-2.1c-0.6-0.6-1.3-1-2.1-1.3c-0.8-0.3-1.5-0.5-2.8-0.5
		C15,0,14.6,0,11.5,0L11.5,0z"/>
	<path class="st1" d="M11.5,5.6c-3.3,0-5.9,2.6-5.9,5.9s2.6,5.9,5.9,5.9s5.9-2.6,5.9-5.9S14.8,5.6,11.5,5.6z M11.5,15.3
		c-2.1,0-3.8-1.7-3.8-3.8s1.7-3.8,3.8-3.8s3.8,1.7,3.8,3.8S13.6,15.3,11.5,15.3z"/>
	<circle class="st1" cx="17.6" cy="5.4" r="1.4"/>
</g>
</svg>
