<?xml version="1.0" encoding="utf-8"?>
<!-- Generator: Adobe Illustrator 21.0.0, SVG Export Plug-In . SVG Version: 6.00 Build 0)  -->
<svg version="1.1" id="Layer_1" xmlns="http://www.w3.org/2000/svg" xmlns:xlink="http://www.w3.org/1999/xlink" x="0px" y="0px"
	 viewBox="0 0 231 29" style="enable-background:new 0 0 231 29;" xml:space="preserve">
<style type="text/css">
	.st0{fill:#FFFFFF;}
</style>
<g>
	<path class="st0" d="M7.2,29c0,0-8.1-17.2-7.1-19.3c0.9-2.1,3.7-1,4.1-0.6c0.4,0.4,3.7,7.6,5.9,8.8c2.3,1.2,4.6-4.7,8.8-7
		c4.2-2.3,11-1.7,23.7,3.5c-15-3.6-19.3-3.8-23.2-0.8c-3.9,3-6.6,7.7-9.4,7.6c-2.8-0.2-5.8-7.2-6.5-7.8c0,0,2.3,6.6,5.6,13.5
		C8.9,27.4,7.2,29,7.2,29"/>
	<path class="st0" d="M11.2,0c3.3-0.1,6,2.5,6.1,5.8c0.1,3.3-2.5,6-5.8,6.1s-6-2.5-6.1-5.8C5.3,2.8,7.9,0.1,11.2,0"/>
</g>
<g>
	<g>
		<path class="st0" d="M52.5,21.3l3.9-4.4h-0.1c-0.3,0.2-0.6,0.3-0.8,0.4c-0.2,0-0.4,0.1-0.6,0.1c-0.7,0-1.3-0.1-1.8-0.4
			s-1-0.6-1.4-1c-0.4-0.4-0.7-1-0.9-1.5c-0.2-0.6-0.3-1.2-0.3-1.9c0-0.7,0.1-1.4,0.4-2c0.3-0.6,0.6-1.2,1.1-1.6S53,8,53.7,7.7
			c0.7-0.3,1.5-0.4,2.4-0.4c0.9,0,1.7,0.1,2.4,0.4c0.7,0.3,1.3,0.6,1.8,1.1c0.5,0.5,0.9,1,1.1,1.6c0.3,0.6,0.4,1.3,0.4,1.9
			c0,0.8-0.2,1.6-0.5,2.5c-0.3,0.9-0.9,1.8-1.6,2.6l-3.1,3.8H52.5z M58.4,12.4c0-0.3-0.1-0.6-0.2-0.9c-0.1-0.3-0.3-0.5-0.5-0.7
			c-0.2-0.2-0.4-0.4-0.7-0.5c-0.3-0.1-0.6-0.2-0.9-0.2c-0.3,0-0.6,0.1-0.9,0.2c-0.3,0.1-0.5,0.3-0.7,0.5c-0.2,0.2-0.4,0.4-0.5,0.7
			s-0.2,0.6-0.2,0.9c0,0.3,0.1,0.6,0.2,0.9s0.3,0.5,0.5,0.7c0.2,0.2,0.4,0.4,0.7,0.5s0.6,0.2,0.9,0.2c0.3,0,0.6-0.1,0.9-0.2
			s0.5-0.3,0.7-0.5c0.2-0.2,0.4-0.4,0.5-0.7C58.3,13,58.4,12.7,58.4,12.4z"/>
	</g>
	<g>
		<path class="st0" d="M67.6,13c0.1,0,0.2,0,0.2,0s0.1,0,0.2,0c0.4,0,0.8-0.1,1.1-0.4c0.3-0.3,0.4-0.6,0.4-1c0-0.4-0.1-0.7-0.4-1
			c-0.3-0.3-0.6-0.4-1-0.4c-0.4,0-0.8,0.1-1,0.4s-0.4,0.7-0.4,1.1h-3.3c0.1-0.7,0.3-1.3,0.5-1.9c0.3-0.6,0.6-1,1-1.4
			s0.9-0.7,1.5-0.9c0.6-0.2,1.2-0.3,1.9-0.3c0.7,0,1.3,0.1,1.8,0.3s1,0.4,1.4,0.8c0.4,0.3,0.7,0.8,0.9,1.2c0.2,0.5,0.3,1,0.3,1.6
			c0,0.6-0.1,1.2-0.4,1.6s-0.6,0.8-1.1,1.1c0.7,0.2,1.2,0.6,1.6,1.2c0.4,0.6,0.6,1.2,0.6,2.1c0,0.7-0.1,1.3-0.4,1.8
			c-0.3,0.6-0.6,1-1.1,1.4s-1,0.7-1.7,0.9c-0.7,0.2-1.4,0.3-2.2,0.3c-1,0-2-0.2-2.8-0.6c-0.8-0.4-1.5-1.1-2-1.9
			c-0.2-0.4-0.4-0.8-0.5-1.2s-0.1-0.8-0.1-1.2h3.5c0,0.6,0.2,1.1,0.6,1.4c0.3,0.3,0.8,0.5,1.4,0.5c0.6,0,1.1-0.2,1.4-0.5
			s0.4-0.8,0.4-1.2c0-0.6-0.2-1-0.5-1.3c-0.3-0.3-0.8-0.4-1.2-0.4c-0.1,0-0.2,0-0.3,0c-0.1,0-0.2,0-0.4,0.1V13z"/>
	</g>
	<g>
		<path class="st0" d="M79.3,7.9h1.9v5.4h-1.9v-0.6c-0.4,0.5-1,0.8-1.7,0.8c-0.4,0-0.7-0.1-1.1-0.2c-0.3-0.1-0.6-0.4-0.9-0.6
			c-0.2-0.3-0.4-0.6-0.6-0.9c-0.1-0.4-0.2-0.7-0.2-1.1s0.1-0.8,0.2-1.1c0.1-0.3,0.3-0.7,0.6-0.9s0.5-0.5,0.9-0.6
			c0.3-0.1,0.7-0.2,1.1-0.2c0.7,0,1.2,0.2,1.7,0.7V7.9z M75.1,14.3h6.2v1.2h-6.2V14.3z M76.9,10.6c0,0.3,0.1,0.6,0.4,0.9
			c0.2,0.2,0.5,0.4,0.9,0.4s0.6-0.1,0.9-0.4c0.2-0.2,0.4-0.5,0.4-0.9c0-0.3-0.1-0.6-0.4-0.8c-0.2-0.3-0.5-0.4-0.9-0.4
			c-0.3,0-0.6,0.1-0.9,0.4C77,9.9,76.9,10.2,76.9,10.6z"/>
	</g>
	<g>
		<path class="st0" d="M96.9,11.2c-0.4-0.3-0.8-0.5-1.2-0.7c-0.4-0.1-0.8-0.2-1.1-0.2c-0.5,0-0.8,0.1-1.1,0.3
			c-0.3,0.2-0.4,0.5-0.4,0.8c0,0.2,0.1,0.4,0.2,0.6c0.1,0.2,0.3,0.3,0.6,0.4c0.2,0.1,0.5,0.2,0.8,0.3s0.6,0.2,0.9,0.3
			c1.2,0.4,2,0.9,2.5,1.5c0.5,0.6,0.8,1.5,0.8,2.5c0,0.7-0.1,1.3-0.4,1.9c-0.2,0.6-0.6,1-1,1.4c-0.5,0.4-1,0.7-1.7,0.9
			c-0.7,0.2-1.4,0.3-2.2,0.3c-1.7,0-3.3-0.5-4.8-1.5l1.5-2.8c0.5,0.5,1.1,0.8,1.6,1c0.5,0.2,1,0.3,1.5,0.3c0.6,0,1-0.1,1.3-0.4
			c0.3-0.3,0.4-0.6,0.4-0.9c0-0.2,0-0.4-0.1-0.5c-0.1-0.1-0.2-0.3-0.4-0.4c-0.2-0.1-0.4-0.2-0.7-0.4s-0.6-0.2-1-0.4
			c-0.5-0.1-0.9-0.3-1.3-0.5c-0.4-0.2-0.8-0.4-1.2-0.7c-0.3-0.3-0.6-0.7-0.8-1.1c-0.2-0.4-0.3-1-0.3-1.7s0.1-1.3,0.3-1.8
			c0.2-0.5,0.5-1,0.9-1.4c0.4-0.4,0.9-0.7,1.5-0.9s1.2-0.3,2-0.3c0.7,0,1.4,0.1,2.1,0.3s1.4,0.5,2.1,0.8L96.9,11.2z"/>
	</g>
	<g>
		<path class="st0" d="M109.1,18.9h-5l-0.8,2.4h-3.8l5.2-13.6h3.9l5.2,13.6h-3.8L109.1,18.9z M102.6,6.3c0-0.9,0.2-1.6,0.6-2.1
			c0.4-0.5,0.9-0.8,1.6-0.8c0.3,0,0.5,0,0.8,0.1c0.3,0.1,0.6,0.2,0.9,0.3c0.3,0.1,0.6,0.2,0.8,0.2c0.3,0.1,0.5,0.1,0.6,0.1
			c0.4,0,0.6-0.2,0.8-0.7h1.8c-0.1,1.1-0.4,1.8-0.8,2.3s-0.9,0.6-1.6,0.6c-0.3,0-0.7,0-1-0.1c-0.3-0.1-0.6-0.2-0.9-0.3
			c-0.3-0.1-0.5-0.2-0.8-0.3c-0.2-0.1-0.4-0.1-0.6-0.1c-0.1,0-0.2,0-0.3,0.1c-0.1,0.1-0.2,0.3-0.3,0.6H102.6z M108.2,16.2l-1.6-4.5
			l-1.6,4.5H108.2z"/>
	</g>
	<g>
		<path class="st0" d="M114.6,14.5c0-1,0.2-1.9,0.6-2.8s0.9-1.6,1.5-2.3s1.4-1.2,2.4-1.5s1.9-0.5,3-0.5c1.1,0,2.1,0.2,3,0.5
			s1.7,0.9,2.4,1.5s1.2,1.4,1.6,2.3s0.6,1.8,0.6,2.8c0,1-0.2,1.9-0.6,2.8c-0.4,0.9-0.9,1.6-1.6,2.3s-1.5,1.2-2.4,1.5
			c-0.9,0.4-1.9,0.5-3,0.5c-1.1,0-2.1-0.2-3-0.5c-0.9-0.4-1.7-0.9-2.4-1.5s-1.2-1.4-1.5-2.3C114.8,16.4,114.6,15.5,114.6,14.5z
			 M118.3,14.5c0,0.5,0.1,1,0.3,1.5s0.5,0.9,0.8,1.2s0.8,0.6,1.2,0.8s1,0.3,1.5,0.3c0.5,0,1-0.1,1.5-0.3s0.9-0.4,1.2-0.8
			s0.6-0.7,0.8-1.2s0.3-1,0.3-1.5s-0.1-1-0.3-1.5s-0.5-0.9-0.8-1.2s-0.8-0.6-1.2-0.8s-1-0.3-1.5-0.3c-0.5,0-1,0.1-1.5,0.3
			s-0.9,0.4-1.2,0.8s-0.6,0.7-0.8,1.2S118.3,13.9,118.3,14.5z"/>
	</g>
	<g>
		<path class="st0" d="M145.5,11.2c-0.4-0.3-0.8-0.5-1.2-0.7c-0.4-0.1-0.8-0.2-1.1-0.2c-0.5,0-0.8,0.1-1.1,0.3
			c-0.3,0.2-0.4,0.5-0.4,0.8c0,0.2,0.1,0.4,0.2,0.6c0.1,0.2,0.3,0.3,0.6,0.4c0.2,0.1,0.5,0.2,0.8,0.3s0.6,0.2,0.9,0.3
			c1.2,0.4,2,0.9,2.5,1.5c0.5,0.6,0.8,1.5,0.8,2.5c0,0.7-0.1,1.3-0.4,1.9c-0.2,0.6-0.6,1-1,1.4c-0.5,0.4-1,0.7-1.7,0.9
			c-0.7,0.2-1.4,0.3-2.2,0.3c-1.7,0-3.3-0.5-4.8-1.5l1.5-2.8c0.5,0.5,1,0.8,1.6,1c0.5,0.2,1,0.3,1.5,0.3c0.6,0,1-0.1,1.3-0.4
			c0.3-0.3,0.4-0.6,0.4-0.9c0-0.2,0-0.4-0.1-0.5c-0.1-0.1-0.2-0.3-0.4-0.4s-0.4-0.2-0.7-0.4c-0.3-0.1-0.6-0.2-1-0.4
			c-0.5-0.1-0.9-0.3-1.3-0.5c-0.4-0.2-0.8-0.4-1.2-0.7s-0.6-0.7-0.8-1.1s-0.3-1-0.3-1.7s0.1-1.3,0.3-1.8c0.2-0.5,0.5-1,0.9-1.4
			c0.4-0.4,0.9-0.7,1.5-0.9s1.2-0.3,2-0.3c0.7,0,1.4,0.1,2.1,0.3s1.4,0.5,2.1,0.8L145.5,11.2z"/>
	</g>
	<g>
		<path class="st0" d="M153.2,7.7v13.6h-3.5V7.7H153.2z"/>
	</g>
	<g>
		<path class="st0" d="M159.5,7.7v10.6h4.2v3H156V7.7H159.5z"/>
	</g>
	<g>
		<path class="st0" d="M166.8,7.7l3.3,8.3l3.3-8.3h3.8l-5.7,13.6h-2.8L163,7.7H166.8z"/>
	</g>
	<g>
		<path class="st0" d="M186.3,10.7h-4.2V13h4v3h-4v2.3h4.2v3h-7.7V7.7h7.7V10.7z"/>
	</g>
	<g>
		<path class="st0" d="M196.3,11.2c-0.4-0.3-0.8-0.5-1.2-0.7c-0.4-0.1-0.8-0.2-1.1-0.2c-0.5,0-0.8,0.1-1.1,0.3
			c-0.3,0.2-0.4,0.5-0.4,0.8c0,0.2,0.1,0.4,0.2,0.6c0.1,0.2,0.3,0.3,0.6,0.4c0.2,0.1,0.5,0.2,0.8,0.3s0.6,0.2,0.9,0.3
			c1.2,0.4,2,0.9,2.5,1.5c0.5,0.6,0.8,1.5,0.8,2.5c0,0.7-0.1,1.3-0.4,1.9c-0.2,0.6-0.6,1-1,1.4c-0.5,0.4-1,0.7-1.7,0.9
			c-0.7,0.2-1.4,0.3-2.2,0.3c-1.7,0-3.3-0.5-4.8-1.5l1.5-2.8c0.5,0.5,1,0.8,1.6,1c0.5,0.2,1,0.3,1.5,0.3c0.6,0,1-0.1,1.3-0.4
			c0.3-0.3,0.4-0.6,0.4-0.9c0-0.2,0-0.4-0.1-0.5c-0.1-0.1-0.2-0.3-0.4-0.4s-0.4-0.2-0.7-0.4c-0.3-0.1-0.6-0.2-1-0.4
			c-0.5-0.1-0.9-0.3-1.3-0.5c-0.4-0.2-0.8-0.4-1.2-0.7s-0.6-0.7-0.8-1.1s-0.3-1-0.3-1.7s0.1-1.3,0.3-1.8c0.2-0.5,0.5-1,0.9-1.4
			c0.4-0.4,0.9-0.7,1.5-0.9s1.2-0.3,2-0.3c0.7,0,1.4,0.1,2.1,0.3s1.4,0.5,2.1,0.8L196.3,11.2z"/>
	</g>
	<g>
		<path class="st0" d="M205.8,10.7v10.6h-3.5V10.7h-2.9v-3h9.3v3H205.8z"/>
	</g>
	<g>
		<path class="st0" d="M221.5,21.3h-4.4l-3.4-5.2v5.2h-3.5V7.7h5.5c0.8,0,1.4,0.1,2,0.3c0.6,0.2,1,0.5,1.4,0.9
			c0.4,0.4,0.6,0.8,0.8,1.3c0.2,0.5,0.3,1,0.3,1.6c0,1-0.2,1.9-0.7,2.5c-0.5,0.6-1.2,1.1-2.2,1.3L221.5,21.3z M213.7,13.8h0.7
			c0.7,0,1.2-0.1,1.6-0.4s0.6-0.7,0.6-1.2s-0.2-1-0.6-1.2s-0.9-0.4-1.6-0.4h-0.7V13.8z"/>
	</g>
	<g>
		<path class="st0" d="M230.7,10.7h-4.2V13h4v3h-4v2.3h4.2v3H223V7.7h7.7V10.7z"/>
	</g>
</g>
</svg>
