<?xml version="1.0" encoding="utf-8"?>
<!-- Generator: Adobe Illustrator 21.0.0, SVG Export Plug-In . SVG Version: 6.00 Build 0)  -->
<svg version="1.1" id="Layer_1" xmlns="http://www.w3.org/2000/svg" xmlns:xlink="http://www.w3.org/1999/xlink" x="0px" y="0px"
	 viewBox="0 0 242 25" style="enable-background:new 0 0 242 25;" xml:space="preserve">
<style type="text/css">
	.st0{enable-background:new    ;}
	.st1{fill:#FFFFFF;}
</style>
<g class="st0">
	<path class="st1" d="M3.2,24.2l5.2-5.9H8.3c-0.5,0.3-0.8,0.4-1.1,0.5c-0.3,0.1-0.5,0.1-0.8,0.1c-0.9,0-1.7-0.2-2.4-0.5
		C3.2,18,2.6,17.6,2,17c-0.5-0.6-1-1.3-1.3-2.1s-0.5-1.6-0.5-2.5c0-1,0.2-1.9,0.5-2.7s0.9-1.5,1.5-2.2C3,7,3.8,6.5,4.8,6.1
		c0.9-0.4,2-0.5,3.2-0.5c1.2,0,2.3,0.2,3.2,0.5c0.9,0.4,1.8,0.8,2.4,1.4s1.2,1.3,1.5,2.1c0.4,0.8,0.5,1.7,0.5,2.6
		c0,1-0.2,2.1-0.7,3.3c-0.5,1.2-1.2,2.4-2.1,3.5l-4.2,5.1H3.2z M11,12.3c0-0.4-0.1-0.8-0.2-1.2c-0.2-0.4-0.4-0.7-0.7-0.9
		c-0.3-0.3-0.6-0.5-1-0.6S8.4,9.3,8,9.3S7.2,9.4,6.8,9.5s-0.7,0.4-1,0.6c-0.3,0.3-0.5,0.6-0.7,0.9S5,11.9,5,12.3s0.1,0.8,0.2,1.2
		c0.2,0.4,0.4,0.7,0.7,0.9c0.3,0.3,0.6,0.5,1,0.6c0.4,0.2,0.8,0.2,1.2,0.2s0.8-0.1,1.2-0.2c0.4-0.2,0.7-0.4,1-0.6
		c0.3-0.3,0.5-0.6,0.7-0.9C10.9,13.1,11,12.7,11,12.3z"/>
	<path class="st1" d="M23.4,13.1c0.1,0,0.2,0,0.3,0c0.1,0,0.2,0,0.2,0c0.6,0,1.1-0.2,1.4-0.5c0.4-0.4,0.6-0.8,0.6-1.4
		c0-0.5-0.2-1-0.5-1.3c-0.3-0.3-0.8-0.5-1.3-0.5c-0.6,0-1,0.2-1.4,0.6s-0.5,0.9-0.5,1.5h-4.4c0.1-0.9,0.3-1.8,0.7-2.5
		c0.4-0.7,0.8-1.4,1.4-1.9s1.2-0.9,2-1.2s1.6-0.4,2.5-0.4c0.9,0,1.7,0.1,2.4,0.4c0.7,0.2,1.4,0.6,1.9,1.1c0.5,0.5,0.9,1,1.2,1.7
		c0.3,0.6,0.4,1.4,0.4,2.2c0,0.9-0.2,1.6-0.5,2.1c-0.3,0.6-0.8,1-1.4,1.4c0.9,0.3,1.7,0.8,2.2,1.5c0.5,0.7,0.8,1.7,0.8,2.7
		c0,0.9-0.2,1.7-0.5,2.4c-0.4,0.7-0.8,1.4-1.5,1.9c-0.6,0.5-1.4,0.9-2.3,1.2c-0.9,0.3-1.8,0.4-2.9,0.4c-1.4,0-2.7-0.3-3.8-0.8
		c-1.1-0.5-2-1.4-2.7-2.6c-0.3-0.5-0.5-1.1-0.6-1.6c-0.1-0.5-0.2-1.1-0.2-1.6h4.7c0,0.8,0.3,1.5,0.7,1.9c0.5,0.4,1.1,0.7,1.9,0.7
		c0.8,0,1.4-0.2,1.8-0.7c0.4-0.4,0.6-1,0.6-1.7c0-0.8-0.2-1.4-0.7-1.8c-0.5-0.4-1-0.6-1.7-0.6c-0.2,0-0.3,0-0.5,0
		c-0.1,0-0.3,0.1-0.5,0.1V13.1z"/>
	<path class="st1" d="M39.1,6.3h2.5v7.2h-2.5v-0.8c-0.5,0.7-1.3,1-2.2,1c-0.5,0-1-0.1-1.4-0.3c-0.5-0.2-0.8-0.5-1.2-0.8
		s-0.6-0.8-0.8-1.2c-0.2-0.5-0.3-1-0.3-1.5c0-0.5,0.1-1,0.3-1.5s0.4-0.9,0.8-1.2c0.3-0.3,0.7-0.6,1.2-0.8c0.4-0.2,0.9-0.3,1.4-0.3
		c0.9,0,1.6,0.3,2.3,0.9V6.3z M33.5,14.9h8.2v1.6h-8.2V14.9z M35.8,9.9c0,0.4,0.2,0.8,0.5,1.2c0.3,0.3,0.7,0.5,1.2,0.5
		s0.9-0.2,1.2-0.5c0.3-0.3,0.5-0.7,0.5-1.2c0-0.4-0.2-0.8-0.5-1.1s-0.7-0.5-1.2-0.5c-0.4,0-0.8,0.2-1.2,0.5
		C36,9.1,35.8,9.5,35.8,9.9z"/>
	<path class="st1" d="M62.5,10.7c-0.5-0.4-1-0.7-1.5-0.9c-0.5-0.2-1-0.3-1.5-0.3c-0.6,0-1.1,0.1-1.5,0.4c-0.4,0.3-0.6,0.7-0.6,1.1
		c0,0.3,0.1,0.6,0.3,0.8c0.2,0.2,0.4,0.4,0.8,0.5s0.7,0.3,1.1,0.4c0.4,0.1,0.8,0.2,1.2,0.4c1.5,0.5,2.7,1.2,3.4,2.1
		c0.7,0.9,1.1,2,1.1,3.3c0,0.9-0.2,1.8-0.5,2.5s-0.8,1.4-1.4,1.9c-0.6,0.5-1.3,1-2.2,1.2c-0.9,0.3-1.9,0.4-3,0.4
		c-2.3,0-4.4-0.7-6.4-2l2-3.8c0.7,0.6,1.4,1.1,2.1,1.4c0.7,0.3,1.4,0.5,2,0.5c0.8,0,1.3-0.2,1.7-0.5c0.4-0.4,0.6-0.8,0.6-1.2
		c0-0.3,0-0.5-0.1-0.7c-0.1-0.2-0.3-0.4-0.5-0.6s-0.5-0.3-0.9-0.5c-0.4-0.1-0.8-0.3-1.3-0.5c-0.6-0.2-1.2-0.4-1.8-0.6
		c-0.6-0.2-1.1-0.5-1.6-0.9c-0.5-0.4-0.8-0.9-1.1-1.5c-0.3-0.6-0.4-1.3-0.4-2.2c0-0.9,0.1-1.7,0.4-2.4c0.3-0.7,0.7-1.4,1.3-1.9
		c0.5-0.5,1.2-0.9,2-1.2s1.7-0.4,2.6-0.4c0.9,0,1.8,0.1,2.8,0.4c1,0.2,1.9,0.6,2.8,1.1L62.5,10.7z"/>
	<path class="st1" d="M78.9,21h-6.7l-1.1,3.1h-5L73,6.1h5.2L85,24.2h-5L78.9,21z M70.3,4.2c0-1.2,0.3-2.1,0.8-2.8s1.2-1,2.1-1
		c0.3,0,0.7,0.1,1.1,0.2c0.4,0.1,0.8,0.2,1.2,0.3c0.4,0.1,0.8,0.2,1.1,0.3c0.3,0.1,0.6,0.1,0.8,0.1c0.5,0,0.9-0.3,1-1h2.4
		c-0.2,1.4-0.5,2.4-1,3s-1.3,0.9-2.2,0.9c-0.5,0-0.9-0.1-1.3-0.2s-0.8-0.2-1.2-0.3c-0.4-0.1-0.7-0.2-1-0.3c-0.3-0.1-0.6-0.2-0.8-0.2
		c-0.2,0-0.3,0.1-0.5,0.2c-0.1,0.1-0.2,0.4-0.4,0.8H70.3z M77.7,17.5l-2.1-6l-2.1,6H77.7z"/>
	<path class="st1" d="M86.3,15.1c0-1.3,0.2-2.6,0.7-3.8s1.2-2.2,2.1-3c0.9-0.9,1.9-1.5,3.2-2c1.2-0.5,2.6-0.7,4.1-0.7
		c1.5,0,2.8,0.2,4,0.7c1.2,0.5,2.3,1.2,3.2,2s1.6,1.9,2.1,3c0.5,1.2,0.7,2.4,0.7,3.8s-0.2,2.6-0.7,3.8c-0.5,1.2-1.2,2.2-2.1,3
		s-2,1.5-3.2,2c-1.2,0.5-2.6,0.7-4,0.7c-1.5,0-2.8-0.2-4.1-0.7c-1.2-0.5-2.3-1.2-3.2-2c-0.9-0.9-1.6-1.9-2.1-3S86.3,16.5,86.3,15.1z
		 M91.3,15.1c0,0.7,0.1,1.4,0.4,2s0.6,1.1,1.1,1.6s1,0.8,1.6,1s1.3,0.4,2,0.4s1.3-0.1,2-0.4c0.6-0.2,1.2-0.6,1.6-1s0.8-1,1.1-1.6
		c0.3-0.6,0.4-1.3,0.4-2s-0.1-1.4-0.4-2c-0.3-0.6-0.6-1.1-1.1-1.6c-0.5-0.4-1-0.8-1.6-1c-0.6-0.2-1.3-0.4-2-0.4s-1.3,0.1-2,0.4
		s-1.2,0.6-1.6,1c-0.5,0.4-0.8,1-1.1,1.6C91.4,13.8,91.3,14.4,91.3,15.1z"/>
	<path class="st1" d="M127.6,10.7c-0.5-0.4-1-0.7-1.5-0.9c-0.5-0.2-1-0.3-1.5-0.3c-0.6,0-1.1,0.1-1.5,0.4c-0.4,0.3-0.6,0.7-0.6,1.1
		c0,0.3,0.1,0.6,0.3,0.8c0.2,0.2,0.4,0.4,0.8,0.5s0.7,0.3,1.1,0.4c0.4,0.1,0.8,0.2,1.2,0.4c1.5,0.5,2.7,1.2,3.4,2.1
		c0.7,0.9,1.1,2,1.1,3.3c0,0.9-0.2,1.8-0.5,2.5s-0.8,1.4-1.4,1.9c-0.6,0.5-1.3,1-2.2,1.2c-0.9,0.3-1.9,0.4-3,0.4
		c-2.3,0-4.4-0.7-6.4-2l2-3.8c0.7,0.6,1.4,1.1,2.1,1.4c0.7,0.3,1.4,0.5,2,0.5c0.8,0,1.3-0.2,1.7-0.5c0.4-0.4,0.6-0.8,0.6-1.2
		c0-0.3,0-0.5-0.1-0.7c-0.1-0.2-0.3-0.4-0.5-0.6s-0.5-0.3-0.9-0.5c-0.4-0.1-0.8-0.3-1.3-0.5c-0.6-0.2-1.2-0.4-1.8-0.6
		c-0.6-0.2-1.1-0.5-1.6-0.9c-0.5-0.4-0.8-0.9-1.1-1.5c-0.3-0.6-0.4-1.3-0.4-2.2c0-0.9,0.1-1.7,0.4-2.4c0.3-0.7,0.7-1.4,1.3-1.9
		c0.5-0.5,1.2-0.9,2-1.2s1.7-0.4,2.6-0.4c0.9,0,1.8,0.1,2.8,0.4c1,0.2,1.9,0.6,2.8,1.1L127.6,10.7z"/>
	<path class="st1" d="M137.9,6.1v18.1h-4.7V6.1H137.9z"/>
	<path class="st1" d="M146.4,6.1v14.1h5.7v4h-10.4V6.1H146.4z"/>
	<path class="st1" d="M156.2,6.1l4.4,11l4.4-11h5.1l-7.7,18.1h-3.8L151,6.1H156.2z"/>
	<path class="st1" d="M182.3,10.1h-5.6v3h5.3v4h-5.3v3.1h5.6v4H172V6.1h10.3V10.1z"/>
	<path class="st1" d="M195.7,10.7c-0.5-0.4-1-0.7-1.5-0.9c-0.5-0.2-1-0.3-1.5-0.3c-0.6,0-1.1,0.1-1.5,0.4c-0.4,0.3-0.6,0.7-0.6,1.1
		c0,0.3,0.1,0.6,0.3,0.8c0.2,0.2,0.4,0.4,0.8,0.5s0.7,0.3,1.1,0.4c0.4,0.1,0.8,0.2,1.2,0.4c1.5,0.5,2.7,1.2,3.4,2.1
		c0.7,0.9,1.1,2,1.1,3.3c0,0.9-0.2,1.8-0.5,2.5s-0.8,1.4-1.4,1.9c-0.6,0.5-1.3,1-2.2,1.2c-0.9,0.3-1.9,0.4-3,0.4
		c-2.3,0-4.4-0.7-6.4-2l2-3.8c0.7,0.6,1.4,1.1,2.1,1.4c0.7,0.3,1.4,0.5,2,0.5c0.8,0,1.3-0.2,1.7-0.5c0.4-0.4,0.6-0.8,0.6-1.2
		c0-0.3,0-0.5-0.1-0.7c-0.1-0.2-0.3-0.4-0.5-0.6s-0.5-0.3-0.9-0.5c-0.4-0.1-0.8-0.3-1.3-0.5c-0.6-0.2-1.2-0.4-1.8-0.6
		c-0.6-0.2-1.1-0.5-1.6-0.9c-0.5-0.4-0.8-0.9-1.1-1.5c-0.3-0.6-0.4-1.3-0.4-2.2c0-0.9,0.1-1.7,0.4-2.4c0.3-0.7,0.7-1.4,1.3-1.9
		c0.5-0.5,1.2-0.9,2-1.2s1.7-0.4,2.6-0.4c0.9,0,1.8,0.1,2.8,0.4c1,0.2,1.9,0.6,2.8,1.1L195.7,10.7z"/>
	<path class="st1" d="M208.3,10.1v14.1h-4.7V10.1h-3.9v-4h12.5v4H208.3z"/>
	<path class="st1" d="M229.4,24.2h-5.9l-4.5-7v7h-4.7V6.1h7.3c1,0,1.9,0.1,2.7,0.4c0.8,0.3,1.4,0.7,1.9,1.2c0.5,0.5,0.9,1.1,1.1,1.8
		s0.4,1.4,0.4,2.2c0,1.4-0.3,2.5-1,3.3c-0.7,0.9-1.7,1.4-3,1.7L229.4,24.2z M219,14.2h0.9c0.9,0,1.6-0.2,2.1-0.6s0.7-0.9,0.7-1.7
		c0-0.7-0.2-1.3-0.7-1.7c-0.5-0.4-1.2-0.6-2.1-0.6H219V14.2z"/>
	<path class="st1" d="M241.7,10.1h-5.6v3h5.3v4h-5.3v3.1h5.6v4h-10.3V6.1h10.3V10.1z"/>
</g>
</svg>
