<?xml version="1.0" encoding="utf-8"?>
<!-- Generator: Adobe Illustrator 21.0.0, SVG Export Plug-In . SVG Version: 6.00 Build 0)  -->
<svg version="1.1" xmlns="http://www.w3.org/2000/svg" xmlns:xlink="http://www.w3.org/1999/xlink" x="0px" y="0px"
	 viewBox="0 0 231 29" style="enable-background:new 0 0 231 29;" xml:space="preserve">
<style type="text/css">
	.st0{display:none;}
	.st1{display:inline;stroke:#FFFFFF;stroke-miterlimit:10;}
	.st2{display:inline;}
	.st3{fill:#FFFFFF;}
	.st4{display:inline;fill:#FFFFFF;}
	.st5{fill:none;enable-background:new    ;}
	.st6{fill:#E30613;}
	.st7{enable-background:new    ;}
</style>
<g id="Layer_3" class="st0">
	<rect x="-4" y="-2.3" class="st1" width="238.3" height="34.3"/>
</g>
<g id="Layer_1" class="st0">
	<g class="st2">
		<g>
			<path class="st3" d="M50.3,20.9l3.9-4.4h-0.1c-0.3,0.2-0.6,0.3-0.8,0.4c-0.2,0-0.4,0.1-0.6,0.1c-0.7,0-1.3-0.1-1.8-0.4
				s-1-0.6-1.4-1s-0.7-1-0.9-1.5c-0.2-0.6-0.3-1.2-0.3-1.9s0.1-1.4,0.4-2s0.6-1.2,1.1-1.6s1-1,1.7-1.3C52.2,7,53,6.9,53.9,6.9
				s1.7,0.1,2.4,0.4c0.7,0.3,1.3,0.6,1.8,1.1s0.9,1,1.1,1.6c0.3,0.6,0.4,1.3,0.4,1.9c0,0.8-0.2,1.6-0.5,2.5
				c-0.3,0.9-0.9,1.8-1.6,2.6l-3.1,3.8h-4.1V20.9z M56.2,12c0-0.3-0.1-0.6-0.2-0.9c-0.1-0.3-0.3-0.5-0.5-0.7
				c-0.2-0.2-0.4-0.4-0.7-0.5c-0.3-0.1-0.6-0.2-0.9-0.2S53.3,9.8,53,9.9c-0.3,0.1-0.5,0.3-0.7,0.5c-0.2,0.2-0.4,0.4-0.5,0.7
				s-0.2,0.6-0.2,0.9c0,0.3,0.1,0.6,0.2,0.9c0.1,0.3,0.3,0.5,0.5,0.7c0.2,0.2,0.4,0.4,0.7,0.5c0.3,0.1,0.6,0.2,0.9,0.2
				c0.3,0,0.6-0.1,0.9-0.2s0.5-0.3,0.7-0.5c0.2-0.2,0.4-0.4,0.5-0.7C56.1,12.6,56.2,12.3,56.2,12z"/>
		</g>
		<g>
			<path class="st3" d="M65.4,12.6c0.1,0,0.2,0,0.2,0s0.1,0,0.2,0c0.4,0,0.8-0.1,1.1-0.4c0.3-0.3,0.4-0.6,0.4-1s-0.1-0.7-0.4-1
				s-0.6-0.4-1-0.4s-0.8,0.1-1,0.4s-0.4,0.7-0.4,1.1h-3.3c0.1-0.7,0.3-1.3,0.5-1.9c0.3-0.6,0.6-1,1-1.4s0.9-0.7,1.5-0.9
				c0.6-0.2,1.2-0.3,1.9-0.3c0.7,0,1.3,0.1,1.8,0.3c0.5,0.2,1,0.4,1.4,0.8c0.4,0.3,0.7,0.8,0.9,1.2c0.2,0.5,0.3,1,0.3,1.6
				s-0.1,1.2-0.4,1.6s-0.6,0.8-1.1,1.1c0.7,0.2,1.2,0.6,1.6,1.2c0.4,0.6,0.6,1.2,0.6,2.1c0,0.7-0.1,1.3-0.4,1.8
				c-0.3,0.6-0.6,1-1.1,1.4s-1,0.7-1.7,0.9c-0.7,0.2-1.4,0.3-2.2,0.3c-1,0-2-0.2-2.8-0.6s-1.5-1.1-2-1.9c-0.2-0.4-0.4-0.8-0.5-1.2
				s-0.1-0.8-0.1-1.2h3.5c0,0.6,0.2,1.1,0.6,1.4c0.3,0.3,0.8,0.5,1.4,0.5s1.1-0.2,1.4-0.5s0.4-0.8,0.4-1.2c0-0.6-0.2-1-0.5-1.3
				s-0.8-0.4-1.2-0.4c-0.1,0-0.2,0-0.3,0c-0.1,0-0.2,0-0.4,0.1L65.4,12.6L65.4,12.6z"/>
		</g>
		<g>
			<path class="st3" d="M77.1,7.5H79v5.4h-1.9v-0.6c-0.4,0.5-1,0.8-1.7,0.8c-0.4,0-0.7-0.1-1.1-0.2c-0.3-0.1-0.6-0.4-0.9-0.6
				c-0.2-0.3-0.4-0.6-0.6-0.9c-0.1-0.4-0.2-0.7-0.2-1.1s0.1-0.8,0.2-1.1s0.3-0.7,0.6-0.9s0.5-0.5,0.9-0.6c0.3-0.1,0.7-0.2,1.1-0.2
				c0.7,0,1.2,0.2,1.7,0.7V7.5z M72.9,13.9h6.2v1.2h-6.2V13.9z M74.7,10.2c0,0.3,0.1,0.6,0.4,0.9c0.2,0.2,0.5,0.4,0.9,0.4
				s0.6-0.1,0.9-0.4c0.2-0.2,0.4-0.5,0.4-0.9c0-0.3-0.1-0.6-0.4-0.8C76.7,9.1,76.4,9,76,9c-0.3,0-0.6,0.1-0.9,0.4
				C74.8,9.5,74.7,9.8,74.7,10.2z"/>
		</g>
		<g>
			<path class="st3" d="M94.7,10.8c-0.4-0.3-0.8-0.5-1.2-0.7c-0.4-0.1-0.8-0.2-1.1-0.2c-0.5,0-0.8,0.1-1.1,0.3
				c-0.3,0.2-0.4,0.5-0.4,0.8c0,0.2,0.1,0.4,0.2,0.6c0.1,0.2,0.3,0.3,0.6,0.4c0.2,0.1,0.5,0.2,0.8,0.3s0.6,0.2,0.9,0.3
				c1.2,0.4,2,0.9,2.5,1.5s0.8,1.5,0.8,2.5c0,0.7-0.1,1.3-0.4,1.9c-0.2,0.6-0.6,1-1,1.4c-0.5,0.4-1,0.7-1.7,0.9
				c-0.7,0.2-1.4,0.3-2.2,0.3c-1.7,0-3.3-0.5-4.8-1.5l1.5-2.8c0.5,0.5,1.1,0.8,1.6,1s1,0.3,1.5,0.3c0.6,0,1-0.1,1.3-0.4
				s0.4-0.6,0.4-0.9c0-0.2,0-0.4-0.1-0.5s-0.2-0.3-0.4-0.4c-0.2-0.1-0.4-0.2-0.7-0.4s-0.6-0.2-1-0.4c-0.5-0.1-0.9-0.3-1.3-0.5
				s-0.8-0.4-1.2-0.7c-0.3-0.3-0.6-0.7-0.8-1.1c-0.2-0.4-0.3-1-0.3-1.7s0.1-1.3,0.3-1.8c0.2-0.5,0.5-1,0.9-1.4
				c0.4-0.4,0.9-0.7,1.5-0.9c0.6-0.2,1.2-0.3,2-0.3c0.7,0,1.4,0.1,2.1,0.3c0.7,0.2,1.4,0.5,2.1,0.8L94.7,10.8z"/>
		</g>
		<g>
			<path class="st3" d="M106.9,18.5h-5l-0.8,2.4h-3.8l5.2-13.6h3.9l5.2,13.6h-3.8L106.9,18.5z M100.4,5.9c0-0.9,0.2-1.6,0.6-2.1
				s0.9-0.8,1.6-0.8c0.3,0,0.5,0,0.8,0.1s0.6,0.2,0.9,0.3s0.6,0.2,0.8,0.2c0.3,0.1,0.5,0.1,0.6,0.1c0.4,0,0.6-0.2,0.8-0.7h1.8
				c-0.1,1.1-0.4,1.8-0.8,2.3s-0.9,0.6-1.6,0.6c-0.3,0-0.7,0-1-0.1c-0.3-0.1-0.6-0.2-0.9-0.3s-0.5-0.2-0.8-0.3
				c-0.2-0.1-0.4-0.1-0.6-0.1c-0.1,0-0.2,0-0.3,0.1c-0.1,0.1-0.2,0.3-0.3,0.6h-1.6V5.9z M106,15.8l-1.6-4.5l-1.6,4.5H106z"/>
		</g>
		<g>
			<path class="st3" d="M112.4,14.1c0-1,0.2-1.9,0.6-2.8s0.9-1.6,1.5-2.3s1.4-1.2,2.4-1.5s1.9-0.5,3-0.5s2.1,0.2,3,0.5
				s1.7,0.9,2.4,1.5c0.7,0.6,1.2,1.4,1.6,2.3s0.6,1.8,0.6,2.8s-0.2,1.9-0.6,2.8c-0.4,0.9-0.9,1.6-1.6,2.3s-1.5,1.2-2.4,1.5
				c-0.9,0.4-1.9,0.5-3,0.5s-2.1-0.2-3-0.5c-0.9-0.4-1.7-0.9-2.4-1.5s-1.2-1.4-1.5-2.3C112.6,16,112.4,15.1,112.4,14.1z M116.1,14.1
				c0,0.5,0.1,1,0.3,1.5s0.5,0.9,0.8,1.2s0.8,0.6,1.2,0.8s1,0.3,1.5,0.3s1-0.1,1.5-0.3s0.9-0.4,1.2-0.8s0.6-0.7,0.8-1.2
				s0.3-1,0.3-1.5s-0.1-1-0.3-1.5s-0.5-0.9-0.8-1.2s-0.8-0.6-1.2-0.8s-1-0.3-1.5-0.3s-1,0.1-1.5,0.3s-0.9,0.4-1.2,0.8
				s-0.6,0.7-0.8,1.2S116.1,13.5,116.1,14.1z"/>
		</g>
		<g>
			<path class="st3" d="M143.3,10.8c-0.4-0.3-0.8-0.5-1.2-0.7c-0.4-0.1-0.8-0.2-1.1-0.2c-0.5,0-0.8,0.1-1.1,0.3s-0.4,0.5-0.4,0.8
				c0,0.2,0.1,0.4,0.2,0.6c0.1,0.2,0.3,0.3,0.6,0.4c0.2,0.1,0.5,0.2,0.8,0.3s0.6,0.2,0.9,0.3c1.2,0.4,2,0.9,2.5,1.5s0.8,1.5,0.8,2.5
				c0,0.7-0.1,1.3-0.4,1.9c-0.2,0.6-0.6,1-1,1.4c-0.5,0.4-1,0.7-1.7,0.9c-0.7,0.2-1.4,0.3-2.2,0.3c-1.7,0-3.3-0.5-4.8-1.5l1.5-2.8
				c0.5,0.5,1,0.8,1.6,1c0.5,0.2,1,0.3,1.5,0.3c0.6,0,1-0.1,1.3-0.4s0.4-0.6,0.4-0.9c0-0.2,0-0.4-0.1-0.5s-0.2-0.3-0.4-0.4
				s-0.4-0.2-0.7-0.4c-0.3-0.1-0.6-0.2-1-0.4c-0.5-0.1-0.9-0.3-1.3-0.5c-0.4-0.2-0.8-0.4-1.2-0.7s-0.6-0.7-0.8-1.1s-0.3-1-0.3-1.7
				s0.1-1.3,0.3-1.8s0.5-1,0.9-1.4c0.4-0.4,0.9-0.7,1.5-0.9c0.6-0.2,1.2-0.3,2-0.3c0.7,0,1.4,0.1,2.1,0.3c0.7,0.2,1.4,0.5,2.1,0.8
				L143.3,10.8z"/>
		</g>
		<g>
			<path class="st3" d="M151,7.3v13.6h-3.5V7.3H151z"/>
		</g>
		<g>
			<path class="st3" d="M157.3,7.3v10.6h4.2v3h-7.7V7.3H157.3z"/>
		</g>
		<g>
			<path class="st3" d="M164.6,7.3l3.3,8.3l3.3-8.3h3.8l-5.7,13.6h-2.8l-5.7-13.6H164.6z"/>
		</g>
		<g>
			<path class="st3" d="M184.1,10.3h-4.2v2.3h4v3h-4v2.3h4.2v3h-7.7V7.3h7.7V10.3z"/>
		</g>
		<g>
			<path class="st3" d="M194.1,10.8c-0.4-0.3-0.8-0.5-1.2-0.7c-0.4-0.1-0.8-0.2-1.1-0.2c-0.5,0-0.8,0.1-1.1,0.3s-0.4,0.5-0.4,0.8
				c0,0.2,0.1,0.4,0.2,0.6c0.1,0.2,0.3,0.3,0.6,0.4c0.2,0.1,0.5,0.2,0.8,0.3s0.6,0.2,0.9,0.3c1.2,0.4,2,0.9,2.5,1.5s0.8,1.5,0.8,2.5
				c0,0.7-0.1,1.3-0.4,1.9c-0.2,0.6-0.6,1-1,1.4c-0.5,0.4-1,0.7-1.7,0.9c-0.7,0.2-1.4,0.3-2.2,0.3c-1.7,0-3.3-0.5-4.8-1.5l1.5-2.8
				c0.5,0.5,1,0.8,1.6,1c0.5,0.2,1,0.3,1.5,0.3c0.6,0,1-0.1,1.3-0.4s0.4-0.6,0.4-0.9c0-0.2,0-0.4-0.1-0.5s-0.2-0.3-0.4-0.4
				s-0.4-0.2-0.7-0.4c-0.3-0.1-0.6-0.2-1-0.4c-0.5-0.1-0.9-0.3-1.3-0.5c-0.4-0.2-0.8-0.4-1.2-0.7s-0.6-0.7-0.8-1.1s-0.3-1-0.3-1.7
				s0.1-1.3,0.3-1.8s0.5-1,0.9-1.4c0.4-0.4,0.9-0.7,1.5-0.9c0.6-0.2,1.2-0.3,2-0.3c0.7,0,1.4,0.1,2.1,0.3c0.7,0.2,1.4,0.5,2.1,0.8
				L194.1,10.8z"/>
		</g>
		<g>
			<path class="st3" d="M203.6,10.3v10.6h-3.5V10.3h-2.9v-3h9.3v3H203.6z"/>
		</g>
		<g>
			<path class="st3" d="M219.3,20.9h-4.4l-3.4-5.2v5.2H208V7.3h5.5c0.8,0,1.4,0.1,2,0.3c0.6,0.2,1,0.5,1.4,0.9s0.6,0.8,0.8,1.3
				s0.3,1,0.3,1.6c0,1-0.2,1.9-0.7,2.5s-1.2,1.1-2.2,1.3L219.3,20.9z M211.5,13.4h0.7c0.7,0,1.2-0.1,1.6-0.4s0.6-0.7,0.6-1.2
				s-0.2-1-0.6-1.2s-0.9-0.4-1.6-0.4h-0.7V13.4z"/>
		</g>
		<g>
			<path class="st3" d="M228.5,10.3h-4.2v2.3h4v3h-4v2.3h4.2v3h-7.7V7.3h7.7V10.3z"/>
		</g>
	</g>
</g>
<g id="Layer_2">
	<g class="st0">
		<path class="st4" d="M7.2,29c0,0-8.1-17.2-7.1-19.3c0.9-2.1,3.7-1,4.1-0.6s3.7,7.6,5.9,8.8c2.3,1.2,4.6-4.7,8.8-7s11-1.7,23.7,3.5
			c-15-3.6-19.3-3.8-23.2-0.8s-6.6,7.7-9.4,7.6C7.2,21,4.2,14,3.5,13.4c0,0,2.3,6.6,5.6,13.5C8.9,27.4,7.2,29,7.2,29"/>
		<path class="st4" d="M11.2,0c3.3-0.1,6,2.5,6.1,5.8c0.1,3.3-2.5,6-5.8,6.1s-6-2.5-6.1-5.8C5.3,2.8,7.9,0.1,11.2,0"/>
	</g>
	<g>
		<path class="st5" d="M0.1,0.2"/>
		<g>
			<path class="st3" d="M7.6,29.2c0,0-8-17.1-7-19.2c0.9-2,3.6-1,4.1-0.6c0.4,0.4,3.6,7.5,5.9,8.6c2.2,1.2,4.6-4.7,8.7-6.9
				c4.1-2.3,10.9-1.7,23.5,3.5c-14.8-3.6-19.1-3.8-23-0.8s-6.5,7.7-9.3,7.5c-2.7-0.1-5.7-7.2-6.4-7.8c0,0,2.2,6.6,5.5,13.4
				C9.3,27.5,7.6,29.2,7.6,29.2"/>
			<path class="st6" d="M11.5,0.2c3.3-0.1,6,2.5,6.1,5.7s-2.4,6-5.7,6.1c-3.3,0.1-6-2.5-6.1-5.7C5.6,3.1,8.2,0.4,11.5,0.2"/>
		</g>
	</g>
	<g>
		<g class="st7">
			<path class="st3" d="M50.4,21.3l3.9-4.4h-0.1c-0.4,0.2-0.6,0.3-0.8,0.4c-0.2,0.1-0.4,0.1-0.6,0.1c-0.7,0-1.3-0.1-1.8-0.4
				c-0.6-0.3-1-0.6-1.5-1c-0.4-0.4-0.7-1-1-1.6c-0.2-0.6-0.4-1.2-0.4-1.9c0-0.7,0.1-1.4,0.4-2c0.2-0.6,0.7-1.1,1.1-1.6
				c0.6-0.4,1.2-0.7,1.9-1c0.7-0.3,1.5-0.4,2.4-0.4c0.9,0,1.7,0.1,2.4,0.4c0.7,0.3,1.3,0.6,1.8,1c0.4,0.4,0.9,1,1.1,1.6
				c0.3,0.6,0.4,1.3,0.4,1.9c0,0.7-0.1,1.6-0.5,2.5c-0.4,0.9-0.9,1.8-1.6,2.6l-3.1,3.8L50.4,21.3L50.4,21.3z M56.2,12.4
				c0-0.3-0.1-0.6-0.1-0.9c-0.1-0.3-0.3-0.5-0.5-0.7c-0.2-0.2-0.4-0.4-0.7-0.4c-0.3-0.1-0.5-0.2-0.8-0.2c-0.3,0-0.6,0.1-0.9,0.1
				c-0.3,0.1-0.5,0.3-0.7,0.4c-0.2,0.2-0.4,0.4-0.5,0.7c-0.1,0.2-0.1,0.7-0.1,1s0.1,0.6,0.1,0.9c0.1,0.3,0.3,0.5,0.5,0.7
				c0.2,0.2,0.4,0.4,0.7,0.4c0.3,0.1,0.6,0.1,0.9,0.1c0.3,0,0.6-0.1,0.9-0.1c0.3-0.1,0.5-0.3,0.7-0.4c0.2-0.2,0.4-0.4,0.5-0.7
				C56.1,13,56.2,12.7,56.2,12.4z"/>
			<path class="st3" d="M65.4,13c0.1,0,0.1,0,0.2,0c0.1,0,0.1,0,0.1,0c0.4,0,0.8-0.1,1-0.4c0.3-0.3,0.4-0.6,0.4-1
				c0-0.4-0.1-0.7-0.4-1c-0.2-0.2-0.6-0.4-1-0.4c-0.4,0-0.7,0.1-1,0.4c-0.3,0.3-0.4,0.7-0.4,1.1h-3.3c0.1-0.7,0.2-1.3,0.5-1.9
				c0.3-0.5,0.6-1,1-1.4c0.4-0.4,0.9-0.7,1.5-0.9c0.6-0.2,1.2-0.3,1.9-0.3c0.7,0,1.3,0.1,1.8,0.3c0.5,0.1,1,0.4,1.4,0.8
				c0.4,0.4,0.7,0.7,0.9,1.3c0.2,0.4,0.3,1,0.3,1.6c0,0.7-0.1,1.2-0.4,1.6c-0.2,0.4-0.6,0.7-1,1c0.7,0.2,1.3,0.6,1.6,1.1
				c0.4,0.5,0.6,1.3,0.6,2c0,0.7-0.1,1.3-0.4,1.8c-0.3,0.5-0.6,1-1.1,1.4c-0.4,0.4-1,0.7-1.7,0.9s-1.3,0.3-2.2,0.3
				c-1,0-2-0.2-2.8-0.6c-0.8-0.4-1.5-1-2-1.9c-0.2-0.4-0.4-0.8-0.4-1.2c-0.1-0.4-0.1-0.8-0.1-1.2h3.5c0,0.6,0.2,1.1,0.5,1.4
				c0.4,0.3,0.8,0.5,1.4,0.5c0.6,0,1-0.1,1.3-0.5c0.3-0.3,0.4-0.7,0.4-1.3c0-0.6-0.1-1-0.5-1.3S66.5,15,66,15c-0.1,0-0.2,0-0.4,0
				c-0.1,0-0.2,0.1-0.4,0.1v-2H65.4z"/>
			<path class="st3" d="M77.1,7.9H79v5.4h-1.9v-0.6c-0.4,0.5-1,0.7-1.6,0.7c-0.4,0-0.7-0.1-1-0.2c-0.4-0.1-0.6-0.4-0.9-0.6
				c-0.3-0.2-0.4-0.6-0.6-0.9c-0.1-0.4-0.2-0.7-0.2-1.1s0.1-0.7,0.2-1.1c0.1-0.4,0.3-0.7,0.6-0.9c0.2-0.2,0.5-0.4,0.9-0.6
				c0.3-0.1,0.7-0.2,1-0.2c0.7,0,1.2,0.2,1.7,0.7L77.1,7.9L77.1,7.9z M73,14.4h6.1v1.2H73V14.4z M74.7,10.6c0,0.3,0.1,0.6,0.4,0.9
				c0.2,0.2,0.5,0.4,0.9,0.4s0.7-0.1,0.9-0.4c0.2-0.2,0.4-0.5,0.4-0.9c0-0.3-0.1-0.6-0.4-0.8c-0.2-0.2-0.5-0.4-0.9-0.4
				c-0.3,0-0.6,0.1-0.9,0.4C74.8,10,74.7,10.3,74.7,10.6z"/>
			<path class="st3" d="M94.6,11.2c-0.4-0.3-0.7-0.5-1.1-0.7c-0.4-0.1-0.7-0.2-1.1-0.2c-0.4,0-0.8,0.1-1.1,0.3
				c-0.3,0.2-0.4,0.5-0.4,0.8c0,0.2,0.1,0.4,0.2,0.6c0.1,0.1,0.3,0.3,0.6,0.4c0.3,0.1,0.5,0.2,0.8,0.3c0.3,0.1,0.6,0.1,0.9,0.3
				c1.1,0.4,2,0.9,2.5,1.6c0.5,0.7,0.8,1.5,0.8,2.5c0,0.7-0.1,1.3-0.4,1.9c-0.2,0.5-0.6,1-1,1.4c-0.4,0.4-1,0.7-1.6,0.9
				c-0.7,0.2-1.4,0.3-2.2,0.3c-1.7,0-3.3-0.5-4.8-1.5l1.5-2.8c0.5,0.4,1,0.8,1.6,1s1,0.4,1.5,0.4c0.6,0,1-0.1,1.3-0.4
				c0.3-0.3,0.4-0.6,0.4-0.9c0-0.2,0-0.4-0.1-0.5c-0.1-0.1-0.2-0.3-0.4-0.4c-0.1-0.1-0.4-0.2-0.7-0.4c-0.3-0.1-0.6-0.2-1-0.4
				c-0.4-0.1-0.9-0.3-1.3-0.4c-0.4-0.1-0.8-0.4-1.2-0.7s-0.6-0.7-0.8-1.1c-0.2-0.4-0.3-1-0.3-1.6c0-0.7,0.1-1.3,0.3-1.8
				c0.2-0.5,0.5-1,1-1.4c0.4-0.4,0.9-0.7,1.5-0.9c0.6-0.2,1.3-0.3,1.9-0.3c0.7,0,1.3,0.1,2.1,0.3c0.7,0.1,1.4,0.4,2.1,0.8L94.6,11.2
				z"/>
			<path class="st3" d="M106.8,18.9h-5l-0.8,2.3h-3.7l5.1-13.5h3.9l5.1,13.6h-3.7L106.8,18.9z M100.4,6.3c0-0.9,0.2-1.6,0.6-2.1
				c0.4-0.5,0.9-0.7,1.6-0.7c0.2,0,0.5,0.1,0.8,0.1s0.6,0.1,0.9,0.2c0.3,0.1,0.6,0.1,0.8,0.2c0.2,0.1,0.4,0.1,0.6,0.1
				c0.4,0,0.7-0.2,0.7-0.7h1.8c-0.1,1-0.4,1.8-0.7,2.2s-1,0.7-1.6,0.7c-0.4,0-0.7-0.1-1-0.1C104.6,6.1,104.3,6,104,6
				c-0.3-0.1-0.5-0.1-0.7-0.2c-0.2-0.1-0.4-0.1-0.6-0.1s-0.2,0.1-0.4,0.1c-0.1,0.1-0.1,0.3-0.3,0.6H100.4z M105.9,16.3l-1.6-4.5
				l-1.6,4.5H105.9z"/>
			<path class="st3" d="M112.3,14.5c0-1,0.1-1.9,0.5-2.8s0.9-1.6,1.6-2.2c0.7-0.7,1.4-1.1,2.4-1.5c0.9-0.4,1.9-0.5,3.1-0.5
				c1.1,0,2.1,0.1,3,0.5c0.9,0.4,1.7,0.9,2.4,1.5c0.7,0.6,1.2,1.4,1.6,2.2c0.4,0.9,0.5,1.8,0.5,2.8s-0.1,1.9-0.5,2.8
				c-0.4,0.9-0.9,1.6-1.6,2.2s-1.5,1.1-2.4,1.5c-0.9,0.4-1.9,0.5-3,0.5c-1.1,0-2.1-0.1-3.1-0.5c-0.9-0.4-1.7-0.9-2.4-1.5
				c-0.7-0.7-1.2-1.4-1.6-2.2C112.5,16.5,112.3,15.6,112.3,14.5z M116,14.5c0,0.5,0.1,1,0.3,1.5c0.2,0.4,0.4,0.8,0.8,1.2
				c0.4,0.4,0.7,0.6,1.2,0.7c0.4,0.1,1,0.3,1.5,0.3s1-0.1,1.5-0.3c0.4-0.1,0.9-0.4,1.2-0.7c0.3-0.3,0.6-0.7,0.8-1.2
				c0.2-0.4,0.3-1,0.3-1.5s-0.1-1-0.3-1.5c-0.2-0.4-0.4-0.8-0.8-1.2c-0.4-0.3-0.7-0.6-1.2-0.7c-0.4-0.1-1-0.3-1.5-0.3
				s-1,0.1-1.5,0.3c-0.5,0.2-0.9,0.4-1.2,0.7c-0.4,0.3-0.6,0.7-0.8,1.2C116.1,13.5,116,14,116,14.5z"/>
			<path class="st3" d="M143.1,11.2c-0.4-0.3-0.7-0.5-1.1-0.7c-0.4-0.1-0.7-0.2-1.1-0.2c-0.4,0-0.8,0.1-1.1,0.3
				c-0.3,0.2-0.4,0.5-0.4,0.8c0,0.2,0.1,0.4,0.2,0.6c0.1,0.1,0.3,0.3,0.6,0.4c0.3,0.1,0.5,0.2,0.8,0.3c0.3,0.1,0.6,0.1,0.9,0.3
				c1.1,0.4,2,0.9,2.5,1.6c0.5,0.7,0.8,1.5,0.8,2.5c0,0.7-0.1,1.3-0.4,1.9c-0.2,0.5-0.6,1-1,1.4s-1,0.7-1.6,0.9
				c-0.7,0.2-1.4,0.3-2.2,0.3c-1.7,0-3.3-0.5-4.8-1.5l1.5-2.8c0.5,0.4,1,0.8,1.6,1c0.5,0.2,1,0.4,1.5,0.4c0.6,0,1-0.1,1.3-0.4
				c0.3-0.3,0.4-0.6,0.4-0.9c0-0.2,0-0.4-0.1-0.5c-0.1-0.1-0.2-0.3-0.4-0.4c-0.1-0.1-0.4-0.2-0.7-0.4c-0.3-0.1-0.6-0.2-1-0.4
				c-0.4-0.1-0.9-0.3-1.3-0.4c-0.4-0.1-0.8-0.4-1.2-0.7s-0.6-0.7-0.8-1.1c-0.2-0.4-0.3-1-0.3-1.6c0-0.7,0.1-1.3,0.3-1.8
				c0.2-0.5,0.5-1,1-1.4c0.4-0.4,0.9-0.7,1.5-0.9c0.6-0.2,1.3-0.3,1.9-0.3s1.3,0.1,2.1,0.3c0.7,0.1,1.4,0.4,2.1,0.8L143.1,11.2z"/>
			<path class="st3" d="M150.8,7.8v13.6h-3.5V7.8H150.8z"/>
			<path class="st3" d="M157.1,7.8v10.6h4.2v3h-7.8V7.8H157.1z"/>
			<path class="st3" d="M164.4,7.8l3.3,8.2l3.3-8.2h3.8L169,21.3h-2.8l-5.7-13.6H164.4z"/>
			<path class="st3" d="M183.9,10.8h-4.2V13h4v3h-4v2.3h4.2v3h-7.7V7.8h7.7V10.8z"/>
			<path class="st3" d="M193.9,11.2c-0.4-0.3-0.7-0.5-1.1-0.7c-0.4-0.1-0.7-0.2-1.1-0.2c-0.4,0-0.8,0.1-1.1,0.3
				c-0.3,0.2-0.4,0.5-0.4,0.8c0,0.2,0.1,0.4,0.2,0.6c0.1,0.1,0.3,0.3,0.6,0.4c0.3,0.1,0.5,0.2,0.8,0.3c0.3,0.1,0.6,0.1,0.9,0.3
				c1.1,0.4,2,0.9,2.5,1.6c0.5,0.7,0.8,1.5,0.8,2.5c0,0.7-0.1,1.3-0.4,1.9c-0.2,0.5-0.6,1-1,1.4c-0.4,0.4-1,0.7-1.6,0.9
				c-0.7,0.2-1.4,0.3-2.2,0.3c-1.7,0-3.3-0.5-4.8-1.5l1.5-2.8c0.5,0.4,1,0.8,1.6,1c0.5,0.2,1,0.4,1.5,0.4c0.6,0,1-0.1,1.3-0.4
				c0.3-0.3,0.4-0.6,0.4-0.9c0-0.2,0-0.4-0.1-0.5c-0.1-0.1-0.2-0.3-0.4-0.4c-0.1-0.1-0.4-0.2-0.7-0.4c-0.3-0.1-0.6-0.2-1-0.4
				c-0.4-0.1-0.9-0.3-1.3-0.4c-0.4-0.1-0.8-0.4-1.2-0.7s-0.6-0.7-0.8-1.1c-0.2-0.4-0.3-1-0.3-1.6c0-0.7,0.1-1.3,0.3-1.8
				c0.2-0.5,0.5-1,1-1.4c0.4-0.4,0.9-0.7,1.5-0.9c0.6-0.2,1.3-0.3,1.9-0.3s1.3,0.1,2.1,0.3c0.7,0.1,1.4,0.4,2.1,0.8L193.9,11.2z"/>
			<path class="st3" d="M203.3,10.8v10.6h-3.5V10.8h-2.9v-3h9.3v3H203.3z"/>
			<path class="st3" d="M219,21.3h-4.4l-3.4-5.2v5.2h-3.5V7.8h5.4c0.7,0,1.4,0.1,2,0.3c0.6,0.2,1,0.5,1.4,0.9
				c0.4,0.4,0.7,0.8,0.8,1.3s0.3,1,0.3,1.6c0,1-0.2,1.9-0.7,2.5c-0.5,0.7-1.3,1-2.2,1.3L219,21.3z M211.2,13.8h0.7
				c0.7,0,1.2-0.1,1.6-0.4c0.4-0.3,0.5-0.7,0.5-1.3c0-0.5-0.1-1-0.5-1.3s-0.9-0.4-1.6-0.4h-0.7V13.8z"/>
			<path class="st3" d="M228.2,10.8H224V13h4v3h-4v2.3h4.2v3h-7.7V7.8h7.7V10.8z"/>
		</g>
	</g>
</g>
</svg>
