<?xml version="1.0" encoding="utf-8"?>
<!-- Generator: Adobe Illustrator 21.0.0, SVG Export Plug-In . SVG Version: 6.00 Build 0)  -->
<svg version="1.1" id="Layer_1" xmlns="http://www.w3.org/2000/svg" xmlns:xlink="http://www.w3.org/1999/xlink" x="0px" y="0px"
	 viewBox="0 0 83 90" style="enable-background:new 0 0 83 90;" xml:space="preserve">
<style type="text/css">
	.st0{fill:none;enable-background:new    ;}
	.st1{fill:#FFA400;}
</style>
<path class="st0" d="z"/>
<g>
	<path class="st1" d="M72.7,77.1c-3.9-11.4-7.9-22.9-12.4-35.9c0,2.9,0,5.9,0,8.8c0,7.7-5.9,14-13.1,14c-7.1,0-14.3,0-21.4,0
		c-2.4,0-4.6-0.7-6.5-1.9c1.8,5,3,8.6,3.3,9.4c1.1,3.3,4.1,5.5,7.4,5.5C42.9,77.1,57.8,77.1,72.7,77.1z"/>
	<path class="st1" d="M0,6.1c14.9,0,29.8,0,42.7,0c3.3,0,6.3,2.2,7.4,5.5c0.2,0.6,1.3,3.7,2.8,8.2c-9,0-18.1,0-27.1,0
		c-7.2,0-13.1,6.3-13.1,14c0,3.1,0,6.2,0,9.3C8.2,29.8,4.1,17.9,0,6.1z"/>
	<path class="st1" d="M56.7,30.4c0.4,1,1.3,3.8,1.7,4.9c-8.5,0-17.1,0-25.6,0c-0.9,0-1.6,0.8-1.6,1.7c0,3.1,0,5.6,0,8.7
		c0,1,0.7,1.7,1.6,1.7c5.2,0,10.9,0,16.6,0c0,1.5,0,3,0,3.5c0,1.3-1,2.4-2.3,2.4c-6.1,0-16.4,0-21.1,0c-1,0-2.3-1.1-2.3-2.4
		c0-5,0-13.1,0-18.1c0-1.3,1-2.4,2.3-2.4C35.8,30.4,46.9,30.4,56.7,30.4z"/>
	<path class="st1" d="M52.5,0.6c6.5,0,12.9,0,19.4,0c3.7,29.6,7.4,59.1,11.1,88.7C72.8,59.8,62.7,30.2,52.5,0.6z"/>
</g>
</svg>
