<?xml version="1.0" encoding="utf-8"?>
<!-- Generator: Adobe Illustrator 21.0.0, SVG Export Plug-In . SVG Version: 6.00 Build 0)  -->
<svg version="1.1" id="Layer_1" xmlns="http://www.w3.org/2000/svg" xmlns:xlink="http://www.w3.org/1999/xlink" x="0px" y="0px"
	 viewBox="0 0 212 38" style="enable-background:new 0 0 212 38;" xml:space="preserve">
<style type="text/css">
	.st0{fill:none;enable-background:new    ;}
	.st1{fill:#FFFFFF;}
</style>
<path class="st0" d="M106,19"/>
<g>
	<g>
		<g>
			<path class="st1" d="M54.7,17.1c0.7,0,1,0.3,1,1v3.3c0,1.7-0.6,3.1-1.9,4.1c-1.3,1.1-3,1.6-5.2,1.6c-4.5,0-7-2.4-7-6.4v-4.8
				c0-4,2.6-6.4,7-6.4c3.5,0,5.7,1.4,6.7,4c0.3,0.6,0.1,1-0.6,1.3l-1.8,0.6c-0.7,0.2-1,0.1-1.3-0.6c-0.5-1.2-1.4-1.7-3-1.7
				c-2.1,0-3.2,1-3.2,2.9v4.9c0,1.9,1.1,2.9,3.2,2.9c2,0,3.2-0.9,3.2-2.1v-0.9h-2.9c-0.7,0-1-0.3-1-1v-1.5c0-0.7,0.3-1,1-1H54.7z"/>
			<path class="st1" d="M62.7,13.8c3.5,0,5.3,1.7,5.3,5.1V25c0,0.8-0.2,1.1-0.9,1.4c-1,0.5-2.4,0.6-4.5,0.6s-3.5-0.3-4.2-1
				c-0.8-0.6-1.2-1.6-1.2-3c0-3,1.5-3.9,5.6-3.9c0.6,0,1.2,0,1.7,0.1v-0.5c0-1.2-0.6-1.8-1.8-1.8c-0.9,0-1.5,0.3-2,0.9
				c-0.5,0.5-0.5,0.6-1.3,0.4l-1.4-0.5c-0.6-0.3-0.7-0.6-0.5-1.3C58.5,14.7,60.2,13.8,62.7,13.8z M64.4,22c-0.2,0-0.5,0-0.9,0
				c-0.5,0-0.8,0-1.1,0c-1.3,0-1.6,0.4-1.6,1.2c0,0.7,0.4,1.2,1.6,1.2c0.8,0,1.4,0,1.9-0.1c0.1,0,0.2-0.1,0.2-0.2L64.4,22L64.4,22z"
				/>
			<path class="st1" d="M79,23.5c0.6,0,0.9,0.3,0.9,0.9v1.4c0,0.6-0.2,0.9-0.9,0.9h-8.4c-0.6,0-0.9-0.2-0.9-0.9v-1.4
				c0-0.4,0.1-0.6,0.3-0.9l5.1-6.1h-4.2c-0.6,0-0.9-0.3-0.9-0.9v-1.4c0-0.6,0.2-0.9,0.9-0.9h8.1c0.6,0,0.9,0.2,0.9,0.9v1.4
				c0,0.4-0.1,0.6-0.4,1l-5.1,6H79z"/>
			<path class="st1" d="M81.4,19.2c0-3.4,2.1-5.3,5.8-5.3c3.8,0,5.8,2.1,5.8,5.1v1.4c0,0.8-0.5,1.2-1.3,1.2H85v0.6
				c0,1.3,0.7,1.9,2.2,1.9c1,0,1.8-0.3,2.3-1c0.5-0.5,0.7-0.6,1.4-0.3l1.2,0.6c0.6,0.3,0.7,0.8,0.4,1.4c-0.9,1.4-2.7,2.3-5.2,2.3
				c-3.9,0-5.7-2.1-5.7-5.3V19.2z M89.3,18.6c0-1.3-0.7-1.8-2.2-1.8c-1.4,0-2.2,0.6-2.2,1.8V19h4.2L89.3,18.6L89.3,18.6z"/>
			<path class="st1" d="M98.7,11.4c0.6,0,0.9,0.2,0.9,0.9v2h2.3c0.6,0,0.9,0.2,0.9,0.9v1.4c0,0.6-0.2,0.9-0.9,0.9h-2.3v4
				c0,1.8,0.5,2.3,2.2,2.3c0.6,0,0.9,0.2,0.9,0.9v1.5c0,0.7-0.2,0.9-0.9,0.9c-2.1,0.1-3.6-0.3-4.5-1.1c-0.9-0.8-1.4-2.3-1.4-4.3
				v-4.2h-1.3c-0.6,0-0.9-0.2-0.9-0.9v-1.4c0-0.6,0.2-0.9,0.9-0.9h1.3v-2c0-0.6,0.3-0.9,0.9-0.9C96.8,11.4,98.7,11.4,98.7,11.4z"/>
			<path class="st1" d="M109.3,13.8c3.5,0,5.3,1.7,5.3,5.1V25c0,0.8-0.2,1.1-0.9,1.4c-1,0.5-2.4,0.6-4.5,0.6c-2.1,0-3.5-0.3-4.2-1
				c-0.8-0.6-1.2-1.6-1.2-3c0-3,1.5-3.9,5.6-3.9c0.6,0,1.2,0,1.7,0.1v-0.5c0-1.2-0.6-1.8-1.8-1.8c-0.9,0-1.5,0.3-2,0.9
				c-0.5,0.5-0.5,0.6-1.3,0.4l-1.4-0.5c-0.6-0.3-0.7-0.6-0.5-1.3C105.2,14.7,106.8,13.8,109.3,13.8z M111.1,22c-0.2,0-0.5,0-0.9,0
				c-0.5,0-0.8,0-1.1,0c-1.3,0-1.6,0.4-1.6,1.2c0,0.7,0.4,1.2,1.6,1.2c0.8,0,1.4,0,1.9-0.1c0.1,0,0.2-0.1,0.2-0.2L111.1,22L111.1,22
				z"/>
			<g>
				<path class="st1" d="M128.7,9.7c0.3,0,0.5,0.2,0.5,0.5v0.7c0,0.3-0.2,0.5-0.5,0.5h-8.4v6h7.4c0.3,0,0.5,0.2,0.5,0.5v0.6
					c0,0.3-0.2,0.5-0.5,0.5h-7.4V25h8.8c0.3,0,0.5,0.2,0.5,0.5v0.8c0,0.3-0.2,0.5-0.5,0.5h-10c-0.4,0-0.5-0.1-0.5-0.5V10.1
					c0-0.4,0.1-0.5,0.5-0.5H128.7z"/>
				<path class="st1" d="M136.3,14c2.5,0,4.2,0.9,4.9,2.6c0.2,0.3,0.1,0.5-0.2,0.6l-0.6,0.3c-0.3,0.1-0.5,0.1-0.6-0.2
					c-0.5-1.2-1.4-1.8-3.4-1.8c-2.1,0-3.2,0.7-3.2,2.1c0.1,1.2,0.5,1.6,1.4,1.9c0.7,0.2,1.1,0.3,2.2,0.4c1.4,0.1,2.3,0.4,3.3,0.8
					c0.9,0.5,1.4,1.4,1.4,2.7c0,2.3-1.7,3.7-4.9,3.7c-2.7,0-4.4-1-5.1-3c-0.1-0.3-0.1-0.5,0.3-0.5l0.6-0.2c0.3-0.1,0.5,0,0.5,0.3
					c0.5,1.4,1.7,2.1,3.7,2.1c2.3,0,3.3-0.7,3.3-2.2c0-1.5-1.1-1.9-3.4-2.2c-1.2-0.1-1.7-0.2-2.7-0.5c-0.5-0.2-0.9-0.4-1.2-0.6
					c-0.5-0.5-1-1.4-1-2.5C131.6,15.4,133.2,14,136.3,14z"/>
				<path class="st1" d="M148.7,14c3.3,0,5,1.6,5,4.8v3.4c0,3.2-1.6,4.8-4.9,4.8c-1,0-2.3-0.3-3.6-0.8v5.3c0,0.3-0.2,0.5-0.5,0.5
					H144c-0.3,0-0.5-0.2-0.5-0.5V16c0-0.7,0.2-1,1-1.4C145.7,14.3,147.1,14,148.7,14z M152.2,18.8c0-2.3-1.2-3.3-3.5-3.3
					c-1.1,0-2,0.2-2.9,0.5c-0.5,0.2-0.5,0.3-0.5,0.6v8.1c1.2,0.5,2.3,0.8,3.4,0.8c2.3,0,3.4-1.1,3.4-3.3L152.2,18.8L152.2,18.8z"/>
				<path class="st1" d="M155.8,18.4c0-2.7,2-4.4,5.2-4.4s5.3,1.6,5.3,4.4v4.2c0,2.7-2,4.3-5.3,4.3c-3.3,0-5.2-1.7-5.2-4.3V18.4z
					 M164.7,18.4c0-1.8-1.4-3-3.7-3c-2.3,0-3.6,1.1-3.6,3v4.2c0,1.8,1.4,2.9,3.6,2.9c2.3,0,3.7-1.1,3.7-2.9V18.4z"/>
				<path class="st1" d="M174.6,14c0.3,0,0.5,0.2,0.5,0.5v0.6c0,0.3-0.2,0.5-0.5,0.5h-0.8c-1.2,0-2.3,0.2-3.2,0.5
					c-0.3,0.1-0.4,0.3-0.4,0.6v9.5c0,0.3-0.2,0.5-0.5,0.5H169c-0.3,0-0.5-0.2-0.5-0.5V16.1c0-0.7,0.2-1,0.9-1.4
					c1.3-0.5,2.6-0.7,4.3-0.7C173.8,14,174.6,14,174.6,14z"/>
				<path class="st1" d="M180,11.5c0.4,0,0.5,0.1,0.5,0.5v2.4h3.4c0.3,0,0.5,0.2,0.5,0.5v0.6c0,0.3-0.2,0.5-0.5,0.5h-3.4v6.2
					c0,1.4,0.3,2.3,0.7,2.7c0.5,0.5,1.4,0.6,2.7,0.6c0.3,0,0.5,0.2,0.5,0.5v0.6c0,0.3-0.1,0.5-0.5,0.5c-1.9,0-3.2-0.3-3.9-1
					c-0.7-0.7-1.1-2-1.1-3.9v-6.2h-2.3c-0.3,0-0.5-0.2-0.5-0.5v-0.6c0-0.3,0.2-0.5,0.5-0.5h2.3v-2.4c0-0.3,0.2-0.5,0.5-0.5H180z"/>
				<path class="st1" d="M187,10c0.6,0,0.9,0.2,0.9,0.9V11c0,0.6-0.2,0.9-0.9,0.9h-0.2c-0.6,0-0.9-0.2-0.9-0.9v-0.2
					c0-0.6,0.2-0.9,0.9-0.9H187z M187.4,14.4c0.3,0,0.5,0.2,0.5,0.5v11.4c0,0.3-0.2,0.5-0.5,0.5h-0.7c-0.3,0-0.5-0.2-0.5-0.5V14.8
					c0-0.3,0.2-0.5,0.5-0.5H187.4z"/>
				<path class="st1" d="M200.8,14.4c0.5,0,0.5,0.1,0.4,0.5l-4.8,11.5c-0.1,0.3-0.4,0.4-0.6,0.4h-0.5c-0.3,0-0.5-0.2-0.6-0.4
					l-4.8-11.5c-0.2-0.5-0.1-0.5,0.4-0.5h0.5c0.5,0,0.6,0.1,0.7,0.5l3.3,7.9c0.1,0.3,0.3,0.7,0.4,1.3c0.2,0.5,0.3,0.8,0.3,0.9h0.1
					c0-0.1,0.1-0.4,0.3-0.9c0.2-0.5,0.3-0.9,0.4-1.2l3.3-7.9c0.1-0.4,0.3-0.5,0.7-0.5L200.8,14.4L200.8,14.4z"/>
				<path class="st1" d="M207.3,14c3.5,0,4.8,1.8,4.8,4.7V25c0,0.8-0.2,1.1-0.9,1.4c-1,0.5-2.3,0.6-4,0.6c-2,0-3.3-0.3-4.1-0.9
					s-1.1-1.5-1.1-2.8c0-2.7,1.4-3.7,5.2-3.7c0.6,0,1.7,0.1,3.2,0.3v-1.1c0-2.1-0.8-3.3-3.3-3.3c-1.5,0-2.7,0.5-3.3,1.7
					c-0.2,0.3-0.4,0.3-0.6,0.2l-0.5-0.2c-0.3-0.1-0.4-0.3-0.3-0.6C203.3,14.8,204.9,14,207.3,14z M210.4,21.2
					c-1.4-0.2-2.5-0.2-3.3-0.2c-2.5,0-3.4,0.7-3.4,2.3s0.7,2.3,3.4,2.3c1.3,0,2.2-0.1,2.9-0.4c0.4-0.2,0.5-0.3,0.5-0.7V21.2z"/>
			</g>
		</g>
	</g>
	<g>
		<path class="st1" d="M27.7,15.9c-0.7,0-1.2,0.6-1.2,1.2c0,0.3,0,4.6-0.1,7.1c-0.2,3.2-2.2,5.6-5.3,6.1c-2.3,0.3-5.3,0.3-7.6,0.1
			c-3.2-0.3-5.6-2.7-5.7-5.8C7.6,24,7.4,18.9,7.6,13.8C7.7,11.7,8.7,10,10,9c1.6-1.2,3.1-1.5,7-1.5c4.1,0,7.6,0.6,8.8,2.2l0,0
			c0.2,0.2,0.4,0.4,0.7,0.4c0.3,0,0.6-0.1,0.8-0.3L31.5,6c0.4-0.4,0.5-1,0.1-1.4c-1.8-2.4-4.4-3.9-7.2-4.3c-4.9-0.6-9.5-0.6-14.6,0
			C4.6,1,0.1,5.5,0.1,11.3C0.1,11.8,0,15.4,0,19c0,3.8,0.2,7.7,0.2,7.8c0.1,5.2,3.9,10.1,9.9,10.8c5.2,0.6,10.5,0.5,14.4,0
			c4.9-0.7,9.3-4.6,9.5-10.8c0.1-3.1,0.2-6.5,0.1-9.6c0-0.7-0.6-1.2-1.2-1.2C30.9,15.9,27.7,15.9,27.7,15.9z"/>
		<g>
			<path class="st1" d="M22.2,22.7c0-0.3,0.1-3.1,0.1-3.7c0-2.1-0.1-2.8-0.1-3.7c-0.1-1.5-1-3.2-3.4-3.4l0,0l0,0
				c-1.9,0.2-3.3,1.4-3.4,3.5c-0.1,1.2-0.1,2.5-0.1,3.7c0,1.1,0.1,3.4,0.1,3.8c0.2,1.6,1.1,3.1,3.4,3.4l0,0l0,0
				C21.1,25.9,22,24.3,22.2,22.7z"/>
			<path class="st1" d="M14.6,22.9c0-0.4-0.1-2.8-0.1-3.9c0-1.2,0-2.5,0.1-3.8c0.1-1.6,0.8-2.8,2-3.5c-0.5,0-1,0-1.4,0.1
				c-2,0.2-3.3,1.4-3.4,3.5c-0.1,1.2-0.1,2.5-0.1,3.7c0,1.1,0.1,3.4,0.1,3.8c0.2,1.6,1.1,3.1,3.4,3.4c0.5,0,1,0.1,1.4,0.1
				C15.5,25.5,14.8,24.4,14.6,22.9z"/>
		</g>
	</g>
</g>
</svg>
