<?xml version="1.0" encoding="utf-8"?>
<!-- Generator: Adobe Illustrator 21.0.0, SVG Export Plug-In . SVG Version: 6.00 Build 0)  -->
<svg version="1.1" id="Layer_1" xmlns="http://www.w3.org/2000/svg" xmlns:xlink="http://www.w3.org/1999/xlink" x="0px" y="0px"
	 viewBox="0 0 207 77" style="enable-background:new 0 0 207 77;" xml:space="preserve">
<style type="text/css">
	.st0{fill:none;enable-background:new    ;}
	.st1{fill:#00B0A8;}
	.st2{fill:#848384;}
	.st3{fill:#01676E;}
</style>
<path class="st0" d="z"/>
<g>
	<g>
		<g>
			<path class="st1" d="M88.3,15.2c1.1,0,1.4,0.3,1.4,1.4v4.8c0,2.4-0.9,4.4-2.7,6c-1.8,1.6-4.4,2.3-7.6,2.3
				c-6.5,0-10.3-3.5-10.3-9.4v-7c0-5.9,3.8-9.4,10.3-9.4c5.1,0,8.3,2,9.8,5.9c0.3,0.9,0.1,1.5-0.9,1.8l-2.7,0.9
				c-1,0.3-1.4,0.1-1.8-0.9c-0.7-1.7-2.1-2.5-4.4-2.5c-3.1,0-4.6,1.4-4.6,4.2v7.1c0,2.8,1.5,4.2,4.6,4.2c2.9,0,4.7-1.3,4.7-3v-1.3
				h-4.2c-1.1,0-1.4-0.3-1.4-1.4v-2.2c0-1.1,0.3-1.4,1.4-1.4H88.3z"/>
			<path class="st1" d="M100,10.6c5.2,0,7.8,2.4,7.8,7.4v8.9c0,1.2-0.3,1.6-1.3,2c-1.4,0.6-3.6,0.9-6.6,0.9c-3,0-5.1-0.5-6.2-1.4
				c-1.2-0.9-1.7-2.4-1.7-4.4c0-4.3,2.3-5.7,8.1-5.7c0.9,0,1.7,0,2.5,0.1v-0.8c0-1.7-0.9-2.6-2.7-2.6c-1.3,0-2.2,0.4-2.9,1.3
				c-0.6,0.8-0.8,0.9-1.8,0.6L93.2,16c-0.9-0.4-1.1-1-0.7-1.8C93.8,11.8,96.3,10.6,100,10.6z M102.5,22.4c-0.2,0-0.7,0-1.4,0
				c-0.7,0-1.2,0-1.6,0c-1.8,0-2.4,0.6-2.4,1.7c0,1.1,0.5,1.7,2.3,1.7c1.2,0,2.2,0,2.8-0.1c0.2,0,0.2-0.1,0.2-0.2V22.4z"/>
			<path class="st1" d="M123.8,24.6c1,0,1.3,0.3,1.3,1.3v2.1c0,1-0.3,1.3-1.3,1.3h-12.3c-0.9,0-1.3-0.3-1.3-1.3v-2.1
				c0-0.5,0.1-1,0.4-1.3l7.4-8.8h-6.4c-0.9,0-1.3-0.3-1.3-1.3v-2.1c0-1,0.3-1.3,1.3-1.3h11.9c1,0,1.3,0.3,1.3,1.3v2.1
				c0,0.5-0.2,0.9-0.5,1.4l-7.5,8.7H123.8z"/>
			<path class="st1" d="M127.3,18.3c0-5,3-7.7,8.4-7.7c5.5,0,8.4,3.1,8.4,7.4v2.1c0,1.2-0.6,1.7-1.8,1.7h-9.7v0.9
				c0,1.8,1,2.8,3.1,2.8c1.5,0,2.6-0.5,3.3-1.4c0.6-0.8,1-1,2-0.5l1.7,0.9c0.9,0.5,1.1,1.2,0.6,2.1c-1.4,2.2-3.9,3.2-7.7,3.2
				c-5.7,0-8.3-3-8.3-7.7V18.3z M138.7,17.4c0-1.8-1-2.7-3.1-2.7c-2.1,0-3.1,0.9-3.1,2.7V18h6.2V17.4z"/>
			<path class="st1" d="M152.5,6.9c0.9,0,1.3,0.3,1.3,1.3v2.9h3.2c0.9,0,1.3,0.3,1.3,1.3v2.1c0,1-0.3,1.3-1.3,1.3h-3.2v5.9
				c0,2.6,0.8,3.2,3.2,3.2c1,0,1.3,0.3,1.3,1.3v2.2c0,1-0.3,1.3-1.3,1.3c-3,0.1-5.2-0.5-6.5-1.6c-1.3-1.2-2-3.2-2-6.3v-6.1h-1.8
				c-1,0-1.3-0.3-1.3-1.3v-2.1c0-1,0.3-1.3,1.3-1.3h1.8V8.2c0-1,0.3-1.3,1.3-1.3H152.5z"/>
			<path class="st1" d="M168.1,10.6c5.2,0,7.8,2.4,7.8,7.4v8.9c0,1.2-0.3,1.6-1.3,2c-1.4,0.6-3.6,0.9-6.6,0.9c-3,0-5.1-0.5-6.2-1.4
				c-1.2-0.9-1.7-2.4-1.7-4.4c0-4.3,2.3-5.7,8.1-5.7c0.9,0,1.7,0,2.5,0.1v-0.8c0-1.7-0.9-2.6-2.7-2.6c-1.3,0-2.2,0.4-2.9,1.3
				c-0.6,0.8-0.8,0.9-1.8,0.6l-1.9-0.8c-0.9-0.4-1.1-1-0.7-1.8C161.9,11.8,164.4,10.6,168.1,10.6z M170.6,22.4c-0.2,0-0.7,0-1.4,0
				c-0.7,0-1.2,0-1.6,0c-1.8,0-2.4,0.6-2.4,1.7c0,1.1,0.5,1.7,2.3,1.7c1.2,0,2.2,0,2.8-0.1c0.2,0,0.2-0.1,0.2-0.2V22.4z"/>
		</g>
		<g>
			<path class="st2" d="M85.5,34.2c0.5,0,0.7,0.2,0.7,0.7v1c0,0.5-0.2,0.7-0.7,0.7H73.2v8.7h10.7c0.5,0,0.7,0.2,0.7,0.7v1
				c0,0.5-0.2,0.7-0.7,0.7H73.2v9h12.8c0.5,0,0.7,0.2,0.7,0.7v1c0,0.5-0.2,0.7-0.7,0.7H71.3c-0.5,0-0.7-0.2-0.7-0.7V34.9
				c0-0.5,0.2-0.7,0.7-0.7H85.5z"/>
			<path class="st2" d="M96.5,40.5c3.6,0,6,1.3,7.1,3.8c0.2,0.4,0.1,0.7-0.3,0.9l-0.9,0.4c-0.4,0.2-0.7,0.1-0.9-0.3
				c-0.8-1.8-2.1-2.7-5-2.7c-3,0-4.6,1-4.6,3c0.1,1.7,0.7,2.4,2.1,2.8c1,0.3,1.6,0.3,3.1,0.5c2.1,0.2,3.4,0.5,4.8,1.2
				c1.4,0.7,2,2,2,4c0,3.3-2.4,5.3-7.2,5.3c-3.9,0-6.4-1.4-7.5-4.3c-0.2-0.4-0.1-0.7,0.4-0.8l0.9-0.3c0.4-0.1,0.7,0,0.8,0.4
				c0.8,2,2.5,3,5.3,3c3.3,0,4.9-1,4.9-3.2c0-2.3-1.5-2.8-5.1-3.2c-1.8-0.2-2.5-0.3-3.9-0.7C92,50,91.4,49.7,91,49.4
				c-0.8-0.7-1.4-2-1.4-3.7C89.6,42.5,92,40.5,96.5,40.5z"/>
			<path class="st2" d="M114.7,40.5c4.8,0,7.3,2.3,7.3,7v5c0,4.6-2.4,6.9-7.2,6.9c-1.5,0-3.2-0.4-5.2-1.2V66c0,0.4-0.2,0.6-0.6,0.6
				h-1.1c-0.4,0-0.6-0.2-0.6-0.6V43.5c0-1.1,0.3-1.5,1.4-2C110.4,40.8,112.4,40.5,114.7,40.5z M119.7,47.5c0-3.2-1.7-4.9-5.2-4.9
				c-1.6,0-3,0.2-4.2,0.7c-0.6,0.2-0.7,0.4-0.7,0.9v11.8c1.7,0.8,3.4,1.2,5.1,1.2c3.3,0,5-1.6,5-4.9V47.5z"/>
			<path class="st2" d="M125,46.9c0-4,2.9-6.4,7.6-6.4c4.8,0,7.7,2.4,7.7,6.4v6.1c0,4-2.9,6.4-7.7,6.4c-4.7,0-7.6-2.4-7.6-6.4V46.9z
				 M138,46.9c0-2.7-2-4.3-5.3-4.3c-3.2,0-5.3,1.6-5.3,4.3v6.1c0,2.7,2.1,4.3,5.3,4.3c3.3,0,5.3-1.6,5.3-4.3V46.9z"/>
			<path class="st2" d="M152.4,40.5c0.4,0,0.6,0.2,0.6,0.6V42c0,0.4-0.2,0.6-0.6,0.6h-1.2c-1.7,0-3.3,0.2-4.6,0.7
				c-0.4,0.2-0.6,0.5-0.6,0.9v14c0,0.4-0.2,0.6-0.6,0.6h-1.1c-0.4,0-0.6-0.2-0.6-0.6V43.5c0-1.1,0.3-1.5,1.3-2
				c1.8-0.7,3.9-1,6.3-1.1H152.4z"/>
			<path class="st2" d="M160.3,36.8c0.5,0,0.6,0.2,0.6,0.6V41h5.1c0.4,0,0.6,0.2,0.6,0.6v0.9c0,0.4-0.2,0.6-0.6,0.6h-5.1v9.1
				c0,2,0.3,3.3,1,4c0.7,0.7,2,1,3.9,1c0.4,0,0.6,0.2,0.6,0.7v0.9c0,0.5-0.2,0.6-0.6,0.6c-2.7,0-4.6-0.4-5.7-1.5
				c-1.1-1-1.6-2.9-1.6-5.7v-9.1h-3.3c-0.4,0-0.6-0.2-0.6-0.6v-0.9c0-0.4,0.2-0.6,0.6-0.6h3.3v-3.6c0-0.4,0.2-0.6,0.6-0.6H160.3z"/>
			<path class="st2" d="M170.6,34.6c1,0,1.3,0.3,1.3,1.3v0.2c0,1-0.3,1.3-1.3,1.3h-0.2c-1,0-1.3-0.3-1.3-1.3v-0.2
				c0-1,0.3-1.3,1.3-1.3H170.6z M171.1,41c0.4,0,0.6,0.2,0.6,0.6v16.7c0,0.4-0.2,0.6-0.6,0.6h-1.1c-0.4,0-0.6-0.2-0.6-0.6V41.6
				c0-0.4,0.2-0.6,0.6-0.6H171.1z"/>
			<path class="st2" d="M190.6,41c0.6,0,0.7,0.1,0.5,0.7l-7,16.7c-0.2,0.4-0.5,0.6-0.9,0.6h-0.7c-0.5,0-0.7-0.2-0.9-0.6l-7-16.7
				c-0.2-0.6-0.1-0.7,0.5-0.7h0.8c0.7,0,0.9,0.1,1.1,0.6l4.8,11.5c0.2,0.5,0.3,1,0.6,1.8c0.2,0.7,0.3,1.2,0.4,1.3h0.1
				c0-0.1,0.2-0.5,0.4-1.3c0.2-0.7,0.4-1.3,0.6-1.7l4.7-11.5c0.2-0.5,0.4-0.6,1.1-0.6H190.6z"/>
			<path class="st2" d="M200,40.5c5.2,0,7,2.7,7,6.9v9.1c0,1.2-0.3,1.6-1.3,2c-1.4,0.6-3.3,0.9-5.8,0.9c-2.9,0-4.8-0.4-5.9-1.3
				c-1.1-0.9-1.6-2.2-1.6-4.1c0-3.9,2.1-5.4,7.7-5.4c0.9,0,2.5,0.1,4.6,0.3v-1.6c0-3-1.2-4.8-4.7-4.8c-2.3,0-3.9,0.8-4.9,2.5
				c-0.2,0.3-0.6,0.5-0.9,0.3l-0.8-0.3c-0.5-0.2-0.6-0.5-0.3-0.9C194.3,41.7,196.6,40.5,200,40.5z M204.7,50.9
				c-2.1-0.2-3.7-0.3-4.8-0.3c-3.7,0-5,1-5,3.4c0,2.4,1.1,3.5,5,3.5c1.8,0,3.2-0.2,4.2-0.6c0.6-0.2,0.7-0.3,0.7-1V50.9z"/>
		</g>
		<g>
			<path class="st2" d="M76.7,69.5c0.2,0,0.2,0.1,0.2,0.2V76c0,0.2-0.1,0.2-0.2,0.2h-0.4c-0.2,0-0.2-0.1-0.2-0.2v-3.5
				c0-0.5,0.1-1.1,0.2-1.8h0c-0.2,0.5-0.4,1-0.8,1.6l-1.2,2.2c-0.1,0.1-0.2,0.2-0.3,0.2h-0.2c-0.1,0-0.2-0.1-0.3-0.2l-1.2-2.2
				c-0.3-0.5-0.5-1-0.7-1.6h-0.1c0.1,0.6,0.2,1.2,0.2,1.8V76c0,0.2-0.1,0.2-0.2,0.2h-0.4c-0.2,0-0.2-0.1-0.2-0.2v-6.3
				c0-0.2,0.1-0.2,0.2-0.2h0.3c0.2,0,0.3,0,0.4,0.2l2.2,3.9l2.2-3.9c0.1-0.2,0.1-0.2,0.3-0.2H76.7z"/>
			<path class="st2" d="M82.1,71.3c0.2,0,0.2,0,0.2,0.2v4c0,0.3-0.1,0.4-0.4,0.5c-0.6,0.2-1.2,0.3-1.8,0.3c-1.3,0-1.9-0.6-1.9-1.9
				v-3c0-0.2,0-0.2,0.2-0.2h0.4c0.2,0,0.2,0.1,0.2,0.2v2.9c0,0.8,0.4,1.1,1.2,1.1c0.4,0,0.7-0.1,1.1-0.2c0.1,0,0.1-0.1,0.1-0.2v-3.7
				c0-0.2,0.1-0.2,0.2-0.2H82.1z"/>
			<path class="st2" d="M83.9,69.5c0.4,0,0.5,0.1,0.5,0.5V70c0,0.3-0.1,0.5-0.5,0.5h-0.1c-0.3,0-0.5-0.1-0.5-0.5V70
				C83.4,69.6,83.5,69.5,83.9,69.5L83.9,69.5z M84.1,71.3c0.2,0,0.2,0,0.2,0.2V76c0,0.2,0,0.2-0.2,0.2h-0.4c-0.2,0-0.2,0-0.2-0.2
				v-4.5c0-0.2,0-0.2,0.2-0.2H84.1z"/>
			<path class="st2" d="M86.6,70.2c0.2,0,0.2,0,0.2,0.2v0.9h1.3c0.2,0,0.2,0.1,0.2,0.2v0.3c0,0.2-0.1,0.2-0.2,0.2h-1.3v2.2
				c0,0.5,0.1,0.8,0.3,1c0.2,0.2,0.5,0.2,1,0.2c0.2,0,0.2,0,0.2,0.2v0.3c0,0.2-0.1,0.2-0.2,0.2c-0.8,0-1.3-0.1-1.6-0.4
				c-0.3-0.3-0.5-0.8-0.5-1.6v-2.2h-0.8c-0.2,0-0.2-0.1-0.2-0.2v-0.3c0-0.2,0.1-0.2,0.2-0.2H86v-0.9c0-0.2,0.1-0.2,0.2-0.2H86.6z"/>
			<path class="st2" d="M88.9,73c0-1.1,0.8-1.8,2.1-1.8c1.4,0,2.2,0.7,2.2,1.8v1.6c0,1.1-0.8,1.8-2.2,1.8c-1.3,0-2.1-0.7-2.1-1.8V73
				z M92.4,73c0-0.7-0.5-1.1-1.3-1.1c-0.8,0-1.3,0.4-1.3,1.1v1.6c0,0.7,0.5,1.1,1.3,1.1c0.8,0,1.3-0.4,1.3-1.1V73z"/>
			<path class="st2" d="M98.3,71.2c1.4,0,2,0.7,2,1.9v2.5c0,0.3-0.1,0.4-0.3,0.5c-0.4,0.2-0.9,0.2-1.6,0.2c-0.8,0-1.3-0.1-1.6-0.4
				c-0.3-0.2-0.4-0.6-0.4-1.1c0-1.1,0.6-1.5,2.1-1.5c0.3,0,0.7,0,1.1,0.1v-0.4c0-0.7-0.3-1.1-1.1-1.1c-0.6,0-0.9,0.2-1.2,0.6
				c-0.1,0.2-0.1,0.2-0.3,0.1l-0.3-0.1c-0.2-0.1-0.2-0.2-0.1-0.3C96.7,71.5,97.3,71.2,98.3,71.2z M99.4,74.2c-0.5,0-0.9-0.1-1.2-0.1
				c-0.9,0-1.2,0.2-1.2,0.8c0,0.5,0.3,0.8,1.2,0.8c0.5,0,0.8,0,1.1-0.1c0.1,0,0.1-0.1,0.1-0.2V74.2z"/>
			<path class="st2" d="M102.3,76c0,0.2-0.1,0.2-0.2,0.2h-0.4c-0.2,0-0.2,0-0.2-0.2v-6.6c0-0.2,0-0.2,0.2-0.2h0.4
				c0.2,0,0.2,0,0.2,0.2V76z"/>
			<path class="st2" d="M103.3,73.2c0-1.3,0.8-2,2.2-2c1.4,0,2.2,0.8,2.2,2v0.6c0,0.2-0.1,0.3-0.4,0.3h-3.1v0.5
				c0,0.7,0.5,1.1,1.3,1.1c0.6,0,1.1-0.2,1.3-0.7c0.1-0.2,0.2-0.2,0.4-0.1l0.3,0.1c0.2,0.1,0.2,0.2,0.1,0.4c-0.4,0.7-1.1,1-2.1,1
				c-1.4,0-2.1-0.8-2.1-2V73.2z M106.8,73.1c0-0.8-0.5-1.2-1.3-1.2c-0.9,0-1.3,0.4-1.3,1.2v0.3h2.6V73.1z M105.9,69.3
				c0.2-0.1,0.3-0.1,0.4,0l0.2,0.2c0.1,0.1,0.1,0.2,0,0.3l-1.7,0.8c-0.1,0-0.2,0-0.3,0l-0.1-0.1c-0.1-0.1-0.1-0.2,0-0.2L105.9,69.3z
				"/>
			<path class="st2" d="M113.5,71.2c1.2,0,1.8,0.6,1.8,1.9v3c0,0.2-0.1,0.2-0.2,0.2h-0.4c-0.2,0-0.2,0-0.2-0.2v-3
				c0-0.7-0.4-1.1-1.1-1.1c-0.4,0-0.7,0.1-1.1,0.3c0.1,0.2,0.1,0.5,0.1,0.8v3c0,0.2-0.1,0.2-0.2,0.2h-0.4c-0.2,0-0.2,0-0.2-0.2v-3
				c0-0.7-0.4-1.1-1.1-1.1c-0.3,0-0.6,0-0.9,0.2c-0.1,0-0.1,0.1-0.1,0.2V76c0,0.2,0,0.2-0.2,0.2h-0.4c-0.2,0-0.2-0.1-0.2-0.2v-4
				c0-0.3,0.1-0.4,0.4-0.5c0.5-0.2,1-0.3,1.6-0.3c0.5,0,0.9,0.1,1.2,0.4C112.4,71.3,113,71.2,113.5,71.2z"/>
			<path class="st2" d="M118.5,73.1c0-1.3,0.7-2,1.9-2c0.4,0,0.8,0.1,1.3,0.2v-2c0-0.2,0.1-0.2,0.2-0.2h0.4c0.2,0,0.2,0.1,0.2,0.2
				v6.2c0,0.3-0.1,0.4-0.4,0.5c-0.5,0.2-1.1,0.3-1.7,0.3c-1.4,0-2-0.6-2-1.9V73.1z M121.8,72.2c-0.5-0.1-0.9-0.2-1.2-0.2
				c-0.8,0-1.2,0.4-1.2,1.2v1.3c0,0.8,0.4,1.2,1.3,1.2c0.4,0,0.7,0,1-0.2c0.1,0,0.1-0.1,0.1-0.2V72.2z"/>
			<path class="st2" d="M123.7,73c0-1.1,0.8-1.8,2.1-1.8c1.4,0,2.2,0.7,2.2,1.8v1.6c0,1.1-0.8,1.8-2.2,1.8c-1.3,0-2.1-0.7-2.1-1.8
				V73z M127.1,73c0-0.7-0.5-1.1-1.3-1.1c-0.8,0-1.3,0.4-1.3,1.1v1.6c0,0.7,0.5,1.1,1.3,1.1c0.8,0,1.3-0.4,1.3-1.1V73z"/>
			<path class="st2" d="M130.8,71.2c1,0,1.7,0.3,2,1c0.1,0.2,0,0.3-0.1,0.3l-0.3,0.1c-0.2,0.1-0.2,0-0.3-0.1
				c-0.2-0.4-0.5-0.6-1.2-0.6c-0.7,0-1.1,0.2-1.1,0.7c0,0.6,0.4,0.7,1.3,0.8c0.6,0.1,1.1,0.2,1.4,0.4c0.3,0.2,0.5,0.6,0.5,1.1
				c0,0.9-0.7,1.5-2,1.5c-1.1,0-1.8-0.4-2.1-1.2c-0.1-0.2,0-0.3,0.1-0.3l0.3-0.1c0.1,0,0.2,0,0.3,0.1c0.2,0.5,0.6,0.7,1.3,0.7
				c0.8,0,1.2-0.2,1.2-0.7c0-0.5-0.4-0.7-1.3-0.8c-0.5,0-0.7-0.1-1.1-0.2c-0.2-0.1-0.3-0.1-0.5-0.2c-0.2-0.2-0.4-0.6-0.4-1
				C128.9,71.7,129.6,71.2,130.8,71.2z"/>
			<path class="st2" d="M139.9,73.3c-0.5,0.2-1.1,0.2-1.7,0.2c-1.6,0-2.4-0.7-2.4-2.1c0-1.3,0.9-2.1,2.5-2.1c1.6,0,2.5,0.9,2.5,2.5
				v2.2c0,1.6-0.9,2.5-2.5,2.5c-1.2,0-2-0.5-2.4-1.5c-0.1-0.1,0-0.2,0.2-0.3l0.4-0.1c0.2-0.1,0.2,0,0.3,0.2c0.3,0.6,0.8,0.9,1.6,0.9
				c1,0,1.6-0.5,1.6-1.6V73.3z M139.9,71.8c0-1-0.6-1.6-1.6-1.6c-1,0-1.6,0.5-1.6,1.3c0,0.9,0.5,1.3,1.6,1.3c0.7,0,1.3-0.1,1.6-0.3
				V71.8z"/>
			<path class="st2" d="M141.9,71.6c0-1.4,0.9-2.3,2.5-2.3c1.6,0,2.5,0.9,2.5,2.3v2.5c0,1.4-0.9,2.3-2.5,2.3c-1.6,0-2.5-0.9-2.5-2.3
				V71.6z M145.9,71.6c0-0.9-0.6-1.4-1.6-1.4c-1,0-1.6,0.5-1.6,1.4v2.5c0,0.9,0.6,1.4,1.6,1.4c1,0,1.6-0.5,1.6-1.4V71.6z"/>
			<path class="st2" d="M155.1,71.2c1.2,0,1.8,0.6,1.8,1.9v3c0,0.2-0.1,0.2-0.2,0.2h-0.4c-0.2,0-0.2,0-0.2-0.2v-3
				c0-0.7-0.4-1.1-1.1-1.1c-0.4,0-0.7,0.1-1.1,0.3c0.1,0.2,0.1,0.5,0.1,0.8v3c0,0.2-0.1,0.2-0.2,0.2h-0.4c-0.2,0-0.2,0-0.2-0.2v-3
				c0-0.7-0.4-1.1-1.1-1.1c-0.3,0-0.6,0-0.9,0.2c-0.1,0-0.1,0.1-0.1,0.2V76c0,0.2,0,0.2-0.2,0.2h-0.4c-0.2,0-0.2-0.1-0.2-0.2v-4
				c0-0.3,0.1-0.4,0.4-0.5c0.5-0.2,1-0.3,1.6-0.3c0.5,0,0.9,0.1,1.2,0.4C153.9,71.3,154.5,71.2,155.1,71.2z"/>
			<path class="st2" d="M158.5,69.5c0.4,0,0.5,0.1,0.5,0.5V70c0,0.3-0.1,0.5-0.5,0.5h-0.1c-0.3,0-0.5-0.1-0.5-0.5V70
				C158,69.6,158.1,69.5,158.5,69.5L158.5,69.5z M158.7,71.3c0.2,0,0.2,0,0.2,0.2V76c0,0.2,0,0.2-0.2,0.2h-0.4c-0.2,0-0.2,0-0.2-0.2
				v-4.5c0-0.2,0-0.2,0.2-0.2H158.7z"/>
			<path class="st2" d="M162.2,71.2c1.3,0,1.9,0.6,1.9,1.9v3c0,0.2-0.1,0.2-0.2,0.2h-0.4c-0.2,0-0.2,0-0.2-0.2v-2.9
				c0-0.8-0.4-1.1-1.2-1.1c-0.4,0-0.8,0.1-1.1,0.2c-0.1,0-0.1,0.1-0.1,0.2V76c0,0.2,0,0.2-0.2,0.2h-0.4c-0.2,0-0.2-0.1-0.2-0.2v-4
				c0-0.3,0.1-0.4,0.4-0.5C160.9,71.3,161.6,71.2,162.2,71.2z"/>
			<path class="st2" d="M169.2,71.3c0.2,0,0.2,0,0.2,0.2v4c0,0.3-0.1,0.4-0.4,0.5c-0.6,0.2-1.2,0.3-1.8,0.3c-1.3,0-1.9-0.6-1.9-1.9
				v-3c0-0.2,0-0.2,0.2-0.2h0.4c0.2,0,0.2,0.1,0.2,0.2v2.9c0,0.8,0.4,1.1,1.2,1.1c0.4,0,0.7-0.1,1.1-0.2c0.1,0,0.1-0.1,0.1-0.2v-3.7
				c0-0.2,0.1-0.2,0.2-0.2H169.2z"/>
			<path class="st2" d="M171.7,70.2c0.2,0,0.2,0,0.2,0.2v0.9h1.3c0.2,0,0.2,0.1,0.2,0.2v0.3c0,0.2-0.1,0.2-0.2,0.2H172v2.2
				c0,0.5,0.1,0.8,0.3,1c0.2,0.2,0.5,0.2,1,0.2c0.2,0,0.2,0,0.2,0.2v0.3c0,0.2-0.1,0.2-0.2,0.2c-0.8,0-1.3-0.1-1.6-0.4
				c-0.3-0.3-0.5-0.8-0.5-1.6v-2.2h-0.8c-0.2,0-0.2-0.1-0.2-0.2v-0.3c0-0.2,0.1-0.2,0.2-0.2h0.8v-0.9c0-0.2,0.1-0.2,0.2-0.2H171.7z"
				/>
			<path class="st2" d="M174,73c0-1.1,0.8-1.8,2.1-1.8c1.4,0,2.2,0.7,2.2,1.8v1.6c0,1.1-0.8,1.8-2.2,1.8c-1.3,0-2.1-0.7-2.1-1.8V73z
				 M177.5,73c0-0.7-0.5-1.1-1.3-1.1c-0.8,0-1.3,0.4-1.3,1.1v1.6c0,0.7,0.5,1.1,1.3,1.1c0.8,0,1.3-0.4,1.3-1.1V73z"/>
			<path class="st2" d="M181.2,71.2c1,0,1.7,0.3,2,1c0.1,0.2,0,0.3-0.1,0.3l-0.3,0.1c-0.2,0.1-0.2,0-0.3-0.1
				c-0.2-0.4-0.5-0.6-1.2-0.6c-0.7,0-1.1,0.2-1.1,0.7c0,0.6,0.4,0.7,1.3,0.8c0.6,0.1,1.1,0.2,1.4,0.4c0.3,0.2,0.5,0.6,0.5,1.1
				c0,0.9-0.7,1.5-2,1.5c-1.1,0-1.8-0.4-2.1-1.2c-0.1-0.2,0-0.3,0.1-0.3l0.3-0.1c0.1,0,0.2,0,0.3,0.1c0.2,0.5,0.6,0.7,1.3,0.7
				c0.8,0,1.2-0.2,1.2-0.7c0-0.5-0.4-0.7-1.3-0.8c-0.5,0-0.7-0.1-1.1-0.2c-0.2-0.1-0.3-0.1-0.4-0.2c-0.2-0.2-0.4-0.6-0.4-1
				C179.3,71.7,179.9,71.2,181.2,71.2z"/>
		</g>
	</g>
	<g>
		<path class="st3" d="M46,27c-1.1,0-2,0.9-2,2.1c0,0.6,0.1,7.7-0.2,11.7c-0.3,5.2-3.6,9.3-8.9,10.1c-3.8,0.5-8.8,0.4-12.7,0.1
			c-5.3-0.5-9.3-4.4-9.5-9.7c-0.2-0.7-0.5-9.1-0.1-17.6c0.2-3.5,1.7-6.3,4-8c2.6-2,5.1-2.4,11.6-2.4c6.8,0,12.6,0.9,14.6,3.6
			c0,0,0,0,0,0c0.3,0.4,0.7,0.6,1.2,0.7c0.5,0,0.9-0.1,1.3-0.4l7-6.2c0.7-0.6,0.8-1.6,0.2-2.3c-3-4-7.3-6.5-12-7.1
			c-8.2-1-15.8-1-24.3,0c-8.5,1-16,8.4-16,18c0,0.9-0.2,6.8-0.2,12.8c0,6.4,0.3,12.7,0.3,13C0.4,53.9,6.8,61.9,16.6,63
			c8.7,1,17.5,0.8,23.9-0.1c8.1-1.1,15.5-7.6,15.7-18c0.1-5.2,0.3-10.7,0.2-16c0-1.1-0.9-2-2-2C51.3,27,46,27,46,27z"/>
		<path class="st1" d="M37.1,32.1c0-3.5-0.1-4.6-0.2-6.2c-0.1-2.5-1.6-5.3-5.7-5.7c-2-0.2-4-0.2-6,0c-3.2,0.3-5.5,2.3-5.7,5.7
			c-0.1,2-0.2,4.1-0.2,6.2c0,1.9,0.1,5.7,0.2,6.3c0.3,2.6,1.9,5.2,5.7,5.6c2.1,0.2,4.1,0.2,6,0c3.9-0.4,5.4-3,5.7-5.7
			C37,37.9,37.1,33.1,37.1,32.1z"/>
		<path class="st3" d="M25.5,38.4c-0.1-0.6-0.2-4.4-0.2-6.3c0-2.1,0.1-4.1,0.2-6.2c0.2-3.4,2.5-5.4,5.7-5.7c-2-0.2-4-0.2-5.9,0
			c-3.2,0.3-5.5,2.3-5.7,5.7c-0.1,2-0.2,4.1-0.2,6.2c0,1.9,0.1,5.7,0.2,6.3c0.3,2.6,1.9,5.2,5.7,5.6c2.1,0.2,4.1,0.2,5.9,0
			C27.4,43.7,25.8,41.1,25.5,38.4z"/>
	</g>
</g>
</svg>
