<?xml version="1.0" encoding="utf-8"?>
<!-- Generator: Adobe Illustrator 21.0.0, SVG Export Plug-In . SVG Version: 6.00 Build 0)  -->
<svg version="1.1" id="Layer_1" xmlns="http://www.w3.org/2000/svg" xmlns:xlink="http://www.w3.org/1999/xlink" x="0px" y="0px"
	 viewBox="0 0 58 39" style="enable-background:new 0 0 58 39;" xml:space="preserve">
<style type="text/css">
	.st0{fill:none;enable-background:new    ;}
	.st1{fill:#FFFFFF;}
	.st2{fill:#E30613;}
</style>
<path class="st0" d="z"/>
<g>
	<path class="st1" d="M10.1,38.9c0,0-10.8-23-9.5-25.7c1.2-2.7,4.9-1.4,5.5-0.8C6.7,12.9,11,22.4,14,24c3,1.6,6.2-6.3,11.8-9.3
		c5.6-3.1,14.7-2.3,31.7,4.7c-20-4.8-25.8-5.1-31-1.1c-5.2,4-8.8,10.3-12.5,10.1c-3.7-0.2-7.7-9.6-8.7-10.4c0,0,3,8.9,7.4,18
		C12.4,36.7,10.1,38.9,10.1,38.9"/>
	<path class="st2" d="M15.4,0.1c4.4-0.1,8.1,3.3,8.2,7.7c0.1,4.4-3.3,8.1-7.7,8.2c-4.4,0.1-8.1-3.3-8.2-7.7C7.5,3.9,11,0.3,15.4,0.1
		"/>
</g>
</svg>
