<?xml version="1.0" encoding="utf-8"?>
<!-- Generator: Adobe Illustrator 21.0.0, SVG Export Plug-In . SVG Version: 6.00 Build 0)  -->
<svg version="1.1" id="Layer_1" xmlns="http://www.w3.org/2000/svg" xmlns:xlink="http://www.w3.org/1999/xlink" x="0px" y="0px"
	 viewBox="0 0 248 44" style="enable-background:new 0 0 248 44;" xml:space="preserve">
<style type="text/css">
	.st0{fill:none;enable-background:new    ;}
	.st1{fill:#00B0A8;}
	.st2{fill:#FFFFFF;}
	.st3{fill:#01676E;}
</style>
<path class="st0" d="z"/>
<g>
	<g>
		<g>
			<path class="st1" d="M64.5,19.8c0.9,0,1.1,0.3,1.1,1.1v3.8c0,1.9-0.7,3.5-2.2,4.7c-1.5,1.2-3.5,1.9-6,1.9c-5.2,0-8.2-2.8-8.2-7.5
				v-5.6c0-4.7,3-7.5,8.2-7.5c4.1,0,6.6,1.6,7.8,4.7c0.3,0.7,0.1,1.2-0.7,1.4l-2.1,0.7c-0.8,0.2-1.1,0.1-1.4-0.7
				c-0.5-1.4-1.7-2-3.5-2c-2.4,0-3.7,1.1-3.7,3.3v5.7c0,2.2,1.2,3.3,3.7,3.3c2.3,0,3.7-1,3.7-2.4v-1h-3.4c-0.9,0-1.1-0.3-1.1-1.1
				v-1.7c0-0.9,0.3-1.1,1.1-1.1H64.5z"/>
			<path class="st1" d="M73.8,16.1c4.1,0,6.2,1.9,6.2,5.9v7c0,1-0.2,1.3-1,1.6c-1.1,0.5-2.9,0.7-5.2,0.7c-2.4,0-4.1-0.4-5-1.1
				c-0.9-0.7-1.4-1.9-1.4-3.5c0-3.4,1.8-4.6,6.5-4.6c0.7,0,1.4,0,2,0.1v-0.6c0-1.4-0.7-2.1-2.1-2.1c-1,0-1.8,0.3-2.3,1
				c-0.5,0.6-0.6,0.7-1.4,0.4l-1.5-0.6c-0.7-0.3-0.9-0.8-0.6-1.5C68.9,17,70.8,16.1,73.8,16.1z M75.8,25.4c-0.2,0-0.5,0-1.1,0
				c-0.6,0-1,0-1.2,0c-1.5,0-1.9,0.5-1.9,1.3c0,0.9,0.4,1.4,1.9,1.4c1,0,1.7,0,2.2-0.1c0.1,0,0.2-0.1,0.2-0.2V25.4z"/>
			<path class="st1" d="M92.7,27.2c0.8,0,1,0.3,1,1v1.7c0,0.8-0.3,1-1,1h-9.8c-0.8,0-1-0.3-1-1v-1.6c0-0.4,0.1-0.8,0.3-1l5.9-7h-5.1
				c-0.7,0-1-0.3-1-1v-1.7c0-0.8,0.3-1,1-1h9.5c0.8,0,1,0.3,1,1v1.6c0,0.4-0.1,0.7-0.4,1.1l-6,6.9H92.7z"/>
			<path class="st1" d="M95.5,22.2c0-4,2.4-6.2,6.7-6.2c4.4,0,6.7,2.4,6.7,5.9v1.7c0,0.9-0.5,1.4-1.4,1.4h-7.7v0.7
				c0,1.5,0.8,2.2,2.5,2.2c1.2,0,2.1-0.4,2.6-1.1c0.5-0.7,0.8-0.8,1.6-0.4l1.4,0.7c0.7,0.4,0.9,0.9,0.4,1.6
				c-1.1,1.7-3.1,2.6-6.1,2.6c-4.6,0-6.6-2.4-6.6-6.2V22.2z M104.6,21.5c0-1.4-0.8-2.1-2.5-2.1c-1.6,0-2.5,0.7-2.5,2.1V22h4.9V21.5z
				"/>
			<path class="st1" d="M115.5,13.2c0.7,0,1,0.3,1,1v2.3h2.6c0.7,0,1,0.3,1,1v1.7c0,0.8-0.2,1-1,1h-2.6v4.7c0,2.1,0.6,2.6,2.6,2.6
				c0.8,0,1,0.2,1,1.1v1.7c0,0.8-0.2,1-1,1.1c-2.4,0.1-4.2-0.4-5.2-1.3c-1-0.9-1.6-2.6-1.6-5v-4.8h-1.5c-0.8,0-1-0.2-1-1v-1.7
				c0-0.8,0.2-1,1-1h1.5v-2.3c0-0.8,0.3-1,1-1H115.5z"/>
			<path class="st1" d="M127.9,16.1c4.1,0,6.2,1.9,6.2,5.9v7c0,1-0.2,1.3-1,1.6c-1.1,0.5-2.9,0.7-5.2,0.7c-2.4,0-4.1-0.4-5-1.1
				c-0.9-0.7-1.4-1.9-1.4-3.5c0-3.4,1.8-4.6,6.5-4.6c0.7,0,1.4,0,2,0.1v-0.6c0-1.4-0.7-2.1-2.1-2.1c-1,0-1.8,0.3-2.3,1
				c-0.5,0.6-0.6,0.7-1.4,0.4l-1.5-0.6c-0.7-0.3-0.9-0.8-0.6-1.5C123,17,125,16.1,127.9,16.1z M129.9,25.4c-0.2,0-0.5,0-1.1,0
				c-0.6,0-1,0-1.2,0c-1.5,0-1.9,0.5-1.9,1.3c0,0.9,0.4,1.4,1.9,1.4c1,0,1.7,0,2.2-0.1c0.1,0,0.2-0.1,0.2-0.2V25.4z"/>
			<g>
				<path class="st2" d="M150.3,11.2c0.4,0,0.5,0.2,0.5,0.6v0.8c0,0.4-0.2,0.6-0.5,0.6h-9.8V20h8.5c0.4,0,0.5,0.2,0.5,0.6v0.8
					c0,0.4-0.2,0.6-0.5,0.6h-8.5V29h10.2c0.4,0,0.5,0.2,0.5,0.6v0.8c0,0.4-0.2,0.6-0.5,0.6h-11.6c-0.4,0-0.6-0.1-0.6-0.6V11.8
					c0-0.4,0.1-0.6,0.6-0.6H150.3z"/>
				<path class="st2" d="M159.1,16.2c2.9,0,4.8,1,5.7,3c0.2,0.3,0.1,0.6-0.2,0.7l-0.7,0.3c-0.3,0.1-0.5,0.1-0.7-0.3
					c-0.6-1.4-1.7-2.1-4-2.1c-2.4,0-3.6,0.8-3.6,2.4c0.1,1.3,0.5,1.9,1.7,2.2c0.8,0.2,1.3,0.3,2.5,0.4c1.7,0.1,2.7,0.4,3.8,0.9
					c1.1,0.6,1.6,1.6,1.6,3.2c0,2.7-1.9,4.2-5.7,4.2c-3.1,0-5.1-1.1-6-3.4c-0.1-0.3-0.1-0.6,0.3-0.7l0.7-0.2c0.3-0.1,0.5,0,0.7,0.3
					c0.6,1.6,2,2.4,4.2,2.4c2.6,0,3.9-0.8,3.9-2.5c0-1.8-1.2-2.2-4-2.6c-1.4-0.1-2-0.2-3.1-0.6c-0.6-0.2-1-0.4-1.3-0.7
					c-0.6-0.6-1.1-1.6-1.1-2.9C153.6,17.8,155.5,16.2,159.1,16.2z"/>
				<path class="st2" d="M173.6,16.2c3.9,0,5.8,1.9,5.8,5.5v4c0,3.7-1.9,5.5-5.7,5.5c-1.2,0-2.6-0.3-4.2-0.9v6.2
					c0,0.3-0.2,0.5-0.5,0.5h-0.9c-0.3,0-0.5-0.2-0.5-0.5V18.6c0-0.9,0.2-1.2,1.1-1.6C170.1,16.5,171.7,16.2,173.6,16.2z M177.5,21.8
					c0-2.6-1.4-3.9-4.1-3.9c-1.2,0-2.4,0.2-3.3,0.5c-0.5,0.2-0.5,0.3-0.5,0.7v9.4c1.4,0.6,2.7,1,4,1c2.6,0,4-1.3,4-3.9V21.8z"/>
				<path class="st2" d="M181.8,21.3c0-3.2,2.3-5.1,6.1-5.1c3.8,0,6.1,1.9,6.1,5.1v4.9c0,3.2-2.3,5.1-6.1,5.1
					c-3.8,0-6.1-1.9-6.1-5.1V21.3z M192.1,21.3c0-2.1-1.6-3.4-4.2-3.4c-2.6,0-4.2,1.3-4.2,3.4v4.9c0,2.1,1.7,3.4,4.2,3.4
					c2.6,0,4.2-1.3,4.2-3.4V21.3z"/>
				<path class="st2" d="M203.6,16.2c0.3,0,0.5,0.2,0.5,0.5v0.7c0,0.3-0.2,0.5-0.5,0.5h-0.9c-1.4,0-2.6,0.2-3.7,0.6
					c-0.3,0.1-0.5,0.4-0.5,0.7v11.2c0,0.3-0.2,0.5-0.5,0.5h-0.9c-0.3,0-0.5-0.2-0.5-0.5V18.6c0-0.9,0.2-1.2,1.1-1.6
					c1.4-0.5,3.1-0.8,5-0.9H203.6z"/>
				<path class="st2" d="M209.9,13.3c0.4,0,0.5,0.1,0.5,0.5v2.8h4c0.3,0,0.5,0.2,0.5,0.5v0.7c0,0.3-0.2,0.5-0.5,0.5h-4v7.2
					c0,1.6,0.3,2.7,0.8,3.2c0.5,0.5,1.6,0.8,3.1,0.8c0.3,0,0.5,0.2,0.5,0.5v0.7c0,0.4-0.1,0.5-0.5,0.5c-2.2,0-3.7-0.3-4.5-1.2
					c-0.9-0.8-1.3-2.3-1.3-4.5v-7.3h-2.6c-0.3,0-0.5-0.2-0.5-0.5v-0.7c0-0.3,0.2-0.5,0.5-0.5h2.6v-2.8c0-0.3,0.2-0.5,0.5-0.5H209.9z
					"/>
				<path class="st2" d="M218.1,11.5c0.8,0,1,0.2,1,1v0.2c0,0.8-0.3,1-1,1h-0.2c-0.8,0-1-0.3-1-1v-0.2c0-0.8,0.2-1,1-1H218.1z
					 M218.4,16.6c0.3,0,0.5,0.2,0.5,0.5v13.3c0,0.3-0.2,0.5-0.5,0.5h-0.9c-0.3,0-0.5-0.2-0.5-0.5V17.1c0-0.3,0.2-0.5,0.5-0.5H218.4z
					"/>
				<path class="st2" d="M234,16.6c0.5,0,0.6,0.1,0.4,0.6l-5.5,13.3c-0.1,0.3-0.4,0.5-0.7,0.5h-0.5c-0.4,0-0.6-0.2-0.7-0.5
					l-5.5-13.3c-0.2-0.5-0.1-0.6,0.4-0.6h0.6c0.6,0,0.7,0.1,0.9,0.5l3.8,9.2c0.1,0.4,0.3,0.8,0.5,1.4c0.2,0.6,0.3,0.9,0.3,1h0.1
					c0-0.1,0.1-0.4,0.3-1c0.2-0.6,0.3-1,0.4-1.4l3.8-9.2c0.1-0.4,0.3-0.5,0.9-0.5H234z"/>
				<path class="st2" d="M241.4,16.2c4.1,0,5.6,2.1,5.6,5.5V29c0,1-0.2,1.2-1,1.6c-1.1,0.5-2.6,0.7-4.6,0.7c-2.3,0-3.9-0.3-4.7-1.1
					c-0.9-0.7-1.3-1.8-1.3-3.2c0-3.1,1.7-4.3,6.1-4.3c0.7,0,2,0.1,3.6,0.3v-1.3c0-2.4-0.9-3.8-3.7-3.8c-1.8,0-3.1,0.7-3.9,2
					c-0.2,0.3-0.4,0.4-0.7,0.2l-0.7-0.3c-0.4-0.1-0.4-0.4-0.3-0.7C236.9,17.2,238.8,16.2,241.4,16.2z M245.1,24.5
					c-1.7-0.2-2.9-0.2-3.8-0.2c-2.9,0-4,0.8-4,2.7c0,1.9,0.9,2.8,3.9,2.8c1.4,0,2.5-0.1,3.4-0.4c0.4-0.2,0.5-0.3,0.5-0.8V24.5z"/>
			</g>
		</g>
	</g>
	<g>
		<path class="st2" d="M33.1,18.4c-0.8,0-1.4,0.6-1.4,1.4c0,0.4,0,5.4-0.1,8.2c-0.2,3.7-2.5,6.5-6.2,7c-2.6,0.4-6.2,0.3-8.9,0.1
			c-3.7-0.3-6.5-3.1-6.6-6.7C9.8,27.8,9.6,21.9,9.8,16c0.1-2.4,1.2-4.4,2.8-5.6c1.8-1.4,3.6-1.7,8.1-1.7c4.7,0,8.8,0.7,10.2,2.5
			c0,0,0,0,0,0c0.2,0.3,0.5,0.4,0.8,0.5c0.3,0,0.7-0.1,0.9-0.3l4.9-4.3c0.5-0.4,0.5-1.1,0.2-1.6c-2.1-2.8-5.1-4.5-8.4-4.9
			c-5.7-0.7-11-0.7-16.9,0C6.4,1.2,1.2,6.3,1.2,13.1C1.2,13.7,1,17.8,1,22c0,4.4,0.2,8.9,0.2,9.1c0.1,6.1,4.6,11.7,11.4,12.5
			c6.1,0.7,12.2,0.6,16.7-0.1c5.6-0.8,10.8-5.3,11-12.6c0.1-3.6,0.2-7.5,0.2-11.2c0-0.8-0.6-1.4-1.4-1.4
			C36.8,18.4,33.1,18.4,33.1,18.4z"/>
		<path class="st1" d="M26.9,22c0-2.4-0.1-3.2-0.1-4.3c-0.1-1.7-1.1-3.7-4-4c-1.4-0.1-2.8-0.1-4.2,0c-2.3,0.2-3.9,1.6-4,4
			c-0.1,1.4-0.1,2.9-0.1,4.3c0,1.3,0.1,4,0.1,4.4c0.2,1.8,1.3,3.6,4,3.9c1.4,0.1,2.9,0.1,4.2,0c2.7-0.3,3.7-2.1,4-4
			C26.8,26,26.9,22.7,26.9,22z"/>
		<path class="st3" d="M18.8,26.4c0-0.4-0.1-3.1-0.1-4.4c0-1.4,0-2.9,0.1-4.3c0.1-2.4,1.7-3.8,4-4c-1.4-0.1-2.8-0.1-4.2,0
			c-2.3,0.2-3.9,1.6-4,4c-0.1,1.4-0.1,2.9-0.1,4.3c0,1.3,0.1,4,0.1,4.4c0.2,1.8,1.3,3.6,4,3.9c1.4,0.1,2.9,0.1,4.2,0
			C20.1,30,19,28.2,18.8,26.4z"/>
	</g>
</g>
</svg>
