<?xml version="1.0" encoding="utf-8"?>
<!-- Generator: Adobe Illustrator 21.0.0, SVG Export Plug-In . SVG Version: 6.00 Build 0)  -->
<svg version="1.1" id="Layer_1" xmlns="http://www.w3.org/2000/svg" xmlns:xlink="http://www.w3.org/1999/xlink" x="0px" y="0px"
	 viewBox="0 0 222 206" style="enable-background:new 0 0 222 206;" xml:space="preserve">
<style type="text/css">
	.st0{fill:none;enable-background:new    ;}
	.st1{fill:#FFFFFF;}
	.st2{fill:#F7323F;}
	.st3{fill:#E30613;}
</style>
<path class="st0" d="z"/>
<g>
	<g>
		<g>
			<path class="st1" d="M73.5,170c0,0-33.7-71.9-29.8-80.4c3.9-8.6,15.3-4.4,17.1-2.5c1.8,1.8,15.4,31.7,24.8,36.7
				c9.4,5,19.3-19.6,36.9-29.2c17.6-9.6,46-7,99,14.5c-62.5-15.1-80.7-15.9-96.8-3.5c-16.2,12.4-27.6,32.3-39.1,31.6
				c-11.5-0.7-24.2-30-27.3-32.6c0,0,9.4,27.7,23.3,56.3C80.5,163.4,73.5,170,73.5,170"/>
			<path class="st2" d="M182.7,116.2c-2.3,13.1-7.8,25.9-16.8,37c-28.1,34.7-79,40-113.6,11.9c-18.1-14.7-28.2-35.6-29.7-57.2
				l-22,1.5c1.2,17.3,6.8,34.6,17.1,50.1c31.5,47.2,95.4,59.9,142.6,28.3c24.3-16.3,39.5-41.1,44.1-67.9l-21.5-3.6L182.7,116.2z"/>
		</g>
		<g>
			<path class="st3" d="M90,49.1c13.7-0.4,25.2,10.4,25.5,24.2c0.4,13.7-10.4,25.2-24.2,25.5c-13.7,0.4-25.2-10.4-25.5-24.2
				C65.4,60.9,76.2,49.4,90,49.1"/>
		</g>
		<g>
			<path class="st1" d="M14,124.2c0,0.1,0,0.1,0,0.1s0,0.1,0,0.1c0.1,0.2,0.2,0.4,0.4,0.5c0.2,0.1,0.4,0.1,0.6,0.1
				c0.2-0.1,0.4-0.2,0.5-0.3c0.1-0.2,0.1-0.4,0.1-0.6c-0.1-0.2-0.2-0.4-0.4-0.5c-0.2-0.1-0.4-0.1-0.7-0.1l-0.4-1.8
				c0.4-0.1,0.8,0,1.1,0c0.3,0.1,0.6,0.2,0.9,0.4c0.3,0.2,0.5,0.4,0.7,0.7c0.2,0.3,0.3,0.6,0.4,1c0.1,0.4,0.1,0.7,0.1,1
				c0,0.3-0.1,0.6-0.2,0.9c-0.1,0.3-0.3,0.5-0.5,0.7c-0.2,0.2-0.5,0.3-0.8,0.4c-0.3,0.1-0.7,0.1-0.9,0c-0.3-0.1-0.5-0.2-0.7-0.4
				c0,0.4-0.2,0.7-0.4,1c-0.2,0.3-0.6,0.5-1,0.6c-0.4,0.1-0.7,0.1-1,0c-0.3-0.1-0.6-0.2-0.9-0.4c-0.3-0.2-0.5-0.5-0.7-0.8
				c-0.2-0.3-0.4-0.7-0.5-1.1c-0.1-0.6-0.2-1.1-0.1-1.6c0.1-0.5,0.4-1,0.8-1.4c0.2-0.2,0.4-0.3,0.6-0.4c0.2-0.1,0.4-0.2,0.6-0.2
				l0.5,1.9c-0.3,0.1-0.6,0.3-0.7,0.5c-0.1,0.2-0.2,0.5-0.1,0.8c0.1,0.3,0.2,0.6,0.5,0.7c0.2,0.1,0.5,0.1,0.7,0.1
				c0.3-0.1,0.5-0.2,0.6-0.5c0.1-0.2,0.1-0.5,0.1-0.7c0-0.1,0-0.1-0.1-0.2c0-0.1-0.1-0.1-0.1-0.2L14,124.2z"/>
			<path class="st1" d="M16.7,129l-0.3-1l1.6-0.5l0.9,2.9l-7.2,2.3l-0.6-1.9L16.7,129z"/>
			<path class="st1" d="M20.7,135.3l1.2,2.6c0.2,0.5,0.3,1,0.3,1.4c0,0.5-0.1,1-0.3,1.4c-0.2,0.4-0.4,0.9-0.8,1.2
				c-0.3,0.4-0.7,0.6-1.2,0.9c-0.5,0.2-0.9,0.3-1.4,0.3c-0.5,0-1-0.1-1.4-0.2s-0.9-0.4-1.2-0.7c-0.4-0.3-0.7-0.7-0.9-1.2l-1.2-2.6
				L20.7,135.3z M16.1,139.5l0.2,0.4c0.1,0.3,0.3,0.6,0.5,0.8c0.2,0.2,0.4,0.3,0.7,0.4c0.2,0.1,0.5,0.1,0.8,0.1
				c0.3,0,0.5-0.1,0.8-0.2c0.3-0.1,0.5-0.3,0.7-0.5s0.3-0.4,0.4-0.7c0.1-0.2,0.1-0.5,0.1-0.8c0-0.3-0.1-0.6-0.2-0.9l-0.2-0.4
				L16.1,139.5z"/>
			<path class="st1" d="M24.3,146.4l-1.1-2.1L22,145l1,1.9l-1.5,0.8l-1-1.9l-1.1,0.6l1.1,2.1l-1.5,0.8l-2-3.8l6.7-3.5l2,3.8
				L24.3,146.4z"/>
			<path class="st1" d="M27.6,148.9l1.6,2.4c0.3,0.4,0.5,0.9,0.5,1.4c0.1,0.5,0.1,1,0,1.4s-0.3,0.9-0.6,1.3c-0.3,0.4-0.6,0.8-1,1
				c-0.4,0.3-0.9,0.5-1.3,0.6c-0.5,0.1-1,0.1-1.4,0c-0.5-0.1-0.9-0.3-1.3-0.5c-0.4-0.3-0.8-0.6-1.1-1l-1.6-2.4L27.6,148.9z
				 M23.8,153.8l0.3,0.4c0.2,0.3,0.4,0.5,0.6,0.7c0.2,0.2,0.5,0.3,0.7,0.3c0.3,0,0.5,0,0.8,0c0.3-0.1,0.5-0.2,0.8-0.4
				c0.2-0.2,0.5-0.4,0.6-0.6s0.3-0.5,0.3-0.7c0.1-0.3,0-0.5,0-0.8c-0.1-0.3-0.2-0.6-0.4-0.8l-0.3-0.4L23.8,153.8z"/>
			<path class="st1" d="M33,159.3l-1.4-1.8l-1,0.8l1.4,1.7l-1.3,1l-1.4-1.7l-1,0.8l1.4,1.8l-1.3,1l-2.6-3.4l6-4.6l2.6,3.4L33,159.3z
				"/>
			<path class="st1" d="M32.2,164.7l2.1,2.4l-1.2,1.1l-4.3-4.8l6.8-1.2l-2-2.2l1.2-1.1l4.1,4.7L32.2,164.7z"/>
			<path class="st1" d="M41.1,167.9l-1.7-1.6l-0.9,0.9l1.6,1.5l-1.2,1.2l-1.6-1.5l-0.9,0.9l1.7,1.6l-1.2,1.2l-3.1-3l5.3-5.4l3.1,3
				L41.1,167.9z"/>
			<path class="st1" d="M37.7,172.9l5.8-5l1.5,1.2l-1.4,4.1l3.7-2.1l1.5,1.2l-3.8,6.6l-1.5-1.2l2.3-3.8l-4.1,2.2l-0.6-0.5l1.5-4.4
				l-3.3,2.9L37.7,172.9z"/>
			<path class="st1" d="M50.3,173.4l2.4,1.7c0.6,0.4,0.9,0.8,1,1.3c0.1,0.5,0,1-0.4,1.5c-0.2,0.3-0.5,0.5-0.7,0.7
				c-0.3,0.1-0.5,0.2-0.9,0.2c0.2,0.2,0.4,0.4,0.4,0.6c0.1,0.2,0.2,0.4,0.2,0.6c0,0.2,0,0.4-0.1,0.6c-0.1,0.2-0.2,0.4-0.3,0.6
				c-0.2,0.3-0.4,0.5-0.7,0.7c-0.3,0.2-0.5,0.2-0.8,0.3c-0.3,0-0.6,0-0.9-0.1c-0.3-0.1-0.6-0.3-1-0.5l-2.6-1.8L50.3,173.4z
				 M48.5,179.5l0.4,0.2c0.4,0.3,0.7,0.4,1,0.4c0.2,0,0.5-0.1,0.6-0.3c0.2-0.2,0.2-0.5,0.1-0.7c-0.1-0.2-0.4-0.5-0.8-0.8l-0.4-0.2
				L48.5,179.5z M50.2,177l0.3,0.2c0.5,0.3,0.9,0.3,1.2-0.1s0.2-0.8-0.3-1.1l-0.3-0.2L50.2,177z"/>
			<path class="st1" d="M57.1,186.7l-2.1-1.2l-0.1-3.4l-1.5,2.5l-1.7-1l3.8-6.5l2.6,1.5c0.4,0.2,0.6,0.5,0.9,0.7
				c0.2,0.3,0.3,0.5,0.4,0.8c0.1,0.3,0.1,0.6,0,0.9c-0.1,0.3-0.2,0.6-0.3,0.9c-0.3,0.5-0.6,0.8-1.1,1c-0.4,0.2-0.9,0.2-1.4,0
				L57.1,186.7z M55.5,180.9l0.3,0.2c0.3,0.2,0.6,0.3,0.9,0.2c0.3,0,0.5-0.2,0.6-0.4c0.2-0.3,0.2-0.5,0.1-0.8
				c-0.1-0.2-0.3-0.5-0.6-0.7l-0.3-0.2L55.5,180.9z"/>
			<path class="st1" d="M59,183.4c0.2-0.5,0.6-0.9,1-1.3c0.4-0.3,0.8-0.6,1.3-0.8s1-0.2,1.6-0.2c0.5,0,1.1,0.2,1.7,0.5
				c0.5,0.3,1,0.6,1.4,1s0.7,0.9,0.8,1.3c0.2,0.5,0.3,1,0.2,1.5c0,0.5-0.2,1-0.4,1.5c-0.2,0.5-0.6,0.9-1,1.3
				c-0.4,0.3-0.8,0.6-1.3,0.8s-1,0.2-1.6,0.2c-0.6,0-1.1-0.2-1.6-0.5c-0.6-0.3-1-0.6-1.4-1c-0.4-0.4-0.6-0.8-0.8-1.3
				c-0.2-0.5-0.3-1-0.2-1.5C58.6,184.5,58.7,183.9,59,183.4z M60.8,184.3c-0.1,0.3-0.2,0.5-0.2,0.8c0,0.3,0,0.5,0.1,0.8
				c0.1,0.3,0.2,0.5,0.4,0.7c0.2,0.2,0.4,0.4,0.7,0.5c0.3,0.1,0.5,0.2,0.8,0.2c0.3,0,0.5,0,0.8-0.1c0.3-0.1,0.5-0.2,0.7-0.4
				c0.2-0.2,0.4-0.4,0.5-0.7c0.1-0.3,0.2-0.5,0.2-0.8c0-0.3,0-0.5-0.1-0.8s-0.2-0.5-0.4-0.7c-0.2-0.2-0.4-0.4-0.7-0.5
				c-0.3-0.1-0.5-0.2-0.8-0.2c-0.3,0-0.5,0-0.8,0.1s-0.5,0.2-0.7,0.4C61.1,183.8,61,184,60.8,184.3z"/>
			<path class="st1" d="M71.4,184.9l2.7,0.9c0.5,0.2,0.9,0.4,1.3,0.8c0.4,0.3,0.6,0.7,0.9,1.2c0.2,0.4,0.3,0.9,0.4,1.4
				c0,0.5,0,1-0.2,1.5c-0.2,0.5-0.4,0.9-0.7,1.3c-0.3,0.4-0.7,0.7-1.1,0.9s-0.9,0.4-1.4,0.4c-0.5,0.1-1,0-1.5-0.2L69,192L71.4,184.9
				z M71.4,191.1l0.4,0.1c0.3,0.1,0.6,0.2,0.9,0.1c0.3,0,0.5-0.1,0.8-0.2s0.4-0.3,0.6-0.5c0.2-0.2,0.3-0.5,0.4-0.8
				c0.1-0.3,0.1-0.6,0.1-0.8c0-0.3-0.1-0.5-0.2-0.8c-0.1-0.2-0.3-0.4-0.5-0.6c-0.2-0.2-0.5-0.3-0.8-0.4l-0.4-0.1L71.4,191.1z"/>
			<path class="st1" d="M82,189.8l-2.3-0.6l-0.3,1.2l2.1,0.6l-0.4,1.6l-2.1-0.6l-0.3,1.3l2.3,0.6l-0.4,1.6l-4.1-1.1l1.9-7.3l4.1,1.1
				L82,189.8z"/>
			<path class="st1" d="M90.3,197.4l-6-1l2.2-1.6c0.6-0.4,1-0.8,1.4-1.1s0.6-0.6,0.8-0.8c0.2-0.2,0.3-0.4,0.3-0.6
				c0.1-0.1,0.1-0.3,0.1-0.4c0-0.1,0-0.2,0-0.3c0-0.1-0.1-0.2-0.1-0.3c-0.1-0.1-0.1-0.2-0.2-0.2s-0.2-0.1-0.3-0.1
				c-0.3,0-0.5,0-0.7,0.2c-0.2,0.1-0.3,0.3-0.3,0.6c0,0.1,0,0.2,0,0.3l-2.1-0.3c0.1-0.4,0.2-0.8,0.4-1.1c0.2-0.3,0.4-0.6,0.7-0.8
				c0.3-0.2,0.6-0.4,1-0.4c0.4-0.1,0.8-0.1,1.2,0c0.4,0.1,0.8,0.2,1.1,0.4c0.3,0.2,0.6,0.4,0.8,0.7c0.2,0.3,0.4,0.6,0.5,0.9
				c0.1,0.3,0.1,0.7,0,1.1c-0.1,0.4-0.2,0.8-0.4,1.1c-0.2,0.3-0.6,0.6-1,0.9l-1.4,1l2.4,0.4L90.3,197.4z"/>
			<path class="st1" d="M91.2,193.7c0.1-0.6,0.2-1.1,0.4-1.6c0.2-0.5,0.5-0.9,0.8-1.2c0.3-0.3,0.7-0.6,1.1-0.7
				c0.4-0.2,0.8-0.2,1.3-0.2c0.5,0,0.9,0.2,1.3,0.4c0.4,0.2,0.7,0.5,0.9,0.9c0.2,0.4,0.4,0.8,0.5,1.3c0.1,0.5,0.1,1.1,0.1,1.6
				s-0.2,1.1-0.4,1.6s-0.5,0.9-0.8,1.2c-0.3,0.3-0.7,0.6-1.1,0.7c-0.4,0.2-0.8,0.2-1.3,0.2c-0.5,0-0.9-0.2-1.3-0.4
				c-0.4-0.2-0.7-0.5-0.9-0.9c-0.2-0.4-0.4-0.8-0.5-1.3C91.2,194.8,91.2,194.3,91.2,193.7z M93.2,193.9c0,0.3,0,0.6,0,0.9
				s0.1,0.5,0.2,0.7c0.1,0.2,0.2,0.4,0.4,0.5c0.1,0.1,0.3,0.2,0.5,0.2c0.2,0,0.4,0,0.5-0.1c0.2-0.1,0.3-0.2,0.4-0.4
				c0.1-0.2,0.2-0.4,0.3-0.7c0.1-0.3,0.1-0.6,0.2-0.9c0-0.3,0-0.6,0-0.9c0-0.3-0.1-0.5-0.2-0.7c-0.1-0.2-0.2-0.4-0.4-0.5
				c-0.1-0.1-0.3-0.2-0.5-0.2c-0.2,0-0.4,0-0.5,0.1c-0.2,0.1-0.3,0.2-0.4,0.4c-0.1,0.2-0.2,0.4-0.3,0.7
				C93.3,193.2,93.2,193.5,93.2,193.9z"/>
			<path class="st1" d="M99.7,192.2l-1.1,0l0-1.7l3.1,0.1l-0.2,7.5l-2-0.1L99.7,192.2z"/>
			<path class="st1" d="M106.5,192.2l-3.1,0.1l-0.1-1.7l6.2-0.2l-4.1,7.7l-2.2,0.1L106.5,192.2z"/>
			<path class="st1" d="M112.1,194.3l2.9-0.3l0.2,1.5l-2.9,0.3L112.1,194.3z"/>
			<path class="st1" d="M122.1,190.5c-0.2-0.1-0.5-0.2-0.7-0.3c-0.2,0-0.4,0-0.6,0c-0.2,0-0.4,0.1-0.6,0.3c-0.1,0.1-0.2,0.3-0.1,0.5
				c0,0.1,0.1,0.2,0.2,0.3s0.2,0.1,0.4,0.2c0.1,0,0.3,0.1,0.5,0.1c0.2,0,0.3,0,0.5,0.1c0.7,0.1,1.2,0.3,1.5,0.6s0.6,0.7,0.7,1.3
				c0.1,0.4,0.1,0.7,0,1.1c-0.1,0.3-0.2,0.6-0.4,0.9c-0.2,0.3-0.5,0.5-0.8,0.7s-0.7,0.3-1.2,0.4c-0.9,0.2-1.9,0.1-2.8-0.3l0.5-1.7
				c0.3,0.2,0.7,0.3,1,0.4c0.3,0.1,0.6,0.1,0.9,0c0.3-0.1,0.5-0.2,0.7-0.4c0.1-0.2,0.2-0.4,0.1-0.5c0-0.1-0.1-0.2-0.1-0.3
				c-0.1-0.1-0.1-0.1-0.2-0.2c-0.1-0.1-0.2-0.1-0.4-0.1c-0.2,0-0.4-0.1-0.6-0.1c-0.3,0-0.5-0.1-0.8-0.1s-0.5-0.1-0.7-0.3
				c-0.2-0.1-0.4-0.3-0.6-0.5c-0.2-0.2-0.3-0.5-0.4-0.9c-0.1-0.4-0.1-0.7,0-1c0.1-0.3,0.2-0.6,0.4-0.9c0.2-0.3,0.4-0.5,0.7-0.7
				c0.3-0.2,0.6-0.3,1-0.4c0.4-0.1,0.8-0.1,1.2-0.1c0.4,0,0.8,0.1,1.2,0.2L122.1,190.5z"/>
			<path class="st1" d="M124,187.2c-0.1-0.5-0.1-0.9,0-1.2c0.1-0.3,0.4-0.6,0.7-0.7c0.1,0,0.3-0.1,0.5-0.1c0.2,0,0.4,0,0.5,0
				c0.2,0,0.3,0,0.5,0c0.1,0,0.3,0,0.3,0c0.2-0.1,0.3-0.2,0.3-0.5l1-0.3c0.1,0.6,0.1,1-0.1,1.3c-0.2,0.3-0.4,0.5-0.8,0.6
				c-0.2,0-0.4,0.1-0.5,0.1c-0.2,0-0.4,0-0.5,0c-0.2,0-0.3,0-0.5,0c-0.1,0-0.2,0-0.3,0c-0.1,0-0.1,0.1-0.2,0.1
				c0,0.1-0.1,0.2-0.1,0.4L124,187.2z M129.3,193.1l-2.7,0.7l-0.1,1.4l-2,0.6l0.8-8l2.1-0.6l4.8,6.5l-2,0.6L129.3,193.1z
				 M128.4,191.8l-1.5-2.2l-0.2,2.7L128.4,191.8z"/>
			<path class="st1" d="M131.3,190c-0.2-0.5-0.3-1-0.3-1.6c0-0.5,0.1-1,0.4-1.5c0.2-0.5,0.5-0.9,0.9-1.3c0.4-0.4,0.9-0.7,1.5-0.9
				c0.6-0.2,1.1-0.3,1.7-0.3c0.6,0,1.1,0.1,1.5,0.3s0.9,0.5,1.3,0.9s0.6,0.8,0.8,1.4s0.3,1,0.3,1.6c0,0.5-0.1,1-0.4,1.5
				c-0.2,0.5-0.5,0.9-0.9,1.3c-0.4,0.4-0.9,0.7-1.5,0.9c-0.6,0.2-1.1,0.3-1.7,0.3c-0.5,0-1.1-0.1-1.5-0.3c-0.5-0.2-0.9-0.5-1.2-0.9
				C131.8,190.9,131.5,190.5,131.3,190z M133.2,189.2c0.1,0.3,0.3,0.5,0.5,0.7c0.2,0.2,0.4,0.3,0.7,0.5s0.5,0.2,0.8,0.2
				c0.3,0,0.5,0,0.8-0.1s0.5-0.2,0.7-0.4c0.2-0.2,0.4-0.4,0.5-0.6c0.1-0.2,0.2-0.5,0.2-0.8c0-0.3,0-0.6-0.1-0.8
				c-0.1-0.3-0.3-0.5-0.5-0.7c-0.2-0.2-0.4-0.3-0.7-0.5c-0.2-0.1-0.5-0.2-0.8-0.2c-0.3,0-0.5,0-0.8,0.1c-0.3,0.1-0.5,0.2-0.7,0.4
				c-0.2,0.2-0.4,0.4-0.5,0.6c-0.1,0.2-0.2,0.5-0.2,0.8S133.1,189,133.2,189.2z"/>
			<path class="st1" d="M146.2,187.8l-1.7,0.9L141,182l2.8-1.4c0.8-0.4,1.4-0.5,2-0.3c0.6,0.2,1.1,0.6,1.5,1.3
				c0.4,0.7,0.4,1.4,0.3,2c-0.2,0.6-0.7,1.1-1.4,1.5l-1,0.5L146.2,187.8z M144.3,184.2l0.6-0.3c0.6-0.3,0.8-0.8,0.5-1.3
				c-0.3-0.6-0.7-0.7-1.4-0.3l-0.6,0.3L144.3,184.2z"/>
			<path class="st1" d="M153.3,182.3l-2.4,1.5l0.3,1.4l-1.8,1.1l-1.5-7.9l1.8-1.1l6.4,5l-1.8,1.1L153.3,182.3z M152,181.3l-2.1-1.7
				l0.6,2.6L152,181.3z"/>
			<path class="st1" d="M153.8,174.5l2.4,3.3c0.1,0.2,0.3,0.4,0.4,0.5c0.1,0.2,0.3,0.3,0.5,0.4c0.2,0.1,0.4,0.1,0.6,0.1
				c0.2,0,0.5-0.1,0.7-0.3c0.3-0.2,0.4-0.4,0.5-0.6c0.1-0.2,0.1-0.4,0.1-0.6c0-0.2-0.1-0.4-0.2-0.6c-0.1-0.2-0.2-0.4-0.4-0.6
				l-2.4-3.3l1.6-1.1l2.6,3.5c0.7,0.9,1,1.8,0.9,2.6c-0.1,0.8-0.6,1.5-1.5,2.1c-0.9,0.7-1.7,0.9-2.5,0.8c-0.8-0.1-1.5-0.7-2.2-1.6
				l-2.6-3.5L153.8,174.5z"/>
			<path class="st1" d="M159.8,169.8l3.8,4.5l1.8-1.5l1.1,1.3l-3.3,2.8l-4.8-5.8L159.8,169.8z"/>
			<path class="st1" d="M164.2,171.2c-0.4-0.4-0.7-0.8-0.9-1.3c-0.2-0.5-0.3-1-0.3-1.5c0-0.5,0.1-1,0.4-1.5c0.2-0.5,0.6-1,1-1.4
				c0.4-0.4,0.9-0.7,1.4-1c0.5-0.2,1-0.3,1.5-0.3c0.5,0,1,0.1,1.5,0.3c0.5,0.2,0.9,0.5,1.3,0.9s0.7,0.8,0.9,1.3
				c0.2,0.5,0.3,1,0.3,1.5c0,0.5-0.1,1-0.4,1.5c-0.2,0.5-0.6,1-1,1.4c-0.4,0.4-0.9,0.7-1.4,1c-0.5,0.2-1,0.3-1.5,0.3
				c-0.5,0-1-0.1-1.5-0.3C165,171.9,164.5,171.6,164.2,171.2z M165.6,169.7c0.2,0.2,0.4,0.4,0.7,0.5c0.3,0.1,0.5,0.2,0.8,0.2
				c0.3,0,0.5-0.1,0.8-0.2c0.3-0.1,0.5-0.3,0.7-0.5c0.2-0.2,0.4-0.4,0.5-0.7c0.1-0.3,0.2-0.5,0.2-0.8c0-0.3,0-0.5-0.1-0.8
				c-0.1-0.3-0.2-0.5-0.5-0.7s-0.4-0.4-0.7-0.5c-0.3-0.1-0.5-0.2-0.8-0.2c-0.3,0-0.5,0.1-0.8,0.2c-0.3,0.1-0.5,0.3-0.7,0.5
				s-0.4,0.4-0.5,0.7c-0.1,0.3-0.2,0.5-0.2,0.8s0,0.5,0.1,0.8C165.3,169.3,165.4,169.5,165.6,169.7z"/>
			<path class="st1" d="M172.5,163.2l1.9-2.2l1.2,1l-1.9,2.2L172.5,163.2z"/>
			<path class="st1" d="M173.2,155.9l1.7-2.4c0.4-0.6,0.8-0.9,1.3-1c0.5-0.1,1,0,1.5,0.4c0.3,0.2,0.5,0.5,0.6,0.7
				c0.1,0.3,0.2,0.5,0.2,0.9c0.2-0.2,0.4-0.3,0.6-0.4c0.2-0.1,0.4-0.1,0.6-0.2s0.4,0,0.6,0.1s0.4,0.2,0.6,0.3
				c0.3,0.2,0.5,0.4,0.7,0.7c0.2,0.3,0.2,0.5,0.3,0.8c0,0.3,0,0.6-0.1,0.9s-0.3,0.6-0.5,1l-1.8,2.6L173.2,155.9z M176.7,156l0.2-0.3
				c0.4-0.5,0.3-0.9-0.1-1.2c-0.4-0.3-0.8-0.2-1.1,0.3l-0.2,0.3L176.7,156z M179.2,157.8l0.3-0.3c0.3-0.4,0.4-0.7,0.5-1
				c0-0.2-0.1-0.5-0.3-0.6c-0.2-0.2-0.5-0.2-0.7-0.1c-0.2,0.1-0.5,0.3-0.8,0.8l-0.2,0.3L179.2,157.8z"/>
			<path class="st1" d="M186.5,149.4l-1.3,2.1l-3.5,0.1l2.5,1.5l-1,1.7l-6.4-3.9l1.6-2.6c0.2-0.4,0.5-0.6,0.7-0.8
				c0.3-0.2,0.5-0.3,0.8-0.4s0.6-0.1,0.9,0c0.3,0.1,0.6,0.2,0.8,0.3c0.5,0.3,0.8,0.7,1,1.1c0.2,0.4,0.2,0.9,0,1.4L186.5,149.4z
				 M180.7,150.9l0.2-0.3c0.2-0.3,0.3-0.6,0.3-0.9c0-0.3-0.2-0.5-0.4-0.6c-0.3-0.2-0.5-0.2-0.8-0.1c-0.2,0.1-0.5,0.3-0.7,0.6
				l-0.2,0.3L180.7,150.9z"/>
			<path class="st1" d="M187.8,144l-1.3,2.5l1,1l-0.9,1.9l-5.4-6l1-1.9l8,0.9l-1,1.9L187.8,144z M186.3,143.8l-2.6-0.4l1.8,1.9
				L186.3,143.8z"/>
			<path class="st1" d="M186.9,135.6c-0.2,0.1-0.4,0.3-0.6,0.4s-0.3,0.3-0.4,0.5c-0.1,0.2-0.1,0.4-0.1,0.6c0,0.2,0.2,0.3,0.3,0.4
				c0.1,0.1,0.2,0.1,0.3,0c0.1,0,0.2-0.1,0.3-0.2c0.1-0.1,0.2-0.2,0.3-0.3c0.1-0.1,0.2-0.3,0.3-0.4c0.4-0.5,0.9-0.8,1.3-1
				c0.4-0.1,0.9-0.1,1.5,0.1c0.4,0.1,0.7,0.3,0.9,0.6c0.2,0.2,0.4,0.5,0.5,0.8c0.1,0.3,0.2,0.7,0.1,1.1c0,0.4-0.1,0.8-0.3,1.2
				c-0.4,0.9-1,1.6-1.8,2.1l-1.1-1.4c0.4-0.2,0.6-0.4,0.9-0.6c0.2-0.2,0.4-0.5,0.5-0.7c0.1-0.3,0.1-0.5,0.1-0.7
				c-0.1-0.2-0.2-0.3-0.4-0.4c-0.1,0-0.2-0.1-0.3-0.1c-0.1,0-0.2,0-0.3,0.1c-0.1,0.1-0.2,0.1-0.3,0.3c-0.1,0.1-0.2,0.3-0.4,0.4
				c-0.2,0.2-0.3,0.4-0.5,0.6c-0.2,0.2-0.4,0.3-0.6,0.5c-0.2,0.1-0.5,0.2-0.7,0.2c-0.3,0-0.6-0.1-0.9-0.2c-0.3-0.1-0.6-0.3-0.9-0.6
				c-0.2-0.2-0.4-0.5-0.5-0.8c-0.1-0.3-0.2-0.6-0.1-1c0-0.3,0.1-0.7,0.3-1.1c0.1-0.3,0.3-0.7,0.6-1c0.3-0.3,0.5-0.6,0.9-0.9
				L186.9,135.6z"/>
			<path class="st1" d="M186.4,131.3l7.1,2.6l-0.7,1.8l-7.1-2.6L186.4,131.3z"/>
			<path class="st1" d="M187.3,128.4l5.6,1.8l0.7-2.2l1.6,0.5l-1.3,4.1l-7.2-2.3L187.3,128.4z"/>
		</g>
	</g>
	<g>
		<path class="st1" d="M23,90.7L17.9,84l0,0.1c0.2,0.5,0.3,1,0.3,1.3c0,0.3,0,0.6-0.1,0.8c-0.2,0.9-0.5,1.8-1.1,2.5
			c-0.5,0.7-1.1,1.3-1.9,1.7c-0.7,0.4-1.6,0.7-2.4,0.9c-0.9,0.2-1.8,0.1-2.8-0.1c-1-0.2-1.9-0.6-2.7-1.1c-0.8-0.5-1.5-1.2-2-2.1
			c-0.5-0.8-0.9-1.8-1-2.9c-0.2-1.1-0.1-2.2,0.1-3.5c0.3-1.3,0.7-2.4,1.3-3.3c0.6-0.9,1.3-1.7,2-2.3c0.8-0.6,1.6-1,2.6-1.2
			c0.9-0.2,1.9-0.2,2.9,0c1.1,0.2,2.2,0.7,3.4,1.4c1.2,0.7,2.3,1.7,3.3,3l4.5,5.6L23,90.7z M12.1,79.9c-0.4-0.1-0.9-0.1-1.3,0
			c-0.4,0.1-0.8,0.3-1.1,0.5c-0.3,0.2-0.6,0.5-0.9,0.9c-0.2,0.3-0.4,0.7-0.5,1.2c-0.1,0.4-0.1,0.9,0,1.3c0.1,0.4,0.3,0.8,0.5,1.1
			c0.2,0.3,0.5,0.6,0.9,0.9c0.3,0.2,0.7,0.4,1.2,0.5c0.4,0.1,0.9,0.1,1.3,0c0.4-0.1,0.8-0.3,1.1-0.5c0.3-0.2,0.6-0.5,0.9-0.9
			c0.2-0.3,0.4-0.7,0.5-1.2c0.1-0.4,0.1-0.9,0-1.3c-0.1-0.4-0.3-0.8-0.5-1.1c-0.2-0.3-0.5-0.6-0.9-0.9C12.9,80.1,12.5,80,12.1,79.9z
			"/>
		<path class="st1" d="M17.1,67.2c0.1-0.1,0.1-0.2,0.2-0.3c0-0.1,0.1-0.2,0.1-0.2c0.2-0.6,0.3-1.1,0.1-1.7c-0.2-0.5-0.6-0.9-1.1-1.1
			c-0.5-0.2-1.1-0.2-1.5,0c-0.5,0.2-0.8,0.6-1.1,1.1c-0.2,0.6-0.2,1.1,0,1.6c0.2,0.5,0.7,0.9,1.3,1.1l-1.8,4.3
			c-0.9-0.5-1.6-1.1-2.2-1.8c-0.6-0.7-1-1.4-1.3-2.2s-0.4-1.6-0.3-2.4c0-0.9,0.3-1.8,0.6-2.7c0.4-0.9,0.8-1.7,1.4-2.3
			c0.5-0.6,1.2-1.1,1.8-1.4c0.7-0.3,1.4-0.5,2.2-0.5c0.8,0,1.5,0.1,2.3,0.5c0.9,0.4,1.5,0.8,1.9,1.4c0.4,0.6,0.7,1.2,0.8,2
			c0.7-0.8,1.5-1.3,2.4-1.5c1-0.2,2-0.1,3.1,0.4c0.9,0.4,1.6,0.9,2.2,1.5c0.6,0.7,1,1.4,1.3,2.3s0.4,1.8,0.3,2.8s-0.3,2-0.8,3
			c-0.6,1.4-1.4,2.5-2.4,3.4c-1,0.9-2.2,1.4-3.7,1.6c-0.7,0.1-1.3,0.1-1.8,0s-1.1-0.3-1.7-0.5l1.9-4.7c0.9,0.3,1.6,0.3,2.2,0.1
			c0.6-0.3,1.1-0.8,1.4-1.6c0.3-0.8,0.4-1.5,0.1-2.1c-0.3-0.6-0.8-1-1.4-1.3c-0.8-0.3-1.5-0.3-2.1,0c-0.6,0.3-1,0.8-1.3,1.4
			c-0.1,0.2-0.1,0.3-0.2,0.5s-0.1,0.3-0.1,0.5L17.1,67.2z"/>
		<path class="st1" d="M18.4,48.5l1.4-2.3l6.7,4L25,52.5l-0.7-0.4c0.3,0.9,0.2,1.8-0.3,2.6c-0.3,0.5-0.6,0.9-1.1,1.2
			c-0.4,0.3-0.9,0.5-1.4,0.6c-0.5,0.1-1,0.1-1.6,0c-0.5-0.1-1.1-0.3-1.5-0.6c-0.5-0.3-0.9-0.7-1.2-1.1c-0.3-0.4-0.6-0.9-0.7-1.4
			c-0.1-0.5-0.2-1-0.1-1.5c0.1-0.5,0.2-1,0.5-1.5c0.5-0.8,1.2-1.3,2.1-1.6L18.4,48.5z M19.9,53.5c0.4,0.3,0.9,0.3,1.3,0.2
			c0.5-0.1,0.9-0.4,1.1-0.8c0.3-0.4,0.3-0.9,0.2-1.4c-0.1-0.5-0.4-0.8-0.8-1.1c-0.4-0.2-0.8-0.3-1.3-0.2c-0.5,0.1-0.9,0.4-1.1,0.8
			c-0.3,0.4-0.3,0.9-0.2,1.3C19.2,52.9,19.5,53.3,19.9,53.5z M23.2,58.5l4.6-7.6l1.5,0.9l-4.6,7.6L23.2,58.5z"/>
		<path class="st1" d="M38.4,31.7c-0.7,0.1-1.3,0.2-1.9,0.5c-0.5,0.2-1,0.5-1.4,0.9c-0.5,0.5-0.7,1-0.8,1.5c-0.1,0.5,0.1,1,0.4,1.3
			c0.2,0.2,0.5,0.4,0.8,0.4c0.3,0,0.6,0,1-0.2c0.4-0.1,0.7-0.3,1.1-0.5c0.4-0.2,0.8-0.4,1.2-0.6c1.6-0.8,2.9-1.1,4.1-1
			c1.2,0.1,2.3,0.7,3.4,1.7c0.7,0.7,1.2,1.5,1.6,2.3c0.3,0.8,0.5,1.7,0.5,2.5c0,0.9-0.3,1.8-0.7,2.7c-0.4,0.9-1.1,1.8-1.9,2.6
			c-1.7,1.8-3.9,2.9-6.4,3.4L38,44.6c1-0.1,1.9-0.3,2.7-0.6c0.8-0.3,1.4-0.7,1.9-1.2c0.6-0.6,0.9-1.2,0.9-1.7c0-0.6-0.2-1-0.5-1.3
			c-0.2-0.2-0.4-0.3-0.7-0.4s-0.5-0.1-0.8,0c-0.3,0-0.6,0.2-1,0.3c-0.4,0.2-0.8,0.4-1.4,0.6c-0.6,0.3-1.2,0.6-1.9,0.9
			c-0.6,0.3-1.3,0.4-1.9,0.5c-0.6,0.1-1.3,0-2-0.3c-0.7-0.2-1.3-0.7-2-1.4c-0.7-0.7-1.2-1.4-1.5-2.2c-0.3-0.8-0.5-1.6-0.5-2.4
			c0-0.8,0.2-1.6,0.6-2.4c0.4-0.8,0.9-1.6,1.6-2.3c0.7-0.7,1.5-1.3,2.4-1.9c0.9-0.6,1.9-1,3-1.3L38.4,31.7z"/>
		<path class="st1" d="M41.3,19.9c-0.7-1.1-1-2.1-1-3c0.1-1,0.5-1.7,1.2-2.2c0.3-0.2,0.7-0.4,1.1-0.5s0.9-0.3,1.3-0.4
			c0.4-0.1,0.8-0.3,1.2-0.4s0.6-0.2,0.8-0.4c0.5-0.3,0.6-0.8,0.3-1.5l2.1-1.4c0.7,1.4,1,2.5,0.9,3.3c-0.1,0.8-0.6,1.5-1.4,2.1
			c-0.4,0.3-0.8,0.5-1.3,0.7c-0.5,0.2-0.9,0.3-1.3,0.4c-0.4,0.1-0.8,0.2-1.1,0.3c-0.3,0.1-0.6,0.2-0.8,0.3c-0.2,0.1-0.3,0.3-0.3,0.5
			c0,0.2,0,0.5,0.2,0.9L41.3,19.9z M59.2,29.9l-6,4.1l0.9,3.5l-4.5,3L44.8,20l4.6-3.1L66.6,29l-4.5,3L59.2,29.9z M55.9,27.4
			l-5.5-4.1l1.8,6.7L55.9,27.4z"/>
		<path class="st1" d="M62.4,20.1c-0.5-1.4-0.7-2.7-0.6-4.1c0.1-1.4,0.4-2.6,1-3.9c0.6-1.2,1.4-2.3,2.5-3.2c1.1-0.9,2.4-1.7,3.9-2.2
			c1.5-0.5,2.9-0.8,4.4-0.7c1.4,0,2.8,0.3,4,0.9c1.2,0.6,2.3,1.3,3.2,2.3c0.9,1,1.6,2.2,2.1,3.6c0.5,1.4,0.7,2.7,0.6,4.1
			c-0.1,1.4-0.4,2.6-1,3.9C81.9,21.9,81,23,79.9,24c-1.1,0.9-2.4,1.7-3.8,2.2c-1.5,0.5-3,0.8-4.4,0.7c-1.4,0-2.7-0.4-4-0.9
			c-1.2-0.6-2.3-1.3-3.2-2.3C63.6,22.7,62.9,21.5,62.4,20.1z M67.4,18.3c0.3,0.7,0.6,1.4,1.1,1.9s1.1,0.9,1.7,1.2
			c0.6,0.3,1.3,0.4,2,0.5s1.4-0.1,2.1-0.3c0.7-0.3,1.3-0.6,1.9-1.1c0.5-0.5,1-1,1.3-1.7c0.3-0.6,0.5-1.3,0.6-2
			c0.1-0.7,0-1.4-0.3-2.2s-0.6-1.4-1.1-1.9c-0.5-0.5-1.1-0.9-1.7-1.2c-0.6-0.3-1.3-0.4-2-0.5c-0.7,0-1.4,0.1-2.1,0.3
			c-0.7,0.3-1.3,0.6-1.9,1.1c-0.5,0.5-1,1-1.3,1.7c-0.3,0.6-0.5,1.3-0.5,2C67.1,16.8,67.2,17.6,67.4,18.3z"/>
		<path class="st1" d="M104.5,6.3c-0.6-0.4-1.1-0.7-1.7-0.9c-0.6-0.2-1.1-0.3-1.6-0.3c-0.7,0-1.2,0.2-1.6,0.5
			c-0.4,0.3-0.6,0.7-0.6,1.2c0,0.3,0.1,0.6,0.3,0.8c0.2,0.2,0.5,0.4,0.8,0.6c0.3,0.2,0.7,0.3,1.2,0.4c0.4,0.1,0.9,0.2,1.3,0.4
			c1.7,0.5,2.9,1.2,3.7,2.1c0.8,0.9,1.2,2.1,1.3,3.6c0,1-0.1,1.9-0.4,2.7c-0.3,0.8-0.8,1.5-1.4,2.1c-0.6,0.6-1.4,1.1-2.3,1.4
			c-0.9,0.3-2,0.5-3.2,0.6c-2.5,0.1-4.8-0.6-7-2l2.1-4.2c0.8,0.7,1.6,1.1,2.3,1.4c0.8,0.3,1.5,0.4,2.2,0.4c0.8,0,1.4-0.2,1.8-0.6
			c0.4-0.4,0.6-0.8,0.6-1.3c0-0.3-0.1-0.5-0.2-0.8s-0.3-0.4-0.5-0.6c-0.2-0.2-0.6-0.3-1-0.5c-0.4-0.1-0.9-0.3-1.4-0.5
			c-0.7-0.2-1.3-0.4-2-0.6c-0.6-0.2-1.2-0.5-1.7-0.9c-0.5-0.4-0.9-0.9-1.2-1.5c-0.3-0.6-0.5-1.4-0.5-2.4c0-1,0.1-1.9,0.4-2.7
			c0.3-0.8,0.7-1.5,1.3-2.1c0.6-0.6,1.3-1,2.1-1.4c0.8-0.3,1.8-0.5,2.8-0.6c1,0,2,0.1,3.1,0.3c1.1,0.2,2.1,0.6,3.1,1.1L104.5,6.3z"
			/>
		<path class="st1" d="M116.2,2.1l-2,19.5l-5.1-0.5l2-19.5L116.2,2.1z"/>
		<path class="st1" d="M125.8,3.9l-3.4,14.9l6,1.4l-1,4.2l-10.9-2.5l4.3-19.1L125.8,3.9z"/>
		<path class="st1" d="M137,7.1l-0.2,12.8l8.9-9.2l5.1,2.1l-15.1,15l-3.8-1.5L131.9,5L137,7.1z"/>
		<path class="st1" d="M160.9,24.7l-5.1-3.3l-1.8,2.7l4.8,3.2l-2.4,3.6l-4.8-3.2l-1.9,2.8l5.1,3.3l-2.4,3.6l-9.3-6.1L154,14.9
			l9.3,6.1L160.9,24.7z"/>
		<path class="st1" d="M171.6,35.1c-0.1-0.7-0.3-1.3-0.5-1.9s-0.6-1-1-1.3c-0.5-0.5-1-0.7-1.5-0.8c-0.5-0.1-0.9,0.1-1.3,0.5
			c-0.2,0.3-0.4,0.5-0.4,0.8c0,0.3,0.1,0.6,0.2,1c0.1,0.4,0.3,0.7,0.5,1.1c0.2,0.4,0.4,0.8,0.7,1.1c0.8,1.5,1.2,2.9,1.1,4.1
			s-0.6,2.3-1.6,3.4c-0.7,0.7-1.4,1.3-2.2,1.6s-1.6,0.5-2.5,0.5c-0.9,0-1.8-0.2-2.7-0.7c-0.9-0.4-1.8-1-2.7-1.8
			c-1.8-1.7-3-3.8-3.5-6.3l4.4-1.5c0.1,1,0.3,1.9,0.6,2.6c0.3,0.8,0.7,1.4,1.3,1.9c0.6,0.6,1.2,0.9,1.7,0.9c0.6,0,1-0.2,1.3-0.5
			c0.2-0.2,0.3-0.4,0.4-0.7c0.1-0.2,0.1-0.5,0-0.8c-0.1-0.3-0.2-0.6-0.3-1c-0.2-0.4-0.4-0.8-0.7-1.3c-0.3-0.6-0.7-1.2-0.9-1.8
			c-0.3-0.6-0.5-1.2-0.5-1.9c-0.1-0.6,0-1.3,0.2-2c0.2-0.7,0.6-1.4,1.3-2.1c0.7-0.7,1.4-1.2,2.2-1.6c0.8-0.4,1.6-0.5,2.4-0.6
			c0.8,0,1.6,0.2,2.5,0.5c0.8,0.3,1.6,0.9,2.4,1.6c0.7,0.7,1.4,1.5,1.9,2.4c0.6,0.9,1.1,1.9,1.4,2.9L171.6,35.1z"/>
		<path class="st1" d="M181.1,45.4l-12.1,9.3l-3.1-4l12.1-9.3l-2.5-3.3l3.4-2.6l8.2,10.7l-3.4,2.6L181.1,45.4z"/>
		<path class="st1" d="M179.1,72.6l-2.9-5.6l4.5-7.8l-6.7,3.5l-2.3-4.5l17.4-9l3.7,7c0.5,1,0.8,1.9,0.9,2.8c0.1,0.9,0,1.7-0.2,2.4
			c-0.2,0.7-0.6,1.4-1.2,1.9c-0.5,0.6-1.2,1.1-1.9,1.4c-1.3,0.7-2.6,0.9-3.7,0.7c-1.2-0.2-2.2-0.9-3.1-2L179.1,72.6z M183.6,57.7
			l0.4,0.9c0.5,0.9,1,1.5,1.6,1.8c0.6,0.3,1.3,0.2,2-0.1c0.7-0.4,1.1-0.9,1.2-1.5c0.1-0.7,0-1.4-0.5-2.3l-0.4-0.9L183.6,57.7z"/>
		<path class="st1" d="M196.7,79l-1.8-5.8l-3.1,1l1.7,5.5l-4.1,1.3l-1.7-5.5l-3.2,1l1.8,5.8l-4.1,1.3l-3.3-10.7l18.7-5.8l3.3,10.7
			L196.7,79z"/>
	</g>
</g>
</svg>
