<?xml version="1.0" encoding="utf-8"?>
<!-- Generator: Adobe Illustrator 21.0.0, SVG Export Plug-In . SVG Version: 6.00 Build 0)  -->
<svg version="1.1" id="Layer_1" xmlns="http://www.w3.org/2000/svg" xmlns:xlink="http://www.w3.org/1999/xlink" x="0px" y="0px"
	 viewBox="0 0 174 76" style="enable-background:new 0 0 174 76;" xml:space="preserve">
<style type="text/css">
	.st0{fill:none;enable-background:new    ;}
	.st1{fill-rule:evenodd;clip-rule:evenodd;fill:#424242;}
	.st2{fill:#424242;}
</style>
<path class="st0" d="z"/>
<g>
	<path class="st1" d="M12.6-0.1l39.6,0c1.1,0,2,0.9,2,2l0,10.8c0,1-0.7,2-2,2l-34.8,0c-0.6,0-1,0.5-1,1v5.7c0,0.5,0.4,1,1,1l28.3,0
		c1.2,0,2,1,2,2l0,10.8c0,1-0.7,2-2,2l-28.2,0c-0.5,0-1,0.4-1,1l0,19.6c0,1.1-0.8,2-2,2h-12c-1.1,0-2-0.9-2-2l0-45.8
		C0.5,5.1,6.1-0.1,12.6-0.1L12.6-0.1z M131.4,59.7l39.6,0c1.1,0,2-0.9,2-2l0-10.8c0-1-0.7-2-2-2l-34.8,0c-0.6,0-1-0.5-1-1
		c0-20.9,0-5,0-42.1c0-1.1-0.8-2-2-2h-12c-1.1,0-2,0.9-2,2l0,45.8C119.2,54.5,124.8,59.7,131.4,59.7L131.4,59.7z M75.6-0.1l35.2,0
		c1,0,2,0.8,2,2l0,10.8c0,1.1-0.9,2-2,2l-30.3,0c-4.2,0-7.7,3.7-7.7,8V37c0,4.2,3.2,7.9,8,8l30,0c0.9,0,2,0.8,2,1.8l0,11
		c0,1-0.7,2-2,2l-35.2,0c-11.2,0-18.8-9.2-18.8-18.8V18.7C56.7,8.1,65.5-0.1,75.6-0.1z"/>
	<path class="st2" d="M0.6,74v-6.9h3.9v1H1.7v1.7h2.7v1H1.7V74H0.6L0.6,74z M8.1,67.1h1.1v4.2c0,0.6,0.1,1.1,0.4,1.4
		c0.3,0.3,0.7,0.5,1.3,0.5c0.6,0,1-0.2,1.3-0.5c0.3-0.3,0.4-0.8,0.4-1.4v-4.2h1.1v4.3c0,0.9-0.2,1.6-0.7,2.1
		c-0.5,0.5-1.2,0.7-2.1,0.7c-1,0-1.7-0.2-2.1-0.7c-0.5-0.5-0.7-1.2-0.7-2.1V67.1L8.1,67.1z M17.7,74v-7.2l4.4,4.2
		c0.1,0.1,0.2,0.2,0.4,0.4c0.1,0.1,0.3,0.3,0.4,0.5v-4.8h1v7.2L19.4,70c-0.1-0.1-0.2-0.2-0.3-0.4c-0.1-0.1-0.2-0.3-0.3-0.4V74H17.7
		L17.7,74z M29,73H30c0.5,0,0.9,0,1.2-0.1c0.3-0.1,0.5-0.2,0.7-0.4c0.3-0.2,0.5-0.5,0.6-0.8c0.1-0.3,0.2-0.7,0.2-1.2
		c0-0.4-0.1-0.8-0.2-1.2c-0.1-0.3-0.3-0.6-0.6-0.8c-0.2-0.2-0.4-0.3-0.7-0.4c-0.3-0.1-0.7-0.1-1.3-0.1h-0.4H29V73L29,73z M27.9,74
		v-6.9h1.5c1,0,1.7,0.1,2.1,0.1c0.4,0.1,0.8,0.3,1.1,0.5c0.4,0.3,0.7,0.7,0.9,1.2c0.2,0.5,0.3,1,0.3,1.6c0,0.6-0.1,1.2-0.3,1.6
		c-0.2,0.5-0.5,0.9-0.9,1.2c-0.3,0.2-0.6,0.4-1,0.5c-0.4,0.1-1,0.1-1.8,0.1h-0.3H27.9L27.9,74z M38.8,71.3h1.9L40,69.7
		c0-0.1-0.1-0.2-0.1-0.3c0-0.1-0.1-0.3-0.1-0.4c0,0.2-0.1,0.3-0.1,0.4c0,0.1-0.1,0.3-0.1,0.4L38.8,71.3L38.8,71.3z M41.9,74
		l-0.8-1.8h-2.7L37.5,74h-1.2l3.4-7.2l3.4,7.2H41.9L41.9,74z M51.7,68.8c-0.3-0.3-0.7-0.5-1-0.6C50.3,68,49.9,68,49.6,68
		c-0.8,0-1.4,0.2-1.8,0.7c-0.5,0.5-0.7,1.1-0.7,1.9c0,0.7,0.2,1.4,0.7,1.9c0.5,0.5,1,0.7,1.8,0.7c0.4,0,0.8-0.1,1.2-0.2
		c0.4-0.1,0.7-0.4,1.1-0.7v1.3c-0.3,0.2-0.6,0.4-1,0.5c-0.4,0.1-0.7,0.2-1.2,0.2c-0.5,0-1-0.1-1.5-0.3c-0.4-0.2-0.8-0.4-1.2-0.8
		c-0.3-0.3-0.6-0.7-0.8-1.2c-0.2-0.4-0.3-0.9-0.3-1.4c0-0.5,0.1-1,0.3-1.4c0.2-0.4,0.4-0.8,0.8-1.2c0.3-0.3,0.7-0.6,1.2-0.8
		c0.4-0.2,0.9-0.3,1.4-0.3c0.4,0,0.8,0.1,1.2,0.2c0.4,0.1,0.7,0.3,1.1,0.5L51.7,68.8L51.7,68.8z M48.3,75.9C48.6,76,48.8,76,49,76
		c0.2,0,0.4,0,0.5,0c0.4,0,0.6-0.1,0.8-0.2c0.2-0.1,0.3-0.3,0.3-0.6c0-0.3-0.1-0.5-0.3-0.6c-0.2-0.1-0.4-0.2-0.8-0.2h-0.1V74h-0.4
		v0.9c0,0,0.1,0,0.1,0c0,0,0.1,0,0.1,0c0.2,0,0.4,0,0.5,0.1c0.1,0.1,0.1,0.1,0.1,0.3c0,0.1,0,0.2-0.1,0.2c-0.1,0.1-0.2,0.1-0.4,0.1
		c-0.1,0-0.3,0-0.5,0c-0.2,0-0.4-0.1-0.7-0.1V75.9L48.3,75.9z M56.9,71.3h1.9l-0.7-1.6c0-0.1-0.1-0.2-0.1-0.3c0-0.1-0.1-0.3-0.1-0.4
		c0,0.2-0.1,0.3-0.1,0.4c0,0.1-0.1,0.3-0.1,0.4L56.9,71.3L56.9,71.3z M60.1,74l-0.8-1.8h-2.7L55.7,74h-1.2l3.4-7.2l3.4,7.2H60.1
		L60.1,74z M59.3,65.2c-0.1,0.3-0.2,0.6-0.3,0.7c-0.2,0.2-0.4,0.3-0.6,0.3c0,0-0.1,0-0.1,0c0,0-0.1,0-0.1,0L57.5,66
		c-0.1,0-0.1,0-0.1,0c0,0,0,0-0.1,0c-0.1,0-0.2,0-0.3,0.1c-0.1,0.1-0.1,0.1-0.1,0.2h-0.4c0.1-0.3,0.2-0.6,0.3-0.7
		c0.1-0.2,0.3-0.2,0.6-0.2c0,0,0.1,0,0.1,0c0,0,0.1,0,0.1,0l0.6,0.1c0,0,0.1,0,0.1,0c0,0,0.1,0,0.1,0c0.1,0,0.2,0,0.2-0.1
		c0.1-0.1,0.1-0.1,0.1-0.2H59.3L59.3,65.2z M70.2,70.6c0-0.3-0.1-0.7-0.2-1c-0.1-0.3-0.3-0.6-0.6-0.8c-0.2-0.2-0.5-0.4-0.8-0.6
		c-0.3-0.1-0.6-0.2-1-0.2c-0.3,0-0.7,0.1-1,0.2c-0.3,0.1-0.6,0.3-0.8,0.6c-0.2,0.2-0.4,0.5-0.5,0.8c-0.1,0.3-0.2,0.7-0.2,1
		c0,0.4,0.1,0.7,0.2,1c0.1,0.3,0.3,0.6,0.5,0.8c0.2,0.2,0.5,0.4,0.8,0.6c0.3,0.1,0.6,0.2,1,0.2c0.3,0,0.7-0.1,1-0.2
		c0.3-0.1,0.6-0.3,0.8-0.6c0.2-0.2,0.4-0.5,0.6-0.8C70.2,71.3,70.2,70.9,70.2,70.6L70.2,70.6z M71.4,70.6c0,0.5-0.1,1-0.3,1.4
		c-0.2,0.4-0.5,0.8-0.8,1.2c-0.4,0.3-0.8,0.6-1.2,0.8c-0.4,0.2-0.9,0.3-1.4,0.3c-0.5,0-1-0.1-1.4-0.3c-0.5-0.2-0.9-0.4-1.2-0.8
		c-0.4-0.3-0.6-0.7-0.8-1.2c-0.2-0.4-0.3-0.9-0.3-1.4c0-0.5,0.1-1,0.3-1.4c0.2-0.4,0.5-0.8,0.8-1.2c0.4-0.3,0.8-0.6,1.2-0.8
		c0.4-0.2,0.9-0.3,1.4-0.3c0.5,0,1,0.1,1.4,0.3c0.4,0.2,0.8,0.4,1.2,0.8c0.4,0.4,0.6,0.7,0.8,1.2C71.3,69.6,71.4,70.1,71.4,70.6
		L71.4,70.6z M84.1,68.8c-0.3-0.3-0.7-0.5-1-0.6C82.8,68,82.4,68,82,68c-0.8,0-1.4,0.2-1.8,0.7c-0.5,0.5-0.7,1.1-0.7,1.9
		c0,0.7,0.2,1.4,0.7,1.9c0.5,0.5,1,0.7,1.8,0.7c0.4,0,0.8-0.1,1.2-0.2c0.4-0.1,0.7-0.4,1.1-0.7v1.3c-0.3,0.2-0.6,0.4-1,0.5
		c-0.4,0.1-0.7,0.2-1.2,0.2c-0.5,0-1-0.1-1.5-0.3c-0.4-0.2-0.8-0.4-1.2-0.8c-0.3-0.3-0.6-0.7-0.8-1.2c-0.2-0.4-0.3-0.9-0.3-1.4
		c0-0.5,0.1-1,0.3-1.4c0.2-0.4,0.4-0.8,0.8-1.2c0.3-0.3,0.7-0.6,1.2-0.8c0.4-0.2,0.9-0.3,1.4-0.3c0.4,0,0.8,0.1,1.2,0.2
		c0.4,0.1,0.7,0.3,1.1,0.5L84.1,68.8L84.1,68.8z M89.4,71.3h1.9l-0.7-1.6c0-0.1-0.1-0.2-0.1-0.3c0-0.1-0.1-0.3-0.1-0.4
		c0,0.2-0.1,0.3-0.1,0.4c0,0.1-0.1,0.3-0.1,0.4L89.4,71.3L89.4,71.3z M92.5,74l-0.8-1.8H89L88.2,74H87l3.4-7.2l3.4,7.2H92.5L92.5,74
		z M89.7,66.4l0.9-1.3h1.1l-1.4,1.3H89.7L89.7,66.4z M96.3,72.6l0.9-0.4c0.1,0.3,0.2,0.5,0.5,0.7c0.2,0.2,0.5,0.2,0.9,0.2
		c0.3,0,0.6-0.1,0.8-0.3c0.2-0.2,0.3-0.4,0.3-0.7c0-0.4-0.3-0.8-1-1.1c-0.1,0-0.2-0.1-0.2-0.1c-0.8-0.4-1.3-0.7-1.5-1
		c-0.3-0.3-0.4-0.7-0.4-1.1c0-0.6,0.2-1,0.6-1.4c0.4-0.4,0.9-0.5,1.5-0.5c0.5,0,0.9,0.1,1.3,0.3c0.3,0.2,0.6,0.5,0.7,0.9l-0.9,0.5
		c-0.1-0.2-0.3-0.4-0.5-0.5c-0.2-0.1-0.4-0.2-0.6-0.2c-0.3,0-0.5,0.1-0.7,0.2c-0.2,0.2-0.3,0.4-0.3,0.6c0,0.4,0.4,0.8,1.2,1.2
		C99,70,99,70,99,70c0.7,0.3,1.2,0.6,1.4,0.9c0.3,0.3,0.4,0.7,0.4,1.1c0,0.7-0.2,1.2-0.6,1.6c-0.4,0.4-1,0.6-1.7,0.6
		c-0.6,0-1.1-0.1-1.5-0.4C96.7,73.5,96.5,73.2,96.3,72.6L96.3,72.6z M105.6,70h0.3c0.6,0,1-0.1,1.3-0.2c0.2-0.1,0.3-0.4,0.3-0.7
		c0-0.4-0.1-0.6-0.3-0.8c-0.2-0.2-0.6-0.2-1.2-0.2h-0.3V70L105.6,70z M105.5,70.9V74h-1.1v-6.9h1.7c0.5,0,0.9,0,1.1,0.1
		c0.2,0.1,0.4,0.1,0.6,0.3c0.2,0.2,0.4,0.4,0.5,0.6c0.1,0.3,0.2,0.6,0.2,0.9c0,0.3-0.1,0.6-0.2,0.9c-0.1,0.3-0.3,0.5-0.5,0.7
		c-0.2,0.1-0.4,0.2-0.6,0.3c-0.2,0.1-0.6,0.1-1.1,0.1H106H105.5L105.5,70.9z M112,74v-6.9h3.9v1h-2.7v1.7h2.7v1h-2.7V73h2.7v1H112
		L112,74z M120.7,70.1h0.2c0.6,0,1-0.1,1.2-0.2c0.2-0.1,0.3-0.4,0.3-0.7c0-0.4-0.1-0.6-0.3-0.8c-0.2-0.2-0.6-0.2-1.2-0.2h-0.2V70.1
		L120.7,70.1z M120.6,70.9V74h-1.1v-6.9h1.6c0.5,0,0.8,0,1.1,0.1c0.3,0.1,0.5,0.2,0.7,0.3c0.2,0.2,0.4,0.4,0.5,0.6
		c0.1,0.3,0.2,0.6,0.2,0.9c0,0.6-0.1,1-0.4,1.3c-0.3,0.3-0.7,0.5-1.2,0.6l2.4,3.2h-1.3l-2.3-3.1H120.6L120.6,70.9z M130.9,74v-6.9
		h1.1V73h2.5v1H130.9L130.9,74z M137.9,74v-6.9h1.1V74H137.9L137.9,74z M137.8,66.4l0.9-1.3h1.1l-1.4,1.3H137.8L137.8,66.4z
		 M144.1,70h0.4c0.5,0,0.9-0.1,1.1-0.2c0.2-0.1,0.3-0.4,0.3-0.7c0-0.4-0.1-0.6-0.3-0.8c-0.2-0.2-0.6-0.2-1.2-0.2h-0.4V70L144.1,70z
		 M144.1,73.1h0.4c0.4,0,0.7,0,0.9,0c0.2,0,0.3-0.1,0.5-0.2c0.1-0.1,0.2-0.2,0.3-0.4c0.1-0.2,0.1-0.3,0.1-0.5c0-0.2,0-0.4-0.1-0.6
		c-0.1-0.2-0.2-0.3-0.4-0.4c-0.1-0.1-0.2-0.1-0.4-0.1c-0.1,0-0.3,0-0.5,0h-0.3h-0.4V73.1L144.1,73.1z M143,74v-6.9h1.7
		c0.5,0,0.9,0,1.1,0.1c0.2,0.1,0.4,0.1,0.6,0.3c0.2,0.2,0.4,0.4,0.5,0.6c0.1,0.3,0.2,0.5,0.2,0.8c0,0.4-0.1,0.7-0.3,0.9
		c-0.2,0.2-0.4,0.4-0.7,0.5c0.4,0.1,0.7,0.2,1,0.6c0.2,0.3,0.3,0.7,0.3,1.2c0,0.3,0,0.5-0.1,0.8c-0.1,0.3-0.2,0.5-0.4,0.6
		c-0.2,0.2-0.4,0.3-0.7,0.4c-0.3,0.1-0.8,0.1-1.4,0.1H143L143,74z M151,74v-6.9h3.9v1h-2.7v1.7h2.7v1h-2.7V73h2.7v1H151L151,74z
		 M159.7,70.1h0.2c0.6,0,1-0.1,1.2-0.2c0.2-0.1,0.3-0.4,0.3-0.7c0-0.4-0.1-0.6-0.3-0.8c-0.2-0.2-0.6-0.2-1.2-0.2h-0.2V70.1
		L159.7,70.1z M159.6,70.9V74h-1.1v-6.9h1.6c0.5,0,0.8,0,1.1,0.1c0.3,0.1,0.5,0.2,0.7,0.3c0.2,0.2,0.4,0.4,0.5,0.6
		c0.1,0.3,0.2,0.6,0.2,0.9c0,0.6-0.1,1-0.4,1.3c-0.3,0.3-0.7,0.5-1.2,0.6l2.4,3.2H162l-2.3-3.1H159.6L159.6,70.9z M172.3,70.6
		c0-0.3-0.1-0.7-0.2-1c-0.1-0.3-0.3-0.6-0.6-0.8c-0.2-0.2-0.5-0.4-0.8-0.6c-0.3-0.1-0.6-0.2-1-0.2c-0.3,0-0.7,0.1-1,0.2
		c-0.3,0.1-0.6,0.3-0.8,0.6c-0.2,0.2-0.4,0.5-0.5,0.8c-0.1,0.3-0.2,0.7-0.2,1c0,0.4,0.1,0.7,0.2,1c0.1,0.3,0.3,0.6,0.5,0.8
		c0.2,0.2,0.5,0.4,0.8,0.6c0.3,0.1,0.6,0.2,1,0.2c0.3,0,0.7-0.1,1-0.2c0.3-0.1,0.6-0.3,0.8-0.6c0.2-0.2,0.4-0.5,0.6-0.8
		C172.3,71.3,172.3,70.9,172.3,70.6L172.3,70.6z M173.5,70.6c0,0.5-0.1,1-0.3,1.4c-0.2,0.4-0.5,0.8-0.8,1.2
		c-0.4,0.3-0.8,0.6-1.2,0.8c-0.4,0.2-0.9,0.3-1.4,0.3c-0.5,0-1-0.1-1.4-0.3c-0.5-0.2-0.9-0.4-1.2-0.8c-0.4-0.3-0.6-0.7-0.8-1.2
		c-0.2-0.4-0.3-0.9-0.3-1.4c0-0.5,0.1-1,0.3-1.4c0.2-0.4,0.5-0.8,0.8-1.2c0.4-0.3,0.8-0.6,1.2-0.8c0.4-0.2,0.9-0.3,1.4-0.3
		c0.5,0,1,0.1,1.4,0.3c0.4,0.2,0.8,0.4,1.2,0.8c0.4,0.4,0.6,0.7,0.8,1.2C173.4,69.6,173.5,70.1,173.5,70.6z"/>
</g>
</svg>
