<?xml version="1.0" encoding="utf-8"?>
<!-- Generator: Adobe Illustrator 21.0.0, SVG Export Plug-In . SVG Version: 6.00 Build 0)  -->
<svg version="1.1" id="Layer_1" xmlns="http://www.w3.org/2000/svg" xmlns:xlink="http://www.w3.org/1999/xlink" x="0px" y="0px"
	 viewBox="0 0 82 77" style="enable-background:new 0 0 82 77;" xml:space="preserve">
<style type="text/css">
	.st0{fill:none;enable-background:new    ;}
	.st1{fill-rule:evenodd;clip-rule:evenodd;fill:#ED2D2C;}
	.st2{fill:#231F20;}
	.st3{fill-rule:evenodd;clip-rule:evenodd;fill:#231F20;}
</style>
<path class="st0" d="z"/>
<g>
	<g>
		<path class="st1" d="M31.8,72.8v3H31l-0.2-0.6c-0.1,0.2-0.4,0.4-0.6,0.5c-0.1,0.1-0.3,0.1-0.4,0.1c-0.1,0-0.2,0-0.3,0
			c-0.1,0-0.1,0-0.2,0c-0.7,0-1.3-0.3-1.8-0.8c-0.4-0.5-0.6-1.1-0.6-1.9c0-0.4,0-0.8,0.1-1.1c0.1-0.3,0.3-0.6,0.5-0.9
			c0.2-0.3,0.5-0.5,0.8-0.6c0.3-0.1,0.7-0.2,1.1-0.2c0.6,0,1.1,0.2,1.5,0.5c0.4,0.3,0.6,0.8,0.8,1.4l-1.6,0.2c0-0.3-0.1-0.4-0.2-0.6
			c-0.1-0.2-0.3-0.3-0.5-0.3c-0.3,0-0.6,0.2-0.7,0.6c-0.1,0.2-0.1,0.6-0.1,1v0.3l0,0.3l0,0.2l0.1,0.2c0.1,0.2,0.2,0.3,0.3,0.4
			c0.1,0.1,0.3,0.1,0.4,0.1c0.2,0,0.4-0.1,0.5-0.2c0.1-0.1,0.2-0.3,0.2-0.5h-0.9v-1.1H31.8L31.8,72.8z M35.4,75.9l-0.3-1.1h-1.4
			l-0.3,1.1h-1.3l1.6-5.4h1.7l1.7,5.4H35.4L35.4,75.9z M34,73.6h0.9L34.4,72L34,73.6L34,73.6z M41.6,74.6v1.3h-4.4v-1l2.4-3.1h-2.2
			v-1.3h4.2v1.1l-2.3,3.1H41.6L41.6,74.6z M46.1,74.6v1.3h-4v-5.4h4v1.3h-2.4v0.8h1.9v1.2h-1.9v0.9H46.1L46.1,74.6z M49.1,71.7v4.1
			h-1.5v-4.1h-1.1v-1.3h3.8v1.3H49.1L49.1,71.7z M53.1,75.9h1.7l-1.7-5.4h-1.7l-1.6,5.4h1.3l0.3-1.1h1.4L53.1,75.9L53.1,75.9z
			 M51.7,73.6l0.4-1.6l0.4,1.6H51.7z"/>
		<path class="st2" d="M56.9,73.9v2h-1.6v-5.4h2.2c0.4,0,0.7,0,0.9,0.1c0.3,0,0.5,0.1,0.7,0.2c0.3,0.2,0.4,0.4,0.6,0.6
			c0.1,0.3,0.2,0.5,0.2,0.8c0,0.3,0,0.5-0.1,0.7c-0.1,0.2-0.2,0.4-0.4,0.6c-0.2,0.2-0.4,0.3-0.7,0.3c-0.3,0.1-0.5,0.1-0.8,0.1H56.9
			L56.9,73.9z M56.9,72.7h0.4c0.2,0,0.4,0,0.5-0.1c0.2-0.1,0.3-0.2,0.3-0.5c0-0.2-0.1-0.4-0.2-0.4c-0.1-0.1-0.3-0.1-0.5-0.1h-0.5
			V72.7L56.9,72.7z M65.1,75.9h-1.8l-0.8-2.1H62v2.1h-1.6v-5.4H63c0.3,0,0.5,0,0.7,0.1c0.2,0,0.4,0.1,0.6,0.3
			c0.2,0.1,0.4,0.3,0.5,0.6l0.1,0.3c0,0.1,0,0.3,0,0.4c0,0.3-0.1,0.6-0.2,0.9c-0.1,0.2-0.4,0.4-0.7,0.6L65.1,75.9L65.1,75.9z
			 M62,72.6h0.6c0.3,0,0.5,0,0.6-0.1c0.1-0.1,0.2-0.2,0.2-0.4c0-0.2-0.1-0.3-0.3-0.4c0,0-0.1,0-0.3-0.1h-0.2H62V72.6L62,72.6z
			 M69.6,74.6v1.3h-4v-5.4h4v1.3h-2.4v0.8h1.9v1.2h-1.9v0.9H69.6L69.6,74.6z M69.9,74.3l1.5-0.3c0.1,0.2,0.2,0.4,0.3,0.5
			c0.2,0.1,0.4,0.2,0.6,0.2c0.1,0,0.3,0,0.4,0c0.2,0,0.2-0.1,0.2-0.3c0-0.1-0.1-0.2-0.2-0.3c-0.1,0-0.2-0.1-0.4-0.1
			c-0.4-0.1-0.7-0.1-0.9-0.2c-0.2-0.1-0.4-0.2-0.6-0.3c-0.5-0.3-0.7-0.7-0.7-1.3c0-0.3,0.1-0.5,0.2-0.8c0.1-0.2,0.3-0.4,0.5-0.6
			c0.2-0.1,0.4-0.2,0.7-0.3c0.3-0.1,0.6-0.1,0.8-0.1c0.5,0,0.9,0.1,1.3,0.3c0.4,0.2,0.7,0.5,0.8,1l-1.3,0.4
			c-0.1-0.2-0.2-0.3-0.3-0.4c-0.1-0.1-0.3-0.1-0.5-0.1c-0.1,0-0.3,0-0.3,0.1c-0.1,0.1-0.2,0.2-0.2,0.3c0,0.1,0.1,0.2,0.3,0.3
			l0.3,0.1c0.6,0.1,0.9,0.2,1,0.2c0.1,0,0.2,0.1,0.3,0.1c0.1,0,0.2,0.1,0.3,0.1c0.3,0.1,0.4,0.3,0.6,0.6c0.1,0.2,0.2,0.5,0.2,0.8
			c0,0.6-0.3,1.1-0.8,1.4c-0.4,0.3-1,0.4-1.6,0.4c-0.6,0-1.1-0.1-1.5-0.4C70.3,75.3,70.1,74.9,69.9,74.3L69.9,74.3z M75,74.3
			l1.5-0.3c0.1,0.2,0.2,0.4,0.3,0.5c0.2,0.1,0.4,0.2,0.6,0.2c0.1,0,0.3,0,0.4,0c0.2,0,0.2-0.1,0.2-0.3c0-0.1-0.1-0.2-0.2-0.3
			c-0.1,0-0.2-0.1-0.4-0.1c-0.4-0.1-0.7-0.1-0.9-0.2c-0.2-0.1-0.4-0.2-0.6-0.3c-0.5-0.3-0.7-0.7-0.7-1.3c0-0.3,0.1-0.5,0.2-0.8
			c0.1-0.2,0.3-0.4,0.5-0.6c0.2-0.1,0.4-0.2,0.7-0.3c0.3-0.1,0.6-0.1,0.8-0.1c0.5,0,0.9,0.1,1.3,0.3c0.4,0.2,0.7,0.5,0.8,1l-1.3,0.4
			c-0.1-0.2-0.2-0.3-0.3-0.4c-0.1-0.1-0.3-0.1-0.5-0.1c-0.1,0-0.3,0-0.3,0.1c-0.1,0.1-0.2,0.2-0.2,0.3c0,0.1,0.1,0.2,0.3,0.3
			l0.3,0.1c0.6,0.1,0.9,0.2,1,0.2c0.1,0,0.2,0.1,0.3,0.1c0.1,0,0.2,0.1,0.3,0.1c0.3,0.1,0.4,0.3,0.6,0.6c0.1,0.2,0.2,0.5,0.2,0.8
			c0,0.6-0.3,1.1-0.8,1.4c-0.4,0.3-1,0.4-1.6,0.4c-0.6,0-1.1-0.1-1.5-0.4C75.5,75.3,75.2,74.9,75,74.3z"/>
	</g>
	<path class="st3" d="M52.1,33.5v32.1h-8.4l-2.3-6c-1.5,2.2-3.7,4-6.5,5.2c-1.4,0.6-2.7,1-4,1.2c-1.3,0.3-2.3,0.4-3,0.4
		c-0.7,0-1.3,0-1.7,0c-7.8,0-14-2.8-18.6-8.4c-4.3-5.2-6.4-12-6.4-20.2c0-4.2,0.5-8,1.5-11.5c1-3.5,2.7-6.8,5.1-10
		c2.4-3.2,5.4-5.4,8.9-6.8c3.5-1.4,7.3-2.1,11.4-2.1c6.5,0,11.9,1.7,16,5.1c4.2,3.4,6.8,8.3,8,14.9l-16.7,1.8
		c-0.3-2.7-1-4.7-2.1-6.2c-1.3-1.8-3.2-2.8-5.6-2.8c-3.4,0-5.8,2-7.2,6.1c-0.8,2.5-1.2,6.1-1.2,10.6V40l0.2,3.1l0.5,2.5l0.7,1.8
		c0.7,1.7,1.7,3,3,4.1c1.4,0.9,2.9,1.4,4.7,1.4c2.2,0,4.1-0.7,5.5-2c1.4-1.3,2.2-3.1,2.2-5.3h-9.2V33.5H52.1z"/>
	<path class="st1" d="M63.8,54.1v11.6H54v-32h12.9c2.2,0,3.9,0.1,5.2,0.3c1.6,0.2,2.9,0.6,4.1,1.4c1.5,0.9,2.7,2.1,3.5,3.6
		c0.8,1.5,1.2,3.1,1.2,4.8c0,1.6-0.3,3.1-0.9,4.4c-0.6,1.3-1.4,2.4-2.5,3.4c-1.1,0.9-2.4,1.6-3.9,2c-1.5,0.4-3.1,0.6-4.8,0.6H63.8
		L63.8,54.1z M63.8,47.3h2.5c1.4,0,2.5-0.1,3.3-0.4c1.1-0.5,1.6-1.4,1.6-2.7c0-1.2-0.5-2.1-1.5-2.6c-0.8-0.3-1.8-0.5-3.1-0.5h-2.8
		V47.3z"/>
	<path class="st1" d="M19.1,7.2C33.3-5.3,66.7,2.4,69.9,19.7c0,0.2,0.7,0.6,0.7,4.6l-16.2,1.9l-0.1-0.3C53.1,11,34.3-0.4,19.1,7.2z"
		/>
</g>
</svg>
