<?xml version="1.0" encoding="utf-8"?>
<!-- Generator: Adobe Illustrator 21.0.0, SVG Export Plug-In . SVG Version: 6.00 Build 0)  -->
<svg version="1.1" id="Layer_1" xmlns="http://www.w3.org/2000/svg" xmlns:xlink="http://www.w3.org/1999/xlink" x="0px" y="0px"
	 viewBox="0 0 49 46" style="enable-background:new 0 0 49 46;" xml:space="preserve">
<style type="text/css">
	.st0{fill:none;enable-background:new    ;}
	.st1{fill:#FFFFFF;}
</style>
<path class="st0" d="z"/>
<g>
	<path class="st1" d="M42.2,7.6C41.4,6.9,41,5.9,41,4.8c0-1.1,0.4-2.1,1.2-2.8C43,1.2,43.9,0.8,45,0.8c1.1,0,2,0.4,2.8,1.2
		C48.6,2.8,49,3.7,49,4.8c0,1.1-0.4,2-1.2,2.8C47,8.4,46.1,8.8,45,8.8C43.9,8.8,43,8.4,42.2,7.6z"/>
	<g>
		<path class="st1" d="M40.3,26.5c-1-1.2-5.9-6.4-13.2-8.9l1.2-1.4c2.2,0.7,5.5,2.4,7.5,3.9l5-5.8c0,0,2.3-2.9,0.8-5.4
			c-1-1.6-2.7-1.8-3.4-1.8l0,0c0,0,0,0-0.1,0H20.2c-1.2,0-2.2,1-2.2,2.2c0,1.2,1,2.2,2.2,2.2h12.1l-4,4.7c-2.3-0.8-4.8-1.3-7.4-1.2
			c-1.5,0-2.8,0.3-4,0.7c-1.5-1.8-2.4-3.7-2.4-3.8l-1.5,0.7c0.1,0.1,0.8,1.9,2.3,3.7c-1.2,0.5-2.3,1.2-3.3,1.8c-1,0.6-2,1.2-2.9,1.6
			c-5.4,1.8-7.4-1.6-7.5-1.7L0,18.8c0,0,2.8,4.6,9.6,2.4c1.1-0.4,2.1-1,3.2-1.7c1.1-0.7,2.3-1.4,3.6-1.9c1,1,2.1,1.9,3.5,2.5
			c1.4,0.6,2.7,1,3.9,1.3l-4.6,5.3H10c-0.7,0-1.4,0.2-1.9,0.7c-0.5,0.5-0.8,1.1-0.8,1.8c0,0.7,0.3,1.3,0.8,1.8
			c0.5,0.5,1.1,0.7,1.8,0.7h10.8c0.4,0,0.8,0,1.2-0.1c0.9-0.2,1.5-0.4,1.9-0.8l5.1-5.5c0,0,5,2.3,7.1,4.6c3.9,4.2,3.3,12.6,3.3,12.7
			c-0.1,1.1,1,2.7,2.8,2.5c1.5-0.2,2.1-1.6,2.1-2.9C44.2,42.2,44.8,31.9,40.3,26.5z M25,20c-1.3-0.2-2.8-0.6-4.4-1.3
			c-0.9-0.4-1.7-1-2.4-1.6c0.8-0.2,1.8-0.4,2.8-0.4c2.1-0.1,4.2,0.3,6.2,0.9L25,20z"/>
	</g>
</g>
</svg>
