<?xml version="1.0" encoding="utf-8"?>
<!-- Generator: Adobe Illustrator 21.0.0, SVG Export Plug-In . SVG Version: 6.00 Build 0)  -->
<svg version="1.1" id="Layer_1" xmlns="http://www.w3.org/2000/svg" xmlns:xlink="http://www.w3.org/1999/xlink" x="0px" y="0px"
	 viewBox="0 0 26 18" style="enable-background:new 0 0 26 18;" xml:space="preserve">
<style type="text/css">
	.st0{fill:none;enable-background:new    ;}
	.st1{fill:#FFFFFF;}
</style>
<path class="st0" d="z"/>
<g>
	<path class="st1" d="M24.4,7.2H1.6C0.6,7.2,0.5,8,0.5,9c0,1,0.1,1.8,1.1,1.8h22.9c1,0,1.1-0.8,1.1-1.8S25.4,7.2,24.4,7.2z
		 M24.4,14.4H1.6c-1,0-1.1,0.8-1.1,1.8s0.1,1.8,1.1,1.8h22.9c1,0,1.1-0.8,1.1-1.8S25.4,14.4,24.4,14.4z M1.6,3.6h22.9
		c1,0,1.1-0.8,1.1-1.8s-0.1-1.8-1.1-1.8H1.6c-1,0-1.1,0.8-1.1,1.8S0.6,3.6,1.6,3.6z"/>
</g>
</svg>
