<?xml version="1.0" encoding="utf-8"?>
<!-- Generator: Adobe Illustrator 21.0.0, SVG Export Plug-In . SVG Version: 6.00 Build 0)  -->
<svg version="1.1" id="Layer_1" xmlns="http://www.w3.org/2000/svg" xmlns:xlink="http://www.w3.org/1999/xlink" x="0px" y="0px"
	 viewBox="0 0 69 35" style="enable-background:new 0 0 69 35;" xml:space="preserve">
<style type="text/css">
	.st0{fill:none;enable-background:new    ;}
	.st1{fill:#FFFFFF;}
</style>
<path class="st0" d="M0,0"/>
<g>
	<path class="st1" d="M60.4,0.2c-4.2,0-7.6,3.4-7.6,7.6c0,7.3,7.6,15.2,7.6,15.2S68,15,68,7.8C68,3.6,64.6,0.2,60.4,0.2z M60.4,12
		c-2.3,0-4.1-1.8-4.1-4.1s1.8-4.1,4.1-4.1s4.1,1.8,4.1,4.1S62.7,12,60.4,12z"/>
	<path class="st1" d="M8.6,0.2C4.4,0.2,1,3.6,1,7.8C1,15.1,8.6,23,8.6,23s7.6-8,7.6-15.2C16.2,3.6,12.8,0.2,8.6,0.2z M8.6,12
		c-2.3,0-4.1-1.8-4.1-4.1s1.8-4.1,4.1-4.1s4.1,1.8,4.1,4.1C12.7,10.2,10.9,12,8.6,12z"/>
	<path class="st1" d="M47.3,34.8c-0.8,0-1.7-0.1-2.5-0.2c-0.5-0.1-0.8-0.6-0.7-1c0.1-0.5,0.6-0.8,1-0.7C46,33,46.9,33,47.8,33
		c0.2,0,0.5,0,0.7,0c0.5,0,0.9,0.3,1,0.8s-0.3,0.9-0.8,1c-0.3,0-0.5,0-0.8,0C47.7,34.8,47.5,34.8,47.3,34.8z M52,33.9
		c-0.4,0-0.7-0.2-0.8-0.6c-0.2-0.5,0.1-1,0.5-1.1c1-0.4,2-0.9,3-1.6c0.4-0.3,1-0.2,1.2,0.2c0.3,0.4,0.2,1-0.2,1.2
		c-1.1,0.7-2.2,1.3-3.3,1.8C52.2,33.9,52.1,33.9,52,33.9z M41.7,33.5c-0.1,0-0.3,0-0.4-0.1c-1-0.5-2.1-1.1-3.2-1.9
		c-0.4-0.3-0.5-0.8-0.2-1.2s0.8-0.5,1.2-0.2c1,0.7,2,1.3,2.9,1.7c0.4,0.2,0.6,0.7,0.4,1.2C42.3,33.3,42,33.5,41.7,33.5z M57.9,30
		c-0.2,0-0.5-0.1-0.7-0.3c-0.3-0.4-0.3-0.9,0-1.3c0.8-0.7,1.6-1.6,2.4-2.5c0.3-0.4,0.9-0.4,1.3-0.1c0.4,0.3,0.4,0.9,0.1,1.3
		c-0.9,1-1.7,1.8-2.5,2.6C58.3,30,58.1,30,57.9,30z M35.8,29.5c-0.2,0-0.4-0.1-0.6-0.2c-0.4-0.4-0.9-0.7-1.3-1.1
		c-0.5-0.4-0.9-0.8-1.4-1.2c-0.4-0.3-0.4-0.9-0.1-1.3c0.3-0.4,0.9-0.4,1.3-0.1c0.5,0.4,0.9,0.8,1.4,1.2c0.4,0.4,0.9,0.7,1.3,1.1
		c0.4,0.3,0.4,0.9,0.1,1.3C36.3,29.4,36,29.5,35.8,29.5z M8.6,29.3c-0.2,0-0.4-0.1-0.6-0.2c-0.4-0.3-0.4-0.9-0.1-1.3
		c0.8-0.9,1.6-1.8,2.4-2.5c0.4-0.3,0.9-0.3,1.3,0c0.3,0.4,0.3,0.9,0,1.3c-0.7,0.7-1.5,1.5-2.3,2.4C9.1,29.2,8.9,29.3,8.6,29.3z
		 M30.3,25c-0.2,0-0.3-0.1-0.5-0.2c-1-0.7-2-1.3-2.9-1.7c-0.4-0.2-0.6-0.7-0.4-1.2c0.2-0.4,0.7-0.6,1.2-0.4c1,0.5,2.1,1.1,3.2,1.9
		c0.4,0.3,0.5,0.8,0.2,1.2C30.8,24.9,30.5,25,30.3,25z M13.8,24.6c-0.3,0-0.6-0.1-0.7-0.4c-0.3-0.4-0.2-1,0.2-1.2
		c1.1-0.7,2.2-1.3,3.3-1.8c0.5-0.2,1,0,1.2,0.5s0,1-0.5,1.2c-1,0.4-1.9,0.9-2.9,1.6C14.1,24.6,13.9,24.6,13.8,24.6z M23.8,22.2
		c0,0-0.1,0-0.2,0C22.9,22,22.1,22,21.2,22c-0.3,0-0.5,0-0.8,0.1c-0.5,0.1-0.9-0.3-1-0.8s0.3-0.9,0.8-1c0.3,0,0.6-0.1,0.9-0.1
		c1,0,1.9,0,2.8,0.2c0.5,0.1,0.8,0.5,0.7,1C24.6,21.9,24.3,22.2,23.8,22.2z"/>
</g>
</svg>
