<?xml version="1.0" encoding="utf-8"?>
<!-- Generator: Adobe Illustrator 21.0.0, SVG Export Plug-In . SVG Version: 6.00 Build 0)  -->
<svg version="1.1" id="Capa_1" xmlns="http://www.w3.org/2000/svg" xmlns:xlink="http://www.w3.org/1999/xlink" x="0px" y="0px"
	 viewBox="0 0 34 35" style="enable-background:new 0 0 34 35;" xml:space="preserve">
<style type="text/css">
	.st0{fill:none;enable-background:new    ;}
	.st1{fill:#FFFFFF;}
</style>
<path class="st0" d="M-178.1-18.6"/>
<path class="st1" d="M6.3,34.2L22.7,25l-3.6-3.8L6.3,34.2z M0.3,0.3C0.1,0.6,0,1,0,1.4v32.2c0,0.6,0.2,1.1,0.6,1.5l16.2-16.5
	L0.3,0.3z M33,15.9l-5.7-3.2l-5.8,5.9l4.1,4.6l7.3-4.1c0.7-0.3,1-0.9,1.1-1.6C34,16.9,33.7,16.3,33,15.9z M24.3,11L4.6-0.1
	l14.6,16.2L24.3,11z"/>
</svg>
