<?xml version="1.0" encoding="utf-8"?>
<!-- Generator: Adobe Illustrator 21.0.0, SVG Export Plug-In . SVG Version: 6.00 Build 0)  -->
<svg version="1.1" id="Layer_1" xmlns="http://www.w3.org/2000/svg" xmlns:xlink="http://www.w3.org/1999/xlink" x="0px" y="0px"
	 viewBox="0 0 31 44" style="enable-background:new 0 0 31 44;" xml:space="preserve">
<style type="text/css">
	.st0{fill:none;enable-background:new    ;}
	.st1{fill:#FFFFFF;}
</style>
<path class="st0" d="z"/>
<g>
	<path class="st1" d="M30,31.4V2.1C30,1.5,29.5,1,28.9,1h-24C2.7,1,1,2.8,1,4.9v29.8c0,2.1,1.7,3.9,3.9,3.9h24.4
		c0.4,0,0.7-0.3,0.7-0.7v-0.3c0-0.4-0.3-0.7-0.7-0.7h-0.2c-0.5-0.6-0.7-1.4-0.7-2.2c0-0.8,0.3-1.6,0.7-2.2l0,0
		C29.6,32.4,30,31.9,30,31.4z M6.7,9.1c0-0.4,0.3-0.7,0.7-0.7h16.3c0.4,0,0.7,0.3,0.7,0.7v6.4c0,0.4-0.3,0.7-0.7,0.7H7.4
		c-0.4,0-0.7-0.3-0.7-0.7L6.7,9.1z M4.9,36.9c-1.2,0-2.2-1-2.2-2.2c0-1.2,1-2.2,2.2-2.2h22.6c-0.3,0.7-0.5,1.4-0.5,2.2
		c0,0.8,0.2,1.5,0.5,2.2L4.9,36.9L4.9,36.9z"/>
	<path class="st1" d="M14.8,34.4H9.1c-0.2,0-0.4,0.2-0.4,0.4v7.9c0,0.1,0.1,0.3,0.2,0.3c0.1,0.1,0.3,0,0.4,0l2.6-2.1l2.6,2.1
		c0.1,0.1,0.1,0.1,0.2,0.1c0.1,0,0.1,0,0.2,0c0.1-0.1,0.2-0.2,0.2-0.3v-7.9C15.1,34.6,15,34.4,14.8,34.4z"/>
</g>
</svg>
