<?xml version="1.0" encoding="utf-8"?>
<!-- Generator: Adobe Illustrator 22.1.0, SVG Export Plug-In . SVG Version: 6.00 Build 0)  -->
<svg version="1.1" id="Inovação" xmlns="http://www.w3.org/2000/svg" xmlns:xlink="http://www.w3.org/1999/xlink" x="0px" y="0px"
	 viewBox="0 0 200 200" style="enable-background:new 0 0 200 200;" xml:space="preserve">
<style type="text/css">
	.st0{fill:none;stroke:#ffffff;stroke-width:0.5669;stroke-miterlimit:22.9256;}
	.st1{fill:none;stroke:#ffffff;stroke-miterlimit:10;}
</style>
<g>
	<path d="M107.8,76.1h4.5c0.2,0,0.3,0.2,0.3,0.3v4.5c0,0.2-0.2,0.3-0.3,0.3h-4.5c-0.2,0-0.3-0.2-0.3-0.3v-4.5
		C107.5,76.2,107.6,76.1,107.8,76.1L107.8,76.1z M101.9,93.7L101.9,93.7v-0.5c0-0.2,0.2-0.3,0.3-0.3h4.5c0.2,0,0.3,0.2,0.3,0.3v0.5
		c0.1,1.7-3.2,3.2-4.6,3.9c-0.5,0.2-0.5,0.4-0.5-0.3V93.7L101.9,93.7z M113.5,76.1h4.5c0.2,0,0.3,0.2,0.3,0.3v4.5
		c0,0.2-0.2,0.3-0.3,0.3h-4.5c-0.2,0-0.3-0.2-0.3-0.3v-4.5C113.2,76.2,113.3,76.1,113.5,76.1L113.5,76.1z M96.7,87.3h4.5
		c0.2,0,0.3,0.2,0.3,0.3v4.5c0,0.2-0.2,0.3-0.3,0.3h-4.5c-0.2,0-0.3-0.2-0.3-0.3v-4.5C96.3,87.4,96.5,87.3,96.7,87.3L96.7,87.3z
		 M102.3,87.3h4.5c0.2,0,0.3,0.2,0.3,0.3v4.5c0,0.2-0.2,0.3-0.3,0.3h-4.5c-0.2,0-0.3-0.2-0.3-0.3v-4.5
		C101.9,87.4,102.1,87.3,102.3,87.3L102.3,87.3z M107.9,87.3h4.5c0.2,0,0.3,0.2,0.3,0.3v4.5c0,0.2-0.2,0.3-0.3,0.3h-4.5
		c-0.2,0-0.3-0.2-0.3-0.3v-4.5C107.6,87.4,107.7,87.3,107.9,87.3L107.9,87.3z M102.3,81.7h4.5c0.2,0,0.3,0.2,0.3,0.3v4.5
		c0,0.2-0.2,0.3-0.3,0.3h-4.5c-0.2,0-0.3-0.2-0.3-0.3V82C101.9,81.8,102.1,81.7,102.3,81.7L102.3,81.7z M96.7,92.9h4.5
		c0.2,0,0.3,0.2,0.3,0.3V97c0,0.6,0.1,0.9-0.6,1.3c-0.8,0.4-1.6,0.6-2.4,0.8c-10.8,3.5-16,12.2-18.9,18.9l0,0
		c1.1-4.5,3-17.6,10.9-24.9c0.5-0.4,0.7-0.3,1.1-0.3H96v4.6v0.3c0,0.5,0.5,0.5,0.5,0c0,0,0,0,0-0.1v-0.2v-4.2
		C96.3,93,96.5,92.9,96.7,92.9z"/>
	<path d="M95.5,92.4L95.5,92.4c0.2,0,0.3-0.1,0.4-0.3l0,0v-1.8c0-0.6,0.1-0.7-0.6-0.4c-1.5,0.7-2.8,1.5-4,2.5H95.5L95.5,92.4z"/>
	<path class="st0" d="M55.9,110.8c3.7,1,7.5,2,11,3.4c4.4,1.7,8.5,4,12.4,6.6c8-5.7,17.5-8.9,27.2-10c11.2-1.4,25.1,0.1,35.8,3.8"/>
	<g>
		<path class="st1" d="M60.7,65.5c-4,0-7.2,3.2-7.2,7.2v50.4h-6c-0.8,0-1.2,0.7-1.2,1.2v4.8c0,4.6,3.8,8.4,8.4,8.4h86.5
			c4.6,0,8.4-3.8,8.4-8.4v-4.8c0-0.6-0.6-1.2-1.2-1.2h-6V72.7c0-4-3.2-7.2-7.2-7.2H60.7L60.7,65.5z"/>
	</g>
	<line class="st1" x1="53.5" y1="123.1" x2="142.7" y2="123.1"/>
</g>
</svg>
