<?xml version="1.0" encoding="utf-8"?>
<!-- Generator: Adobe Illustrator 22.1.0, SVG Export Plug-In . SVG Version: 6.00 Build 0)  -->
<svg version="1.1" id="Inovação" xmlns="http://www.w3.org/2000/svg" xmlns:xlink="http://www.w3.org/1999/xlink" x="0px" y="0px"
	 viewBox="0 0 200 200" style="enable-background:new 0 0 200 200;" xml:space="preserve">
<style type="text/css">
	.st0{fill:none;stroke:#ffffff;stroke-miterlimit:10;}
</style>
<g>
	<line class="st0" x1="109" y1="121.5" x2="51.1" y2="121.5"/>
	<g id="Layer_2_2_">
		<g>
			<path class="st0" d="M139.6,91.1V71.3c0-4-3.2-7.2-7.2-7.2H58.3c-4,0-7.2,3.2-7.2,7.2v50.2h-6c-0.8,0-1.2,0.7-1.2,1.2v4.8
				c0,4.6,3.8,8.4,8.4,8.4H109"/>
			<path class="st0" d="M132.2,139.6c2.2,0-17.9,0-19.4,0c-2.3,0-4.1-1.9-4.1-4.1V94.8c-0.1-2.3,1.7-4.1,4-4.1h29.7
				c2.3,0,4.1,1.9,4.1,4.1v18"/>
			<path class="st0" d="M135.5,112.1h10.7c1.8,0,3.2,1.5,3.2,3.2v23.5c0,1.8-1.5,3.2-3.2,3.2h-10.7c-1.8,0-3.2-1.5-3.2-3.2v-23.5
				C132.3,113.5,133.8,112.1,135.5,112.1L135.5,112.1z"/>
			<circle class="st0" cx="127.6" cy="133.5" r="1.4"/>
			<path class="st0" d="M140.9,136.2c0.7,0,1.2,0.5,1.2,1.2c0,0.7-0.5,1.2-1.2,1.2c-0.7,0-1.2-0.5-1.2-1.2
				C139.7,136.8,140.2,136.2,140.9,136.2z"/>
		</g>
	</g>
</g>
</svg>
