<?xml version="1.0" encoding="utf-8"?>
<!-- Generator: Adobe Illustrator 22.1.0, SVG Export Plug-In . SVG Version: 6.00 Build 0)  -->
<svg version="1.1" id="Inovação" xmlns="http://www.w3.org/2000/svg" xmlns:xlink="http://www.w3.org/1999/xlink" x="0px" y="0px"
	 viewBox="0 0 200 200" style="enable-background:new 0 0 200 200;" xml:space="preserve">
<style type="text/css">
	.st0{fill:none;stroke:#040006;stroke-miterlimit:10;}
	.st1{fill:none;stroke:#211915;stroke-miterlimit:10;}
</style>
<g>
	<path class="st0" d="M87.8,96.6c8.9,0,16.1-7.2,16.1-16.1s-7.2-16.1-16.1-16.1s-16.1,7.2-16.1,16.1C71.8,89.4,79,96.6,87.8,96.6
		L87.8,96.6z"/>
	<path class="st1" d="M70.8,122.5v10.2"/>
	<path class="st1" d="M152,123.4h-47.1v-7.1c0-9.2-7.5-16.7-16.7-16.7h-0.7c-9.2,0-16.7,7.5-16.7,16.7v7.1h-15"/>
	<path class="st1" d="M104.9,134v-10.2"/>
	<path class="st0" d="M118.1,92.1c6,0,10.8-4.8,10.8-10.8c0-6-4.8-10.8-10.8-10.8c-6,0-10.8,4.8-10.8,10.8
		C107.2,87.2,112.1,92.1,118.1,92.1L118.1,92.1z"/>
	<path class="st0" d="M129.6,107.7v-2.4c0-6.2-5.1-11.2-11.2-11.2h-0.4c-6.2,0-11.2,5.1-11.2,11.2v2.4"/>
	<path class="st0" d="M60.1,97.5c4.8,0,8.7-3.9,8.7-8.7c0-4.8-3.9-8.7-8.7-8.7s-8.7,3.9-8.7,8.7C51.4,93.6,55.3,97.5,60.1,97.5
		L60.1,97.5z"/>
	<path class="st0" d="M69.3,110.1v-1.9c0-5-4.1-9-9-9H60c-5,0-9,4.1-9,9v1.9"/>
</g>
</svg>
