<?xml version="1.0" encoding="utf-8"?>
<!-- Generator: Adobe Illustrator 22.1.0, SVG Export Plug-In . SVG Version: 6.00 Build 0)  -->
<svg version="1.1" id="Tradição" xmlns="http://www.w3.org/2000/svg" xmlns:xlink="http://www.w3.org/1999/xlink" x="0px" y="0px"
	 viewBox="0 0 200 200" style="enable-background:new 0 0 200 200;" xml:space="preserve">
<style type="text/css">
	.st0{fill:none;stroke:#070308;stroke-miterlimit:10;}
</style>
<g>
	<rect x="93.1" y="86.4" class="st0" width="12.4" height="65.8"/>
	<rect x="69.1" y="86.4" class="st0" width="24" height="65.8"/>
	<path class="st0" d="M52.2,86.4c-1.1,0-2.1,0.9-2.1,2.1c0,1.1,0.9,2.1,2.1,2.1h4.1v57.6h-4.1c-1.1,0-2.1,0.9-2.1,2.1
		s0.9,2.1,2.1,2.1h16.9V86.4H52.2z"/>
	<rect x="105.5" y="86.4" class="st0" width="24" height="65.8"/>
	<path class="st0" d="M146.8,90.5c1.1,0,2.1-0.9,2.1-2.1c0-1.1-0.9-2.1-2.1-2.1h-17.3v65.8h17.3c1.1,0,2.1-0.9,2.1-2.1
		s-0.9-2.1-2.1-2.1h-4.1V90.5H146.8z"/>
	<path class="st0" d="M52.2,82.3h94.6c1.1,0,2.1-0.9,2.1-2.1c0-0.7-0.3-1.3-0.9-1.7l-47.3-32.9c-0.7-0.5-1.6-0.5-2.3,0L51,78.5
		c-0.9,0.6-1.2,1.9-0.5,2.9C50.9,82,51.5,82.3,52.2,82.3z"/>
</g>
</svg>
