<?xml version="1.0" encoding="utf-8"?>
<!-- Generator: Adobe Illustrator 22.1.0, SVG Export Plug-In . SVG Version: 6.00 Build 0)  -->
<svg version="1.1" id="Inovação" xmlns="http://www.w3.org/2000/svg" xmlns:xlink="http://www.w3.org/1999/xlink" x="0px" y="0px"
	 viewBox="0 0 200 200" style="enable-background:new 0 0 200 200;" xml:space="preserve">
<style type="text/css">
	.st0{fill:none;stroke:#335266;stroke-miterlimit:10;}
</style>
<g>
	<ellipse transform="matrix(0.973 -0.2307 0.2307 0.973 -16.89 21.8547)" class="st0" cx="85" cy="83.1" rx="8.4" ry="8.4"/>
	<ellipse transform="matrix(0.7071 -0.7071 0.7071 0.7071 -26.2992 99.444)" class="st0" cx="106.9" cy="81.5" rx="6.7" ry="6.7"/>
	<path class="st0" d="M126.6,58.1H66.4c-8.4,0-15,5.7-15,15v45.1c0,0.6,0,1.1,0.1,1.7h90h-90c0.8,7.6,7.2,13.4,14.9,13.4h20.1v0.2
		c0,0,0.3,3.3-1.3,5.2c-0.8,0.8-2,1.3-3.7,1.3c-2,0-5,1.3-5,5s3,5,5,5h25.1h6.7c2,0,5-1.3,5-5s-3-5-5-5c-1.7,0-2.8-0.5-3.7-1.3
		c-1.7-1.8-1.5-5.2-1.3-5.2v-0.2h18.4c8.4,0,15-6.7,15-15V73.1C141.7,63.8,135,58.1,126.6,58.1z M106.9,74.8c3.7,0,6.7,3,6.7,6.7
		c0,3.7-3,6.7-6.7,6.7c-3.7,0-6.7-3-6.7-6.7C100.2,77.8,103.2,74.8,106.9,74.8z M85,74.8c4.7,0,8.4,3.7,8.4,8.4
		c0,4.7-3.7,8.4-8.4,8.4c-4.5,0-8.4-3.7-8.4-8.4C76.6,78.5,80.3,74.8,85,74.8z M85.2,94.8c-7.2,0-13.4,5.3-13.4,11.7
		C71.8,100.2,78,94.8,85.2,94.8s13.2,5.3,13.2,11.7C98.4,100.2,92.3,94.8,85.2,94.8z M106.9,91.5c-3.5,0-6.2,1.3-8,3.8
		C100.7,92.8,103.4,91.5,106.9,91.5c6.2,0,11.4,4.7,11.4,10.2C118.3,96.2,113.1,91.5,106.9,91.5z M86.9,133.3h21.2H86.9z"/>
</g>
</svg>
