<?xml version="1.0" encoding="utf-8"?>
<!-- Generator: Adobe Illustrator 22.1.0, SVG Export Plug-In . SVG Version: 6.00 Build 0)  -->
<svg version="1.1" id="Contato" xmlns="http://www.w3.org/2000/svg" xmlns:xlink="http://www.w3.org/1999/xlink" x="0px" y="0px"
	 viewBox="0 0 200 200" style="enable-background:new 0 0 200 200;" xml:space="preserve">
<style type="text/css">
	.st0{fill:#070308;}
	.st1{fill:none;stroke:#070308;stroke-miterlimit:10;}
	.st2{fill:none;stroke:#070308;stroke-linecap:round;stroke-miterlimit:10;}
</style>
<g>
	<g>
		<g>
			<g id="circle_1_">
				<g>
					<path class="st0" d="M99.3,43.6c-30.4,0-55,24.6-55,55c0,30.4,24.6,55,55,55s55-24.6,55-55C154.3,68.2,129.6,43.6,99.3,43.6z
						 M99.3,152.5c-29.8,0-53.9-24.1-53.9-53.9c0-29.8,24.1-53.9,53.9-53.9s53.9,24.1,53.9,53.9C153.1,128.3,129,152.5,99.3,152.5z"
						/>
				</g>
			</g>
		</g>
	</g>
	<g transform="translate(-1 -1)">
		<g>
			<g>
				<path class="st1" d="M125.8,114.2l-10.9-7.3c-1.4-0.9-3.2-0.6-4.3,0.7l-3.2,4.1c-0.4,0.5-1.2,0.7-1.7,0.4l-0.6-0.3
					c-2-1.1-4.5-2.5-9.5-7.5c-5-5-6.4-7.5-7.5-9.5l-0.3-0.6c-0.3-0.6-0.2-1.3,0.4-1.7l4.1-3.2c1.3-1,1.6-2.9,0.7-4.3l-7.3-10.9
					c-0.9-1.4-2.8-1.8-4.3-1l-4.6,2.7c-1.4,0.8-2.5,2.2-2.9,3.8c-1.6,6-0.4,16.3,14.8,31.5c12.1,12.1,21.1,15.3,27.3,15.3
					c1.4,0,2.8-0.2,4.2-0.6c1.6-0.4,3-1.5,3.8-2.9l2.7-4.6C127.6,117,127.2,115.1,125.8,114.2z"/>
				<path class="st2" d="M120.9,96.9c0-9.4-7.6-17-17.1-17.1"/>
				<path class="st2" d="M115.5,96.9c0-6.4-5.2-11.7-11.7-11.7"/>
				<path class="st2" d="M110.1,96.9c0-3.5-2.8-6.3-6.3-6.3"/>
			</g>
		</g>
	</g>
</g>
</svg>
