<?xml version="1.0" encoding="utf-8"?>
<!-- Generator: Adobe Illustrator 22.1.0, SVG Export Plug-In . SVG Version: 6.00 Build 0)  -->
<svg version="1.1" id="Mapa" xmlns="http://www.w3.org/2000/svg" xmlns:xlink="http://www.w3.org/1999/xlink" x="0px" y="0px"
	 viewBox="0 0 200 200" style="enable-background:new 0 0 200 200;" xml:space="preserve">
<style type="text/css">
	.st0{fill:#070308;}
	.st1{fill:none;stroke:#070308;stroke-miterlimit:10;}
	.st2{fill:none;stroke:#070308;stroke-linecap:round;stroke-miterlimit:10;}
</style>
<g>
	<g>
		<g>
			<g>
				<g id="circle_2_">
					<g>
						<path class="st0" d="M99.7,44.3c-30,0-54.4,24.3-54.4,54.4c0,30,24.3,54.4,54.4,54.4S154,128.6,154,98.6
							C154,68.6,129.7,44.3,99.7,44.3z M99.7,151.8c-29.4,0-53.2-23.8-53.2-53.2c0-29.4,23.8-53.2,53.2-53.2s53.2,23.8,53.2,53.2
							C152.9,128,129.1,151.8,99.7,151.8z"/>
					</g>
				</g>
			</g>
		</g>
	</g>
	<g>
		<path class="st1" d="M99.7,91c3.7,0,6.8-3,6.8-6.8s-3-6.8-6.8-6.8s-6.8,3-6.8,6.8S95.9,91,99.7,91z"/>
		<path class="st1" d="M99.5,118.8l14.8-21.4c5.6-7.4,4.8-19.6-1.7-26.1c-3.5-3.5-8.2-5.4-13.1-5.4s-9.6,1.9-13.1,5.4
			c-6.5,6.5-7.3,18.7-1.7,26.1L99.5,118.8z"/>
		<path class="st2" d="M111.2,109.3c10.2,1.2,15.6,4.4,15.6,6.3c0,2.6-10.3,6.3-27.1,6.3s-27.1-3.7-27.1-6.3c0-1.9,5.4-5.1,15.6-6.3
			"/>
	</g>
</g>
</svg>
