<?xml version="1.0" encoding="utf-8"?>
<!-- Generator: Adobe Illustrator 21.0.0, SVG Export Plug-In . SVG Version: 6.00 Build 0)  -->
<svg version="1.1" xmlns="http://www.w3.org/2000/svg" xmlns:xlink="http://www.w3.org/1999/xlink" x="0px" y="0px"
	 viewBox="0 0 136.4 114" style="enable-background:new 0 0 136.4 114;" xml:space="preserve">
<style type="text/css">
	.st0{display:none;}
	.st1{display:inline;fill-rule:evenodd;clip-rule:evenodd;fill:#A2A1A3;}
	.st2{display:none;fill-rule:evenodd;clip-rule:evenodd;fill:#A2A1A3;}
	.st3{fill-rule:evenodd;clip-rule:evenodd;fill:#A2A1A3;}
</style>
<g id="Layer_1" class="st0">
</g>
<g id="Layer_2">
	<g class="st0">
		<path class="st1" d="M28.4,19.8c-4,0-7.2,3.2-7.2,7.2v50.2h-6c-0.8,0-1.2,0.7-1.2,1.2v4.8c0,4.6,3.8,8.4,8.4,8.4h58.7
			c0-0.1,0-0.2,0-0.4v-2H22.4c-3.3,0-6-2.6-6-6v-3.6h64.6v-2.4H23.6V27c0-2.7,2.1-4.8,4.8-4.8h74.1c2.7,0,4.8,2.1,4.8,4.8v21.8h2.4
			V27c0-4-3.2-7.2-7.2-7.2H28.4z"/>
		<path class="st1" d="M82.8,46.4h29.7c2.3,0,4.1,1.9,4.1,4.1v20c-0.3-0.2-0.6-0.3-0.9-0.3h-1.5V50.5c0-0.9-0.8-1.7-1.7-1.7H82.8
			c-0.9,0-1.7,0.8-1.7,1.7v40.7c0,0.9,0.8,1.7,1.7,1.7h22v0.9c0,0.8,0.7,1.5,1.5,1.5c21.4,0-21.9,0-23.4,0c-2.3,0-4.1-1.9-4.1-4.1
			V50.5C78.7,48.2,80.5,46.4,82.8,46.4z"/>
		<path class="st1" d="M105.6,67.8h10.7c1.8,0,3.2,1.5,3.2,3.2v23.5c0,1.8-1.5,3.2-3.2,3.2h-10.7c-1.8,0-3.2-1.5-3.2-3.2V71
			C102.4,69.2,103.9,67.8,105.6,67.8L105.6,67.8z M106.2,70.2c-0.8,0-1.5,0.7-1.5,1.5v22.2c0,0.8,0.7,1.5,1.5,1.5h9.5
			c0.8,0,1.5-0.7,1.5-1.5V71.7c0-0.8-0.7-1.5-1.5-1.5H106.2z"/>
		<circle class="st1" cx="97.7" cy="89.2" r="1.4"/>
		<circle class="st1" cx="111" cy="93.1" r="1.2"/>
	</g>
	<g class="st0">
		<path class="st1" d="M28.6,19.3c-4,0-7.2,3.2-7.2,7.2v50.2h-6c-0.8,0-1.2,0.7-1.2,1.2v4.8c0,4.6,3.8,8.4,8.4,8.4h86.1
			c4.6,0,8.4-3.8,8.4-8.4v-4.8c0-0.6-0.6-1.2-1.2-1.2h-6V26.5c0-4-3.2-7.2-7.2-7.2H28.6L28.6,19.3z M28.6,21.7h74.1
			c2.7,0,4.8,2.1,4.8,4.8v50.2H23.8V26.5C23.8,23.8,25.9,21.7,28.6,21.7L28.6,21.7z M16.6,79.1h98.1v3.6c0,3.3-2.6,6-6,6H22.6
			c-3.3,0-6-2.6-6-6V79.1z"/>
	</g>
	<path class="st2" d="M35.5,28.4l-2.4,4.8c-1.5,3.6-2.7,7.5-2.7,11.3v8.6h-6.3c-3,0-5.6,2.8-5.6,5.7v13.9c0,3,2.5,5.8,5.6,5.8h8
		c0-0.1,0-0.1,0-0.2l0-32.1c0-1.7,0.2-4.2,0.5-5.9c0.5-2.5,1.2-5,2.3-7.3c1-2.1,2-4.1,3.4-6c0.7-0.9,1.3-1.8,2-2.7
		c0.7-0.9,1.5-1.7,2.2-2.5c0.1-0.1,0.2-0.3,0.3-0.4l0,0l2-1.9c1.1-1.1,2.7-2.2,4-3.1c1.4-0.9,3-2,4.5-2.7c1.4-0.7,2.9-1.3,4.4-1.9
		c0.8-0.3,1.6-0.5,2.4-0.8c7.3-2.2,15.8-1.7,23,0.9c0.4,0.1,0.8,0.3,1.2,0.5c1.8,0.8,3.5,1.6,5.2,2.6c0.3,0.2,0.6,0.4,0.9,0.6
		c2.1,1.2,4,2.8,5.8,4.4l0,0l2.7,2.8l0,0c5.5,6.3,9.4,13.8,9.4,22.3v16.9c0,0.1,0,0.2,0,0.3h1.8v-7.6h4c1.2,0,2.3,0.8,2.9,1.8
		c0.6,1,0.8,2.1,0.8,3.3v11.8c0,1.2-0.1,2.3-0.8,3.3c-1.4,2.2-3.7,1.8-5.9,1.8h-1.1v-5.3h-1.8l0,6c0,2.4-0.1,4.6-0.7,6.9
		c-1,4.1-2.8,7.5-5.4,10.8c-0.7,0.9-1.5,1.9-2.4,2.6l-1,0.9l0,0c-1.5,1.2-2.8,2.2-4.5,3.1c-3.7,2-7.7,3.4-12,3.4h-1l-0.1-1
		c-0.1-0.8-1.4-2.1-1.9-2.6c-0.9-0.8-2.4-1.1-3.6-1.1h-6.5c-0.9,0-1.7,0.1-2.5,0.4c-0.9,0.4-1.8,1-2.4,1.8c-2,2.9-1.2,6.8,2,8.4
		c0.6,0.3,1.4,0.5,2.1,0.5h7.8c1,0,2.5-0.6,3.2-1.2c0.1-0.1,0.2-0.2,0.4-0.4c0.3-0.2,0.5-0.6,0.7-0.9c0.2-0.2,0.3-0.4,0.4-0.7
		l0.7-1.6h0.7c5,0,10.9-2,14.9-4.9c0.2-0.1,0.4-0.3,0.6-0.4l3.1-2.6c2.2-2.2,4.2-4.7,5.7-7.5c0.1-0.2,0.2-0.4,0.3-0.7
		c0.3-0.8,0.8-1.6,1.1-2.4c0.8-2.3,1.5-4.7,1.8-7.2c0.1-0.8,0-1.8,0.5-2.4c0.4-0.4,1-0.4,1.5-0.4c0.6,0,1.2,0.1,1.8,0.1
		c3.2,0,5.8-2.6,5.8-5.8V58.8c0-2.9-2.6-5.7-5.6-5.7h-3.9V52c0-3.8,0.2-7.7-0.4-11.4c-0.5-2.8-1.4-5.4-2.5-8
		c-1.6-3.5-3.7-6.8-6.2-9.7l-3.9-4c-1.5-1.3-3-2.6-4.6-3.7c-0.2-0.2-0.4-0.3-0.7-0.5c-1.4-0.9-3-1.9-4.5-2.6
		c-1.4-0.6-2.8-1.3-4.2-1.8c-1.2-0.4-2.4-0.8-3.6-1.1c-2.9-0.7-5.9-1.1-8.8-1.1h-1c-5.5,0.1-10.8,1.3-15.7,3.6l-2.4,1.2
		c-2.2,1.1-4.4,2.7-6.4,4.3l-1.3,1.1l0,0c-0.2,0.2-0.4,0.4-0.6,0.5c-0.5,0.4-1,0.9-1.5,1.4c-0.5,0.5-1,1-1.4,1.5
		c-0.4,0.4-0.8,0.8-1.1,1.3C38,24.7,36.7,26.5,35.5,28.4L35.5,28.4z M30.5,54.9v22h-6.6c-2.2,0-3.9-1.8-3.9-3.9V58.8
		c0-2.2,1.8-3.9,3.9-3.9H30.5L30.5,54.9z M69.2,102.4h7.1c2.1,0,3.8,1.7,3.8,3.8c0,2.1-1.7,3.8-3.8,3.8h-7.1c-2.1,0-3.8-1.7-3.8-3.8
		C65.4,104.2,67.2,102.4,69.2,102.4L69.2,102.4z M54.2,26.5c0.5,0,1,0,1.4,0c0.1,0,0.2,0,0.3,0c0,0,0,0,0,0c0.1,1.2,0.4,2.4,0.8,3.6
		c1.3,3.8,3.7,7,6.3,10.1c0.2,0.2,0.4,0.4,0.6,0.7c0.6,0.8,1.4,1.4,2.1,2.1c1,1,2.1,2,3.2,3c0.1,0.1,0.2,0.2,0.3,0.3
		c3.6,3.1,7.6,6,11.7,8.3c0.6,0.3,1.2,0.7,1.7,1l1.7,0.9c1.2,0.7,2.4,1.2,3.6,1.8c0.3,0.1,0.6,0.3,0.9,0.4c0.3,0.1,0.6,0.3,1,0.4
		c1.9,0.8,3.9,1.5,5.9,2.1c0.7,0.2,1.4,0.4,2.1,0.6c1.5,0.4,3.1,0.7,4.7,0.8c0.4,0,0.9,0.1,1.3,0.1c0,0.1,0,0.2,0,0.3
		c0,0.5,0,1,0,1.5c-0.6,0-1.2-0.1-1.8-0.1H101v1.1c0,2.3,0,4.6-0.1,6.9c-0.2,2.3-0.5,4.4-1.1,6.6c-0.7,2.7-1.8,5.3-3,7.9l-0.9,1.6
		c-0.9,1.6-2,3.1-3.2,4.5c-0.1,0.1-0.2,0.2-0.2,0.3c-0.5,0.5-2,2.1-2.9,2.8c-0.2-0.3-0.4-0.5-0.5-0.7c-0.1-0.2-0.4-0.4-0.6-0.7
		c0.3-0.2,0.5-0.4,0.7-0.6l0,0l3.7-4.1l0-0.1c3.1-4.5,5.2-9.6,6-15.1c0.4-3.3,0.3-6.7,0.3-10v-0.9l-0.8-0.2c-2.2-0.5-4.3-1.2-6.4-2
		c-1-0.4-2-0.8-3-1.2c-1.9-0.8-3.8-1.7-5.7-2.7c-0.2-0.1-0.5-0.3-0.7-0.4l-2-1.1c-1.8-1-3.5-2.1-5.2-3.2c-2.1-1.4-4.1-2.9-6.1-4.5
		L67,46.5c-1.2-1.1-2.7-2.2-3.7-3.5c-0.2-0.2-0.3-0.4-0.6-0.6c-1.3-1.3-3.7-4-4.5-5.6l-0.5-1l-1,0.5c-1.1,0.6-2.1,1.3-3.1,2.1l0,0
		l-3,2.9c-1.6,1.6-3.5,4.4-4.7,6.4c-0.8,1.3-1.5,2.7-2.1,4.1c-0.1,0.3-0.2,0.5-0.3,0.8c-1,2.6-1.9,5.2-1.9,8v10.6
		c0,6.8,4,15.1,8.7,19.9c0.2,0.2,0.4,0.5,0.7,0.8c0.7,0.7,1.4,1.4,2.2,2c0.3,0.2,0.5,0.4,0.8,0.6c0.9,0.7,3.5,2.6,5.3,3.4
		c-0.2,0.3-0.3,0.6-0.4,0.8c-0.1,0.3-0.2,0.6-0.4,0.8c-1.5-0.7-4-2.4-4.9-3c-0.7-0.5-1.4-1-2-1.6c-0.2-0.1-0.3-0.3-0.5-0.4L49.7,93
		c-0.7-0.8-1.5-1.6-2.1-2.4c-1.3-1.7-2.7-3.5-3.7-5.4c-2.3-4.5-4-9.1-4-14.2v-10c0-6.5,3.9-14.1,7.9-19c1.1-1.3,2.2-2.6,3.4-3.8
		l0.7-0.6l0,0c0.5-0.5,2.8-2.3,3.4-2.5l0.9-0.2l-0.1-0.9c0-0.4-0.3-0.9-0.5-1.3c-0.3-0.6-0.5-1.1-0.7-1.7
		C54.6,29.4,54.2,28,54.2,26.5z"/>
	<g class="st0">
		<path class="st1" d="M53.3,42.8c8.9,0,16.1-7.2,16.1-16.1c0-8.9-7.2-16.1-16.1-16.1c-8.9,0-16.1,7.2-16.1,16.1
			C37.3,35.6,44.5,42.8,53.3,42.8L53.3,42.8z M53.3,12.6c7.8,0,14.1,6.3,14.1,14.1c0,7.8-6.3,14.1-14.1,14.1
			c-7.8,0-14.1-6.3-14.1-14.1C39.2,18.9,45.5,12.6,53.3,12.6z"/>
		<path class="st1" d="M59.5,57.9c-0.5,0-1,0.4-1,1v41.9c0,2.8-2.3,5.2-5.2,5.2c-2.8,0-5.2-2.3-5.2-5.2V58.8c0-0.5-0.4-1-1-1
			c-0.5,0-1,0.4-1,1v41.9c0,3.9,3.2,7.1,7.1,7.1s7.1-3.2,7.1-7.1V58.8C60.4,58.3,60,57.9,59.5,57.9z"/>
		<path class="st1" d="M117.5,69.6H70.4v-7.1c0-9.2-7.5-16.7-16.7-16.7H53c-9.2,0-16.7,7.5-16.7,16.7v7.1h-15c-0.5,0-1,0.4-1,1
			c0,0.5,0.4,1,1,1h15v7.4c0,0.5,0.4,1,1,1c0.5,0,1-0.4,1-1V62.5c0-8.2,6.6-14.8,14.8-14.8h0.6c8.2,0,14.8,6.6,14.8,14.8v16.5
			c0,0.5,0.4,1,1,1c0.5,0,1-0.4,1-1v-7.4h47.1c0.5,0,1-0.4,1-1C118.5,70.1,118.1,69.6,117.5,69.6z"/>
		<path class="st1" d="M93.5,42.8c8.9,0,16.1-7.2,16.1-16.1c0-8.9-7.2-16.1-16.1-16.1c-8.9,0-16.1,7.2-16.1,16.1
			C77.4,35.6,84.6,42.8,93.5,42.8L93.5,42.8z M93.5,12.6c7.8,0,14.1,6.3,14.1,14.1c0,7.8-6.3,14.1-14.1,14.1
			c-7.8,0-14.1-6.3-14.1-14.1C79.3,18.9,85.7,12.6,93.5,12.6z"/>
		<path class="st1" d="M77.4,67c0.5,0,1-0.4,1-1v-3.6c0-8.2,6.6-14.8,14.8-14.8h0.6c8.2,0,14.8,6.6,14.8,14.8v3.6c0,0.5,0.4,1,1,1
			c0.5,0,1-0.4,1-1v-3.6c0-9.2-7.5-16.7-16.7-16.7h-0.6c-9.2,0-16.7,7.5-16.7,16.7v3.6C76.4,66.6,76.9,67,77.4,67z"/>
	</g>
	<path class="st2" d="M84,91.2c-0.8-0.4-1.6-1.1-2.2-1.8l-0.1-0.1l-0.1-0.1c0,0-0.1-0.1-0.1-0.1c-0.1-0.1-0.1-0.1-0.2-0.2H32.8
		c-5.2,0-9.4-4.2-9.4-9.4V22.3c0-5.2,4.2-9.4,9.4-9.4h72.5c5.2,0,9.4,4.2,9.4,9.4v34.1c0.4,0.3,0.8,0.6,1.2,1
		c0.3,0.3,0.6,0.7,0.9,1.1V22.3c0-6.3-5.1-11.6-11.5-11.6H32.8c-6.3,0-11.5,5.1-11.5,11.5v57.6c0,6.3,5.1,11.5,11.5,11.5H84L84,91.2
		z M45.2,29.5v-1.9H94v1.9H45.2L45.2,29.5z M45.2,45.3v-1.9H65v1.9H45.2L45.2,45.3z M106.5,93.4l-1.3-0.1l-0.8,0.6v8.9l-2.5,1.7
		l-0.1,0c-0.3,0.1-0.5,0.3-0.8,0.5l-0.5,0.3l-0.2,0.2h-0.2l-0.3,0.3c-0.3,0.2-0.6,0.4-1,0.4h-0.3l-4.3-3h-0.9V95l-2.2-2.1v9.4
		c0,0.3,0,0.5,0,0.8c0.1,0.9,0.7,1.2,1.4,1.7l4,2.7l0,0c0.6,0.5,1.5,0.9,2.3,0.9c0.8,0,1.4-0.1,2-0.6l0.1-0.1l0.2-0.1
		c0.3-0.1,0.5-0.4,0.8-0.6l0.1-0.1l0.5-0.2c0.1-0.1,0.4-0.2,0.6-0.3l0.1-0.1l2.3-1.5c0.5-0.5,1-0.8,1.1-1.6c0-0.2,0-0.4,0-0.6V93.4
		L106.5,93.4z M43,70.6c0.2,2.6-1,5-3.7,5.4c-0.1,0-0.3,0-0.4,0c-0.5,0-1-0.1-1.5-0.3c-0.3-0.1-0.7-0.6-0.5-1l0,0l0,0
		c0.2-0.5,0.5-0.7,1-0.6c1,0.2,1.7-0.1,2.4-0.8c0.8-0.8,1-2,0.8-3.1c-0.2-1-0.4-2.1-0.7-3.1l-0.1-0.4c-0.3-1.4-0.8-2.8-0.8-4.3
		c0-2.3,1.4-4.2,3.7-4.8l0.1,0l0.1,0c0.1-0.1,0.5-0.1,0.7-0.1c2,0,4,1.6,4.4,3.6c0.1,1.1,0,2.2-0.2,3.3l0,0.1v0.1
		c0,0.4-0.1,0.9-0.2,1.4c-0.2,0.9,0,1.7,0.2,2.6c0.1,0.6,0.7,1.2,1.3,1.2c0.8,0,1.2-0.4,1.4-1.1l0.1-0.3c0.2-0.3,0.2-0.7,0.3-1l0,0
		l0,0c0.5-1.1,1.3-1.7,2.5-1.7c1.2,0,2.1,0.5,2.6,1.5c0,0.2,0.1,0.3,0.1,0.5v0c0,0.1,0,0.1,0,0.2v1h1c0.5,0,1-0.2,1.4-0.5
		c0.3-0.1,0.4-0.2,0.7-0.3c1.2-0.5,2.2-0.3,3.2,0.4c1.5,1.5,3.6,1.9,5.6,2c0.8,0.2,1.7,0.2,2.5,0.2c0.4,0,0.9,0,1.3,0
		c0.9,0,1.3,0.7,1.6,1.4c-0.1,0.5-0.6,0.6-1.1,0.6h-1.1c-2.4,0-4.9-0.2-7.1-1.2l0,0l0,0c-0.7-0.3-1.4-0.8-2-1.2
		c-0.5-0.5-1-0.6-1.7-0.3l-0.6,0.2l-0.1,0.1c-0.4,0.3-0.8,0.4-1.2,0.5c-0.4,0.1-0.6,0.1-1,0.1c-1.2,0-1.9-0.7-2.3-1.8l-0.1-0.2l0,0
		v-0.2l-0.2-0.2v-0.8h-2v0.9c-0.1,0.2-0.1,0.3-0.2,0.5c-0.1,0.1-0.1,0.3-0.1,0.4c-0.5,1.2-1.6,2-2.9,2c-1.4,0-2.6-0.8-3.1-2.1
		c-0.5-1.3-0.5-2.7-0.3-4.1l0-0.1v-0.2c0.2-0.8,0.3-1.7,0.3-2.6c0-1.6-1-3-2.7-3c-0.7,0-1.5,0.3-2,0.8c-0.5,0.5-0.8,1.3-0.8,2
		c0,0.9,0.2,1.9,0.3,2.8l0,0l0.1,0.6c0,0.7,0.2,1.2,0.4,1.8C42.7,68.6,42.8,69.6,43,70.6L43,70.6z M96.3,91.1l-3.6-3.9L87.4,87l0,0
		c-1.6,0-2.8-1.4-2.8-2.9l0.2-5.3L81.1,75c-1.1-1.1-0.9-2.9,0.2-4l3.9-3.7l0.2-5.2l0,0c0-1.5,1.3-2.8,2.8-2.8l5.5,0.2l3.8-3.6
		c1.1-1,2.9-0.9,4,0.1l3.7,3.9l5.2,0.2l0,0c1.6,0,2.8,1.4,2.8,2.9l-0.2,5.3l3.6,3.8c1.1,1.1,0.9,2.9-0.2,4l-3.9,3.7l-0.2,5.2l0,0
		c0,1.5-1.3,2.8-2.8,2.8l-5.5-0.2l-3.8,3.6c-0.5,0.5-1.2,0.7-1.9,0.7C97.6,91.9,96.7,91.5,96.3,91.1L96.3,91.1z M111.5,69.9l4.1,4.1
		l-4.3,4.1c-0.5,0.5-0.9,1.2-0.9,1.9v5.8l-6.1-0.2c-0.7,0-1.4,0.2-1.9,0.7l-4.2,4l-4-4.2c-0.5-0.5-1.2-0.9-1.9-0.9h-5.8l0.2-6l0-0.1
		c0.1-0.8-0.3-1.4-0.7-2l-4.1-4.1l4.3-4.1c0.5-0.5,0.9-1.2,0.9-1.9v-5.8l5.9,0.2c0.7,0,1.4-0.2,1.9-0.7l4.2-4.2l4.1,4.3
		c0.5,0.5,1.2,0.9,1.9,0.9h5.8l-0.2,6l0,0.1C110.7,68.7,111.1,69.3,111.5,69.9z"/>
	<g>
		<path class="st3" d="M42.3,8.7c-0.6,0-1.1,0.5-1.1,1.1v13.3c-3.1,0.5-5.5,3.2-5.5,6.5c0,3.6,3,6.6,6.6,6.6c3.6,0,6.6-3,6.6-6.6
			c0-3.3-2.4-6-5.5-6.5V9.8C43.4,9.1,42.9,8.7,42.3,8.7L42.3,8.7z M84.2,8.7c-0.6,0-1.1,0.5-1.1,1.1v13.3c-3.1,0.5-5.5,3.2-5.5,6.5
			c0,3.6,3,6.6,6.6,6.6c3.6,0,6.6-3,6.6-6.6c0-3.3-2.4-6-5.5-6.5V9.8C85.3,9.1,84.8,8.7,84.2,8.7L84.2,8.7z M29.1,15.3h6.6
			c0.6,0,1.1,0.5,1.1,1.1c0,0.6-0.5,1.1-1.1,1.1h-6.6c-4.3,0-7.8,3.4-7.8,7.8v16.5h83.9V25.2c0-4.3-3.4-7.8-7.8-7.8h-6.6
			c-0.6,0-1.1-0.5-1.1-1.1c0-0.6,0.5-1.1,1.1-1.1h6.6c5.5,0,10,4.5,10,10V78c6.4,2.3,11,8.4,11,15.6c0,9.1-7.4,16.6-16.6,16.6
			c-6.3,0-11.8-3.6-14.6-8.8H29.1c-5.5,0-10-4.5-10-10V25.2C19.1,19.7,23.6,15.3,29.1,15.3L29.1,15.3z M48.9,15.3h28.7
			c0.6,0,1.1,0.5,1.1,1.1c0,0.6-0.5,1.1-1.1,1.1H48.9c-0.6,0-1.1-0.5-1.1-1.1C47.8,15.8,48.3,15.3,48.9,15.3L48.9,15.3z M42.3,25.2
			c2.5,0,4.4,2,4.4,4.4c0,2.5-2,4.4-4.4,4.4c-2.5,0-4.4-2-4.4-4.4C37.9,27.2,39.8,25.2,42.3,25.2L42.3,25.2z M84.2,25.2
			c2.5,0,4.4,2,4.4,4.4c0,2.5-2,4.4-4.4,4.4c-2.5,0-4.4-2-4.4-4.4C79.8,27.2,81.7,25.2,84.2,25.2L84.2,25.2z M21.3,44v47.4
			c0,4.3,3.4,7.8,7.8,7.8h57.2c-0.6-1.7-1-3.6-1-5.5c0-9.1,7.4-16.6,16.6-16.6c1.1,0,2.2,0.1,3.3,0.3V44H21.3L21.3,44z M101.9,79.3
			c-7.9,0-14.3,6.4-14.3,14.3c0,7.9,6.4,14.3,14.3,14.3c7.9,0,14.3-6.4,14.3-14.3C116.2,85.7,109.8,79.3,101.9,79.3L101.9,79.3z
			 M109.4,88.1c-0.3,0-0.5,0.2-0.7,0.4l-8.2,10.2l-6.9-4.9c-0.5-0.3-1.2-0.2-1.6,0.2c-0.3,0.5-0.2,1.2,0.2,1.6l7.7,5.5
			c0.5,0.3,1.2,0.2,1.5-0.2l8.8-11c0.3-0.5,0.4-1.1-0.2-1.6C109.9,88.1,109.6,88.1,109.4,88.1z"/>
	</g>
</g>
</svg>
