<?xml version="1.0" encoding="utf-8"?>
<!-- Generator: Adobe Illustrator 22.1.0, SVG Export Plug-In . SVG Version: 6.00 Build 0)  -->
<svg version="1.1" id="Inovação" xmlns="http://www.w3.org/2000/svg" xmlns:xlink="http://www.w3.org/1999/xlink" x="0px" y="0px"
	 viewBox="0 0 200 200" style="enable-background:new 0 0 200 200;" xml:space="preserve">
<style type="text/css">
	.st0{fill:none;stroke:#335266;stroke-miterlimit:10;}
	.st1{fill:none;stroke:#335266;stroke-linecap:round;stroke-miterlimit:10;}
</style>
<g>
	<line class="st0" x1="93.4" y1="147.9" x2="108" y2="147.9"/>
	<g>
		<line class="st0" x1="90" y1="132.9" x2="110.3" y2="132.9"/>
		<path class="st0" d="M131.3,94.5c0-17.1-13.9-31-31-31c-17.1,0-31,13.9-31,31c0,13,8.1,24.6,20.3,29.1v22.9c0,0.8,0.6,1.4,1.4,1.4
			c0,0,0,0,0,0h2.1v4.8c0,0.8,0.6,1.4,1.4,1.4c0,0,0,0,0,0h11.6c0.8,0,1.4-0.6,1.4-1.4c0,0,0,0,0,0v-4.8h2.1c0.8,0,1.4-0.6,1.4-1.4
			c0,0,0,0,0,0v-22.9C123.2,119,131.3,107.4,131.3,94.5z"/>
		<path class="st1" d="M98.8,45.3v10.3"/>
		<path class="st1" d="M149.9,93.4h-10.3"/>
		<path class="st1" d="M61,93.4C61,93.4,61,93.4,61,93.4H50.7"/>
		<path class="st1" d="M64.2,60.8l7.3,7.3"/>
		<path class="st1" d="M134.3,58.8C134.3,58.8,134.3,58.8,134.3,58.8l-7.4,7.3"/>
	</g>
</g>
</svg>
