<?xml version="1.0" encoding="utf-8"?>
<!-- Generator: Adobe Illustrator 22.1.0, SVG Export Plug-In . SVG Version: 6.00 Build 0)  -->
<svg version="1.1" id="Play" xmlns="http://www.w3.org/2000/svg" xmlns:xlink="http://www.w3.org/1999/xlink" x="0px" y="0px"
	 viewBox="0 0 200 200" style="enable-background:new 0 0 200 200;" xml:space="preserve">
<style type="text/css">
	.st0{fill:#070308;}
	.st1{fill:none;stroke:#070308;stroke-miterlimit:10;}
</style>
<g>
	<g>
		<g id="circle_18_">
			<g>
				<path class="st0" d="M99.3,43.6c-30.4,0-55,24.6-55,55c0,30.4,24.6,55,55,55s55-24.6,55-55C154.3,68.2,129.6,43.6,99.3,43.6z
					 M99.3,152.5c-29.8,0-53.9-24.1-53.9-53.9c0-29.8,24.1-53.9,53.9-53.9s53.9,24.1,53.9,53.9C153.1,128.3,129,152.5,99.3,152.5z"
					/>
			</g>
		</g>
		<path class="st1" d="M113.7,96l-19-12.5c-1-0.6-2.2-0.7-3.2-0.2c-1,0.5-1.7,1.6-1.7,2.8v25c0,1.2,0.6,2.2,1.7,2.8
			c1,0.5,2.3,0.5,3.2-0.2l19-12.5c0.9-0.6,1.4-1.6,1.4-2.6C115.1,97.5,114.5,96.6,113.7,96z"/>
	</g>
</g>
</svg>
