<?xml version="1.0" encoding="utf-8"?>
<!-- Generator: Adobe Illustrator 22.1.0, SVG Export Plug-In . SVG Version: 6.00 Build 0)  -->
<svg version="1.1" xmlns="http://www.w3.org/2000/svg" xmlns:xlink="http://www.w3.org/1999/xlink" x="0px" y="0px"
	 viewBox="0 0 200 200" style="enable-background:new 0 0 200 200;" xml:space="preserve">
<style type="text/css">
	.st0{display:none;}
	.st1{display:inline;}
	.st2{fill:none;stroke:#ffffff;stroke-miterlimit:10;}
	.st3{fill:#ffffff;}
	.st4{fill:none;stroke:#ffffff;stroke-miterlimit:10;}
	.st5{fill:none;stroke:#ffffff;stroke-linecap:round;stroke-miterlimit:10;}
	.st6{fill:none;stroke:#ffffff;stroke-miterlimit:10;}
	.st7{fill:none;stroke:#ffffff;stroke-width:0.75;stroke-linecap:round;stroke-miterlimit:10;}
</style>
<g id="diamante" class="st0">
	<g class="st1">
		<g>
			<line class="st2" x1="96.3" y1="99.5" x2="96.3" y2="63.3"/>
		</g>
		<g>
			<path class="st2" d="M96.3,59.4v-7.1h1.5c25.9,0,47,21.8,47,48.7s-21.1,48.7-47,48.7s-47-21.8-47-48.7c0-9.8,2.8-19.2,8-27.2"/>
		</g>
	</g>
</g>
<g id="diamante2" class="st0">
	<g class="st1">
		<g>
			<g>
				<g id="circle_2_">
					<g>
						<path class="st3" d="M96.7,52.5c-26.6,0-48.1,21.6-48.1,48.1c0,26.6,21.6,48.1,48.1,48.1s48.1-21.6,48.1-48.1
							C144.8,74,123.2,52.5,96.7,52.5z M96.7,147.8c-26,0-47.1-21.1-47.1-47.1c0-26,21.1-47.1,47.1-47.1s47.1,21.1,47.1,47.1
							C143.8,126.6,122.7,147.8,96.7,147.8z"/>
					</g>
				</g>
			</g>
		</g>
	</g>
	<g class="st1">
		<path class="st4" d="M96.7,93.8c3.3,0,6-2.7,6-6c0-3.3-2.7-6-6-6c-3.3,0-6,2.7-6,6C90.7,91.1,93.4,93.8,96.7,93.8z"/>
		<path class="st4" d="M96.5,118.5l13.1-19c4.9-6.6,4.2-17.4-1.5-23.1c-3.1-3.1-7.2-4.8-11.6-4.8s-8.5,1.7-11.6,4.8
			c-5.7,5.7-6.5,16.6-1.5,23.1L96.5,118.5z"/>
		<path class="st5" d="M106.8,110.1c9,1.1,13.8,3.9,13.8,5.6c0,2.3-9.1,5.6-24,5.6s-24-3.2-24-5.6c0-1.7,4.8-4.5,13.8-5.6"/>
	</g>
</g>
<g id="diamante3">
	<g>
		<path class="st6" d="M57.1,99.4l40.1,47.6l40.1-47.6l-14.7-19.5H71.8L57.1,99.4z"/>
		<path class="st6" d="M57.1,99.4h80.2"/>
		<path class="st6" d="M97.4,146.5l14.3-47.4"/>
		<path class="st6" d="M97.4,146.5L80.3,99.9"/>
		<path class="st6" d="M71.8,79.9l8.5,20"/>
		<path class="st6" d="M80.3,99.9l13.5-20"/>
		<path class="st6" d="M98.3,79.4"/>
		<path class="st6" d="M99.8,79.9l11.8,19.2"/>
		<path class="st6" d="M111.7,98.9l11-19"/>
		<path class="st6" d="M112.9,100.8"/>
	</g>
	<g>
		<path class="st7" d="M97.8,57.5L97,76.4"/>
	</g>
	<g>
		<path class="st7" d="M142.3,63.7l-14,12.7"/>
	</g>
	<g>
		<path class="st7" d="M51.8,65.4l15.3,11"/>
	</g>
</g>
</svg>
