<?xml version="1.0" encoding="utf-8"?>
<!-- Generator: Adobe Illustrator 22.1.0, SVG Export Plug-In . SVG Version: 6.00 Build 0)  -->
<svg version="1.1" id="Chat" xmlns="http://www.w3.org/2000/svg" xmlns:xlink="http://www.w3.org/1999/xlink" x="0px" y="0px"
	 viewBox="0 0 200 200" style="enable-background:new 0 0 200 200;" xml:space="preserve">
<style type="text/css">
	.st0{fill:#070308;}
</style>
<g>
	<g>
		<path class="st0" d="M108.7,55.2c-20.8,0-37.9,13.1-39,29.4C57.6,88.5,49.5,98,49.5,108.5c0.2,7.7,4.2,14.9,10.7,19.2v16.5
			c0,0.8,0.7,1.5,1.5,1.5c0.4,0,0.7-0.1,1-0.4l12.6-11.5c2.2,0.4,4.4,0.5,6.6,0.5c13.7,0,25.8-6.8,30.4-17.1
			c1.5-0.1,3.1-0.3,4.6-0.5l15.5,14.2c0.6,0.6,1.5,0.5,2.1-0.1c0.3-0.3,0.4-0.6,0.4-1v-20.3c8.3-5.9,13.1-14.3,13.1-23.2
			C147.8,69.1,130.3,55.2,108.7,55.2z M82.4,133.5c-2.4,0-4.4-0.1-6.8-0.5c-0.5-0.1-0.5-0.1-0.9,0.2c0,0-9.2,8.6-12.1,11.5
			c-0.2,0.2-0.5,0.6-1.3,0.3c-0.5-0.2-0.5-0.5-0.5-0.8c0.1-4.1,0.2-16.5,0.2-16.5c0-0.5-0.2-0.7-0.6-1c-6.9-4.6-9.9-11.7-9.9-18.7
			c0-9.6,8.2-19,19.3-22.9c0.1,1.4,0,3.4,0.3,4.9c1.4,6.4,4.9,12,9.6,16.4c3.2,2.6,12.3,11,31.9,10.7
			C106.7,126.3,95.2,133.5,82.4,133.5z M134.7,108.2c-0.4,0.3-0.7,0.8-0.7,1.3c0,0,0.5,19.8,0.1,20.6c-0.1,0.1-0.1,0.3-0.4,0.4
			c-0.3,0-0.6-0.1-0.8-0.3c-3-2.6-15.2-13.8-15.2-13.8c-0.3-0.3-0.7-0.4-1.1-0.4h-0.3c-3.1,0.4-4.5,0.4-7.3,0.4
			c-15,0-24-6.7-28.4-10.4c-4.5-3.9-7.8-8.9-9.5-14.6c-0.4-1.7-0.6-3.4-0.6-5.1c0.1-16,17.2-30,38.3-30c21,0,38.1,14,38.1,30.1
			C146.8,94.6,143,102.6,134.7,108.2z"/>
	</g>
</g>
</svg>
