<svg id="Layer_1" data-name="Layer 1" xmlns="http://www.w3.org/2000/svg" viewBox="0 0 150.13 44.29"><defs><style>.cls-1{fill:#fff;}</style></defs><title>logo-faculdade-casper-libero</title><path class="cls-1" d="M114.45,45.79a.12.12,0,0,0-.07.08.15.15,0,0,0,0,.12l.1.11a.14.14,0,0,0,.09,0,.27.27,0,0,0,.14,0l2.54-1.45s.08,0,.08-.09a.21.21,0,0,0,0-.13l-.14-.16a.2.2,0,0,0-.14-.07.31.31,0,0,0-.18,0Z" transform="translate(-18.47 -18.9)"/><path class="cls-1" d="M167.16,57.77a4.83,4.83,0,0,1-.57,2.42,3.67,3.67,0,0,1-1.65,1.53,6.1,6.1,0,0,1-2.66.53,6.23,6.23,0,0,1-2.69-.53,3.69,3.69,0,0,1-1.66-1.53,4.83,4.83,0,0,1-.57-2.42V52.42a4.83,4.83,0,0,1,.57-2.42,3.67,3.67,0,0,1,1.66-1.53,6.23,6.23,0,0,1,2.69-.53,6.1,6.1,0,0,1,2.66.53A3.65,3.65,0,0,1,166.59,50a4.83,4.83,0,0,1,.57,2.42v5.35Zm-10.79,0a5.88,5.88,0,0,0,.69,2.92,4.54,4.54,0,0,0,2,1.85,7.31,7.31,0,0,0,3.22.65,7.24,7.24,0,0,0,3.2-.65,4.51,4.51,0,0,0,2-1.85,5.92,5.92,0,0,0,.68-2.92V52.42a5.92,5.92,0,0,0-.68-2.92,4.54,4.54,0,0,0-2-1.85,7.29,7.29,0,0,0-3.2-.65,7.36,7.36,0,0,0-3.22.65,4.57,4.57,0,0,0-2,1.85,5.88,5.88,0,0,0-.69,2.92Z" transform="translate(-18.47 -18.9)"/><path class="cls-1" d="M153.59,51.7a3.83,3.83,0,0,1-.42,1.85A2.75,2.75,0,0,1,152,54.7a4.16,4.16,0,0,1-1.89.4h-5.46V48.25h5.46a4.07,4.07,0,0,1,1.89.41,2.77,2.77,0,0,1,1.2,1.17,3.91,3.91,0,0,1,.42,1.87Zm-9.7-4.39a.25.25,0,0,0-.29.29v15a.25.25,0,0,0,.29.29h.46a.25.25,0,0,0,.2-.07.3.3,0,0,0,.07-.22V56h3.62a4.56,4.56,0,0,1,1.5.21,2.73,2.73,0,0,1,1.07.67,4.74,4.74,0,0,1,.83,1.2l2.28,4.52a.36.36,0,0,0,.19.18.89.89,0,0,0,.35.06h.42c.12,0,.19,0,.22-.07s0-.12-.06-.22l-2.46-4.87a4.84,4.84,0,0,0-.81-1.12,3.17,3.17,0,0,0-1-.68,4.66,4.66,0,0,0,2.07-.64,3.56,3.56,0,0,0,1.33-1.44,4.76,4.76,0,0,0,.47-2.15,5,5,0,0,0-.53-2.38,3.55,3.55,0,0,0-1.52-1.49,5.21,5.21,0,0,0-2.4-.52Z" transform="translate(-18.47 -18.9)"/><path class="cls-1" d="M132.19,47.31a.25.25,0,0,0-.29.29v15a.25.25,0,0,0,.29.29h9.26a.25.25,0,0,0,.29-.29v-.39a.26.26,0,0,0-.07-.2.3.3,0,0,0-.22-.07h-8.53V55.47h7.28a.26.26,0,0,0,.2-.07.3.3,0,0,0,.07-.22v-.39a.23.23,0,0,0-.26-.26h-7.28V48.25h8.23a.3.3,0,0,0,.22-.07.26.26,0,0,0,.07-.2v-.39a.25.25,0,0,0-.29-.29Z" transform="translate(-18.47 -18.9)"/><path class="cls-1" d="M128.59,58.65a3.29,3.29,0,0,1-.86,2.44,3.43,3.43,0,0,1-2.49.85h-5.75V55.4h5.75a3.47,3.47,0,0,1,2.49.83,3.22,3.22,0,0,1,.86,2.41Zm-.5-7.31a3.12,3.12,0,0,1-.84,2.35,3.31,3.31,0,0,1-2.37.79h-5.4V48.25h5.4a3.33,3.33,0,0,1,2.38.79,3.06,3.06,0,0,1,.82,2.3Zm-9.32-4a.25.25,0,0,0-.29.29v15a.25.25,0,0,0,.29.29h6.52a5.23,5.23,0,0,0,2.34-.49,3.44,3.44,0,0,0,1.5-1.41,4.55,4.55,0,0,0,.53-2.24,4.27,4.27,0,0,0-.71-2.59,3.41,3.41,0,0,0-2.1-1.27v0a3.27,3.27,0,0,0,1.71-1.31,4.16,4.16,0,0,0,.57-2.29,4.49,4.49,0,0,0-.48-2.15,3.15,3.15,0,0,0-1.4-1.32,5.07,5.07,0,0,0-2.24-.45Z" transform="translate(-18.47 -18.9)"/><path class="cls-1" d="M114.65,62.6a.25.25,0,0,0,.29.29h.46a.26.26,0,0,0,.2-.07.3.3,0,0,0,.07-.22v-15a.3.3,0,0,0-.07-.22.26.26,0,0,0-.2-.07h-.46a.25.25,0,0,0-.29.29Z" transform="translate(-18.47 -18.9)"/><path class="cls-1" d="M104.39,47.31a.25.25,0,0,0-.29.29v15a.25.25,0,0,0,.29.29h8.71a.26.26,0,0,0,.2-.07.3.3,0,0,0,.07-.22v-.39a.23.23,0,0,0-.26-.26h-8V47.59a.3.3,0,0,0-.07-.22.25.25,0,0,0-.2-.07Z" transform="translate(-18.47 -18.9)"/><path class="cls-1" d="M93.09,51.7a3.83,3.83,0,0,1-.42,1.85,2.75,2.75,0,0,1-1.2,1.16,4.16,4.16,0,0,1-1.89.4H84.12V48.25h5.46a4.07,4.07,0,0,1,1.89.41,2.76,2.76,0,0,1,1.2,1.17,3.91,3.91,0,0,1,.42,1.87Zm-9.7-4.39a.25.25,0,0,0-.29.29v15a.25.25,0,0,0,.29.29h.46a.25.25,0,0,0,.2-.07.3.3,0,0,0,.07-.22V56h3.62a4.56,4.56,0,0,1,1.5.21,2.73,2.73,0,0,1,1.07.67,4.74,4.74,0,0,1,.83,1.2l2.28,4.52a.36.36,0,0,0,.19.18.89.89,0,0,0,.35.06h.42c.12,0,.19,0,.22-.07s0-.12-.06-.22l-2.46-4.87a4.85,4.85,0,0,0-.81-1.12,3.17,3.17,0,0,0-1-.68,4.66,4.66,0,0,0,2.07-.64,3.56,3.56,0,0,0,1.33-1.44,4.76,4.76,0,0,0,.47-2.15,5,5,0,0,0-.53-2.38,3.56,3.56,0,0,0-1.53-1.49,5.21,5.21,0,0,0-2.4-.52Z" transform="translate(-18.47 -18.9)"/><path class="cls-1" d="M71.75,47.31a.25.25,0,0,0-.29.29v15a.25.25,0,0,0,.29.29H81a.25.25,0,0,0,.29-.29v-.39a.26.26,0,0,0-.07-.2.3.3,0,0,0-.22-.07H72.48V55.47h7.28a.25.25,0,0,0,.2-.07.3.3,0,0,0,.07-.22v-.39a.23.23,0,0,0-.26-.26H72.48V48.25H80.7a.3.3,0,0,0,.22-.07A.26.26,0,0,0,81,48v-.39a.25.25,0,0,0-.29-.29Z" transform="translate(-18.47 -18.9)"/><path class="cls-1" d="M59.62,55.89V48.25h5.09a4.4,4.4,0,0,1,2.07.46A3.2,3.2,0,0,1,68.12,50a4.25,4.25,0,0,1,.48,2.06,4.17,4.17,0,0,1-.48,2,3.19,3.19,0,0,1-1.34,1.3,4.49,4.49,0,0,1-2.07.46Zm-.72-8.58a.25.25,0,0,0-.29.29v15a.25.25,0,0,0,.29.29h.46a.25.25,0,0,0,.2-.07.3.3,0,0,0,.07-.22V56.83H64.8a5.59,5.59,0,0,0,2.59-.57,4,4,0,0,0,1.67-1.62,5.22,5.22,0,0,0,.59-2.54,5.31,5.31,0,0,0-.59-2.57,4,4,0,0,0-1.67-1.64,5.54,5.54,0,0,0-2.59-.58Z" transform="translate(-18.47 -18.9)"/><path class="cls-1" d="M44.88,51.37a4.09,4.09,0,0,0,.25,1.48,3.08,3.08,0,0,0,.65,1,4.73,4.73,0,0,0,.92.73,2.77,2.77,0,0,0,.54.26,5,5,0,0,0,.69.2l.68.16.61.12.63.1.76.1.79.1.64.1.58.12.64.18a3.2,3.2,0,0,1,1.09.53,2.15,2.15,0,0,1,.66.87,3.81,3.81,0,0,1,.27,1.29,3,3,0,0,1-1.2,2.6,6.07,6.07,0,0,1-3.58.87,5.44,5.44,0,0,1-3-.81A5.28,5.28,0,0,1,45.54,59a.39.39,0,0,0-.16-.18.25.25,0,0,0-.21,0l-.42.15a.27.27,0,0,0-.17.15.38.38,0,0,0,0,.24,6.79,6.79,0,0,0,1.32,2.16,4.94,4.94,0,0,0,1.93,1.27,7.75,7.75,0,0,0,2.65.41,8.57,8.57,0,0,0,3.18-.52,4.06,4.06,0,0,0,2-1.51,4.33,4.33,0,0,0,.66-2.44,4.65,4.65,0,0,0-.15-1.19,3.69,3.69,0,0,0-.4-1,2.92,2.92,0,0,0-.56-.69,3,3,0,0,0-.56-.38,5.78,5.78,0,0,0-.73-.32L53.13,55l-.69-.16-.74-.11-.88-.11c-.39,0-.75-.07-1-.12s-.59-.1-.86-.16-.56-.15-.87-.25a3.77,3.77,0,0,1-1.14-.56,2.39,2.39,0,0,1-.75-.88,3.34,3.34,0,0,1,.27-3.1A3.31,3.31,0,0,1,48,48.36,6.65,6.65,0,0,1,50.38,48a6.57,6.57,0,0,1,2.11.3,4.15,4.15,0,0,1,1.56.94,5.77,5.77,0,0,1,1.15,1.63.32.32,0,0,0,.15.15.26.26,0,0,0,.2,0l.44-.2a.22.22,0,0,0,.13-.37,6.64,6.64,0,0,0-1.36-1.93,4.92,4.92,0,0,0-1.86-1.11A7.93,7.93,0,0,0,50.38,47a7.62,7.62,0,0,0-3,.53A4.2,4.2,0,0,0,45.54,49,4.14,4.14,0,0,0,44.88,51.37Z" transform="translate(-18.47 -18.9)"/><path class="cls-1" d="M40.68,56.94H34l3.12-7.79a3.57,3.57,0,0,0,.13-.49,2.23,2.23,0,0,0,0-.45h.07l.14.61a3.15,3.15,0,0,0,.08.33l3.12,7.79Zm-2.74-9.48a.42.42,0,0,0-.14-.2.4.4,0,0,0-.24-.07h-.44a.38.38,0,0,0-.23.07.39.39,0,0,0-.15.2L30.68,62.62q-.1.26.2.26h.37a.77.77,0,0,0,.34-.06.36.36,0,0,0,.17-.18l1.93-4.85H41l2,4.85a.24.24,0,0,0,.14.18.8.8,0,0,0,.34.06h.39a.27.27,0,0,0,.22-.07.19.19,0,0,0,0-.2Z" transform="translate(-18.47 -18.9)"/><path class="cls-1" d="M36.83,45.79a.12.12,0,0,0-.07.08.16.16,0,0,0,0,.12l.1.11a.14.14,0,0,0,.09,0,.26.26,0,0,0,.14,0l2.54-1.45s.08,0,.08-.09a.21.21,0,0,0,0-.13l-.14-.16a.2.2,0,0,0-.14-.07.31.31,0,0,0-.18,0Z" transform="translate(-18.47 -18.9)"/><path class="cls-1" d="M18.47,57.77a5.88,5.88,0,0,0,.69,2.92,4.52,4.52,0,0,0,2,1.85,7.26,7.26,0,0,0,3.21.65,8.06,8.06,0,0,0,2.82-.43,4.41,4.41,0,0,0,1.88-1.31,6.07,6.07,0,0,0,1.11-2.19.26.26,0,0,0,0-.22.32.32,0,0,0-.18-.14l-.42-.15a.29.29,0,0,0-.23,0,.31.31,0,0,0-.15.18,5.41,5.41,0,0,1-.94,1.87,3.55,3.55,0,0,1-1.55,1.09,6.88,6.88,0,0,1-2.36.35,6.13,6.13,0,0,1-2.66-.53A3.74,3.74,0,0,1,20,60.19a4.8,4.8,0,0,1-.57-2.39V52.38A4.81,4.81,0,0,1,20,50a3.63,3.63,0,0,1,1.65-1.51,6.26,6.26,0,0,1,2.68-.52,6.87,6.87,0,0,1,2.33.34,3.53,3.53,0,0,1,1.54,1,5.07,5.07,0,0,1,.93,1.82.3.3,0,0,0,.14.16.34.34,0,0,0,.24,0l.39-.13a.39.39,0,0,0,.18-.16.28.28,0,0,0,0-.21A5.74,5.74,0,0,0,29,48.69a4.39,4.39,0,0,0-1.87-1.27,8.13,8.13,0,0,0-2.8-.42,7.43,7.43,0,0,0-3.24.64,4.41,4.41,0,0,0-2,1.84,5.92,5.92,0,0,0-.68,2.91Z" transform="translate(-18.47 -18.9)"/><path class="cls-1" d="M155.43,19.33a.34.34,0,0,0-.39.39V40.44a.34.34,0,0,0,.39.39h12.78a.34.34,0,0,0,.39-.39v-.55a.35.35,0,0,0-.1-.27.41.41,0,0,0-.3-.09H156.42V30.59h10.06a.35.35,0,0,0,.27-.1.41.41,0,0,0,.09-.3v-.55a.32.32,0,0,0-.36-.36H156.42V20.63h11.36a.41.41,0,0,0,.3-.09.35.35,0,0,0,.1-.27v-.55a.34.34,0,0,0-.39-.39Z" transform="translate(-18.47 -18.9)"/><path class="cls-1" d="M150.61,32.83a7.22,7.22,0,0,1-.86,3.62,5.61,5.61,0,0,1-2.5,2.28,9.23,9.23,0,0,1-4,.79H138V20.63h5.21a9.28,9.28,0,0,1,4,.79,5.54,5.54,0,0,1,2.49,2.28,7.22,7.22,0,0,1,.86,3.62v5.51ZM137,19.33a.34.34,0,0,0-.39.39V40.44a.34.34,0,0,0,.39.39h6.18a10.78,10.78,0,0,0,4.76-1,6.81,6.81,0,0,0,3-2.75,8.49,8.49,0,0,0,1-4.28V27.32A8.49,8.49,0,0,0,151,23a6.81,6.81,0,0,0-3-2.75,10.79,10.79,0,0,0-4.76-1Z" transform="translate(-18.47 -18.9)"/><path class="cls-1" d="M130.24,32.62H121l4.3-10.75a5,5,0,0,0,.18-.68,3.07,3.07,0,0,0,.07-.63h.09c.08.35.14.63.19.84a4.39,4.39,0,0,0,.12.46l4.3,10.75Zm-3.79-13.08a.58.58,0,0,0-.19-.27.55.55,0,0,0-.33-.09h-.61a.53.53,0,0,0-.31.09.54.54,0,0,0-.2.27l-8.39,20.93q-.14.36.27.36h.51a1.07,1.07,0,0,0,.46-.09.5.5,0,0,0,.23-.25l2.67-6.69h10.06l2.7,6.69a.33.33,0,0,0,.2.25,1.1,1.1,0,0,0,.47.09h.55a.37.37,0,0,0,.3-.09.27.27,0,0,0,0-.27Z" transform="translate(-18.47 -18.9)"/><path class="cls-1" d="M114.93,32.83a7.22,7.22,0,0,1-.86,3.62,5.61,5.61,0,0,1-2.5,2.28,9.23,9.23,0,0,1-4,.79h-5.21V20.63h5.21a9.29,9.29,0,0,1,4,.79,5.54,5.54,0,0,1,2.49,2.28,7.22,7.22,0,0,1,.86,3.62v5.51ZM101.36,19.33a.34.34,0,0,0-.39.39V40.44a.34.34,0,0,0,.39.39h6.18a10.78,10.78,0,0,0,4.76-1,6.81,6.81,0,0,0,3-2.75,8.49,8.49,0,0,0,1-4.28V27.32a8.49,8.49,0,0,0-1-4.28,6.8,6.8,0,0,0-3-2.75,10.79,10.79,0,0,0-4.76-1Z" transform="translate(-18.47 -18.9)"/><path class="cls-1" d="M87.13,19.33a.34.34,0,0,0-.39.39V40.44a.34.34,0,0,0,.39.39h12a.35.35,0,0,0,.27-.1.41.41,0,0,0,.09-.3v-.55a.32.32,0,0,0-.36-.36h-11V19.72a.41.41,0,0,0-.09-.3.35.35,0,0,0-.27-.1Z" transform="translate(-18.47 -18.9)"/><path class="cls-1" d="M68.75,19.72a.41.41,0,0,0-.09-.3.35.35,0,0,0-.27-.1h-.64a.34.34,0,0,0-.39.39V33.56a8.8,8.8,0,0,0,.91,4.14A6.16,6.16,0,0,0,71,40.35a10.8,10.8,0,0,0,8.78,0,6.13,6.13,0,0,0,2.68-2.65,8.8,8.8,0,0,0,.91-4.14V19.72a.41.41,0,0,0-.09-.3.35.35,0,0,0-.27-.1h-.67a.35.35,0,0,0-.27.1.41.41,0,0,0-.09.3V33.56A7.42,7.42,0,0,1,81.18,37,5,5,0,0,1,79,39.2a8.91,8.91,0,0,1-7.28,0A5.06,5.06,0,0,1,69.49,37a7.42,7.42,0,0,1-.74-3.44Z" transform="translate(-18.47 -18.9)"/><path class="cls-1" d="M48.85,33.77a8.12,8.12,0,0,0,1,4,6.23,6.23,0,0,0,2.77,2.55,10,10,0,0,0,4.43.9,11.12,11.12,0,0,0,3.9-.6,6.09,6.09,0,0,0,2.59-1.81,8.38,8.38,0,0,0,1.53-3,.36.36,0,0,0,0-.3.44.44,0,0,0-.25-.19l-.58-.21a.4.4,0,0,0-.31,0,.42.42,0,0,0-.2.25A7.47,7.47,0,0,1,62.39,38a4.9,4.9,0,0,1-2.14,1.5A9.5,9.5,0,0,1,57,40a8.47,8.47,0,0,1-3.67-.74A5.17,5.17,0,0,1,51,37.1a6.63,6.63,0,0,1-.79-3.3V26.32A6.64,6.64,0,0,1,51,23a5,5,0,0,1,2.27-2.08A8.64,8.64,0,0,1,57,20.2a9.48,9.48,0,0,1,3.22.46,4.88,4.88,0,0,1,2.13,1.45,7,7,0,0,1,1.28,2.51.42.42,0,0,0,.19.22.47.47,0,0,0,.33,0l.55-.18a.54.54,0,0,0,.25-.22.39.39,0,0,0,0-.29,7.93,7.93,0,0,0-1.52-2.94,6.07,6.07,0,0,0-2.58-1.75A11.23,11.23,0,0,0,57,18.9a10.24,10.24,0,0,0-4.47.89,6.08,6.08,0,0,0-2.75,2.54,8.17,8.17,0,0,0-.93,4Z" transform="translate(-18.47 -18.9)"/><path class="cls-1" d="M43.87,32.62H34.64l4.3-10.75a5,5,0,0,0,.18-.68,3.07,3.07,0,0,0,.07-.63h.09c.08.35.14.63.19.84a4.4,4.4,0,0,0,.12.46l4.3,10.75ZM40.09,19.54a.58.58,0,0,0-.19-.27.55.55,0,0,0-.33-.09H39a.53.53,0,0,0-.31.09.54.54,0,0,0-.2.27L30.06,40.47q-.14.36.27.36h.51a1.07,1.07,0,0,0,.46-.09.5.5,0,0,0,.23-.25l2.67-6.69H44.27L47,40.5a.33.33,0,0,0,.2.25,1.1,1.1,0,0,0,.47.09h.55a.37.37,0,0,0,.3-.09.27.27,0,0,0,0-.27Z" transform="translate(-18.47 -18.9)"/><path class="cls-1" d="M18.9,19.33a.34.34,0,0,0-.39.39V40.44a.34.34,0,0,0,.39.39h.64a.35.35,0,0,0,.27-.1.41.41,0,0,0,.09-.3V30.9h9.87a.41.41,0,0,0,.3-.09.35.35,0,0,0,.1-.27V30a.34.34,0,0,0-.39-.39H19.9v-9H31.26a.41.41,0,0,0,.3-.09.35.35,0,0,0,.1-.27v-.55a.34.34,0,0,0-.39-.39Z" transform="translate(-18.47 -18.9)"/></svg>