<svg id="logo-casper-digital" xmlns="http://www.w3.org/2000/svg" viewBox="0 0 114 44.37"><defs><style>.cls-1{fill:#fff;}</style></defs><title>logo-casper-digital</title><g id="branco"><path class="cls-1" d="M44.7,57c.9-3.65,2.4-14.36,8.95-20.08v0h4.07V41h.38V36.9H62.2V41h.06a19.09,19.09,0,0,1-2,.74C51.32,44.42,47.08,51.47,44.7,57ZM32.64,55.28v6.66a1.71,1.71,0,0,0,1.71,1.71h41a1.71,1.71,0,0,0,1.71-1.71V57.25A42.21,42.21,0,0,0,59,55.2a27.87,27.87,0,0,0-14.23,5.72,35.84,35.84,0,0,0-7.29-4.11,44.86,44.86,0,0,0-4.83-1.52Zm0-6.76h0v4.35a51,51,0,0,1,5.68,1.76A33.55,33.55,0,0,1,44.7,58a30.65,30.65,0,0,1,14-5.17,44.17,44.17,0,0,1,18.42,1.94l0-33.59a1.94,1.94,0,0,0-1.94-1.94H34.35A1.71,1.71,0,0,0,32.64,21V48.52ZM57.72,34.36v2.19H54a14.55,14.55,0,0,1,3.67-2.19Zm4.47-1.9v4.09H58.1V32.46ZM66.67,28v4.09H62.58V28Zm0,4.46v4.09H62.58V32.46Zm0,4.44v1.28a15.93,15.93,0,0,1-4.09,2.68v-4Zm4.48-13.34v4.09H67.06V23.56Zm0,8.9v4.09H67.06V32.46Zm4.47-8.9v4.09H71.53V23.56Z" transform="translate(-32.64 -19.29)"/><path class="cls-1" d="M145.33,35a3.2,3.2,0,0,1-.35,1.55,2.3,2.3,0,0,1-1,1,3.49,3.49,0,0,1-1.58.33h-4.57V32.15h4.57a3.41,3.41,0,0,1,1.58.34,2.31,2.31,0,0,1,1,1,3.27,3.27,0,0,1,.35,1.56Zm-8.11-3.67a.21.21,0,0,0-.24.24V44.15a.21.21,0,0,0,.24.24h.39a.21.21,0,0,0,.17-.06.25.25,0,0,0,.06-.18V38.66h3a3.82,3.82,0,0,1,1.26.17,2.29,2.29,0,0,1,.9.56,4,4,0,0,1,.69,1l1.91,3.78a.3.3,0,0,0,.16.15.75.75,0,0,0,.3.05h.35c.1,0,.16,0,.18-.06s0-.1-.05-.18l-2.06-4.08a4.05,4.05,0,0,0-.68-.94,2.65,2.65,0,0,0-.83-.57,3.9,3.9,0,0,0,1.73-.53,3,3,0,0,0,1.11-1.21,4,4,0,0,0,.39-1.8,4.19,4.19,0,0,0-.45-2,3,3,0,0,0-1.28-1.25,4.35,4.35,0,0,0-2-.43Z" transform="translate(-32.64 -19.29)"/><path class="cls-1" d="M127.47,31.36a.21.21,0,0,0-.24.24V44.15a.21.21,0,0,0,.24.24h7.75a.21.21,0,0,0,.24-.24v-.33a.21.21,0,0,0-.06-.17.25.25,0,0,0-.18-.06h-7.14V38.19h6.09a.21.21,0,0,0,.17-.06.25.25,0,0,0,.06-.18v-.33a.19.19,0,0,0-.22-.22h-6.09V32.15H135a.25.25,0,0,0,.18-.06.21.21,0,0,0,.06-.17V31.6a.21.21,0,0,0-.24-.24Z" transform="translate(-32.64 -19.29)"/><path class="cls-1" d="M117.32,38.54V32.15h4.26a3.68,3.68,0,0,1,1.73.39,2.68,2.68,0,0,1,1.12,1.1,3.56,3.56,0,0,1,.4,1.72,3.49,3.49,0,0,1-.4,1.7,2.67,2.67,0,0,1-1.12,1.09,3.76,3.76,0,0,1-1.73.38Zm-.61-7.18a.21.21,0,0,0-.24.24V44.15a.21.21,0,0,0,.24.24h.39a.21.21,0,0,0,.17-.06.25.25,0,0,0,.06-.18V39.33h4.33a4.67,4.67,0,0,0,2.16-.48,3.33,3.33,0,0,0,1.4-1.36,4.36,4.36,0,0,0,.5-2.13,4.44,4.44,0,0,0-.5-2.15,3.34,3.34,0,0,0-1.4-1.37,4.63,4.63,0,0,0-2.16-.48Z" transform="translate(-32.64 -19.29)"/><path class="cls-1" d="M105,34.75A3.43,3.43,0,0,0,105.2,36a2.58,2.58,0,0,0,.54.86,4,4,0,0,0,.77.62,2.31,2.31,0,0,0,.45.22,4.17,4.17,0,0,0,.58.17l.57.14.51.1.53.08.63.09.66.09.53.08.49.1.54.15a2.67,2.67,0,0,1,.91.45,1.8,1.8,0,0,1,.55.73,3.19,3.19,0,0,1,.23,1.08,2.5,2.5,0,0,1-1,2.17,5.08,5.08,0,0,1-3,.73,4.55,4.55,0,0,1-2.54-.68,4.42,4.42,0,0,1-1.61-2,.33.33,0,0,0-.13-.15.21.21,0,0,0-.18,0l-.35.13a.22.22,0,0,0-.14.13.32.32,0,0,0,0,.2,5.68,5.68,0,0,0,1.1,1.81,4.13,4.13,0,0,0,1.62,1.06,6.49,6.49,0,0,0,2.22.34,7.17,7.17,0,0,0,2.66-.44A3.4,3.4,0,0,0,114,42.94a3.63,3.63,0,0,0,.55-2,3.89,3.89,0,0,0-.13-1,3.08,3.08,0,0,0-.34-.8,2.44,2.44,0,0,0-.47-.58,2.55,2.55,0,0,0-.47-.32,4.83,4.83,0,0,0-.61-.27l-.62-.19-.58-.13-.62-.09-.74-.09-.87-.1c-.25,0-.49-.08-.72-.13s-.47-.12-.73-.21a3.15,3.15,0,0,1-1-.46,2,2,0,0,1-.62-.74,2.79,2.79,0,0,1,.22-2.6,2.77,2.77,0,0,1,1.28-1,5.57,5.57,0,0,1,2-.33,5.49,5.49,0,0,1,1.77.25,3.47,3.47,0,0,1,1.31.79,4.83,4.83,0,0,1,1,1.37.27.27,0,0,0,.13.12.22.22,0,0,0,.17,0l.37-.17a.18.18,0,0,0,.11-.31,5.55,5.55,0,0,0-1.14-1.62,4.11,4.11,0,0,0-1.56-.93,6.63,6.63,0,0,0-2.11-.3,6.38,6.38,0,0,0-2.48.44,3.51,3.51,0,0,0-1.58,1.26A3.46,3.46,0,0,0,105,34.75Z" transform="translate(-32.64 -19.29)"/><path class="cls-1" d="M101.48,39.42h-5.6l2.61-6.52a3,3,0,0,0,.11-.41,1.86,1.86,0,0,0,0-.38h.06l.11.51a2.69,2.69,0,0,0,.07.28l2.61,6.52Zm-2.29-7.93a.35.35,0,0,0-.11-.17.33.33,0,0,0-.2-.06h-.37a.32.32,0,0,0-.19.06.33.33,0,0,0-.12.17L93.11,44.17q-.08.22.17.22h.31a.65.65,0,0,0,.28-.05.3.3,0,0,0,.14-.15l1.62-4.06h6.09l1.63,4.06a.2.2,0,0,0,.12.15.67.67,0,0,0,.28.05h.33a.22.22,0,0,0,.18-.06.16.16,0,0,0,0-.17Z" transform="translate(-32.64 -19.29)"/><path class="cls-1" d="M98.25,30.09a.1.1,0,0,0-.06.07.13.13,0,0,0,0,.1l.08.1a.12.12,0,0,0,.08,0,.22.22,0,0,0,.11,0l2.12-1.22s.06,0,.07-.07a.18.18,0,0,0,0-.11l-.12-.13a.17.17,0,0,0-.11-.06.26.26,0,0,0-.15,0Z" transform="translate(-32.64 -19.29)"/><path class="cls-1" d="M82.89,40.11a4.92,4.92,0,0,0,.58,2.44,3.78,3.78,0,0,0,1.68,1.55,6.08,6.08,0,0,0,2.68.54,6.74,6.74,0,0,0,2.36-.36,3.69,3.69,0,0,0,1.57-1.1,5.08,5.08,0,0,0,.93-1.83.22.22,0,0,0,0-.18.27.27,0,0,0-.15-.11l-.35-.13a.24.24,0,0,0-.19,0,.26.26,0,0,0-.12.15,4.53,4.53,0,0,1-.79,1.57,3,3,0,0,1-1.3.91,5.76,5.76,0,0,1-2,.29,5.13,5.13,0,0,1-2.23-.45,3.13,3.13,0,0,1-1.39-1.28,4,4,0,0,1-.48-2V35.6a4,4,0,0,1,.47-2,3,3,0,0,1,1.38-1.26,5.24,5.24,0,0,1,2.25-.44,5.75,5.75,0,0,1,2,.28,3,3,0,0,1,1.29.88,4.24,4.24,0,0,1,.78,1.52.25.25,0,0,0,.11.13.28.28,0,0,0,.2,0l.33-.11a.33.33,0,0,0,.15-.13.24.24,0,0,0,0-.18,4.8,4.8,0,0,0-.92-1.78,3.67,3.67,0,0,0-1.57-1.06,6.81,6.81,0,0,0-2.34-.35,6.21,6.21,0,0,0-2.71.54,3.69,3.69,0,0,0-1.66,1.54,5,5,0,0,0-.57,2.44Z" transform="translate(-32.64 -19.29)"/><path class="cls-1" d="M146.64,52.83a.27.27,0,0,1-.31.31H143.5A5.15,5.15,0,0,1,142,53a1.1,1.1,0,0,1-.84-1.1V48.62a.27.27,0,0,1,.31-.31,1.77,1.77,0,0,1,.38,0,.26.26,0,0,1,.19.29v3.25q0,.38.61.5a4.74,4.74,0,0,0,.91.05h2.78C146.54,52.42,146.64,52.56,146.64,52.83Z" transform="translate(-32.64 -19.29)"/><path class="cls-1" d="M133.75,51.14l-1.34-2-1.35,2Zm2.14,1.68a.42.42,0,0,1-.43.43A.48.48,0,0,1,135,53l-.78-1.14h-3.72L129.76,53a.35.35,0,0,1-.27.19.48.48,0,0,1-.28-.09.29.29,0,0,1-.15-.24.14.14,0,0,1,0-.08l2.79-4.26a.65.65,0,0,1,.59-.26.44.44,0,0,1,.41.17l0,0,0,.05,3,4.18A.31.31,0,0,1,135.89,52.82Z" transform="translate(-32.64 -19.29)"/><path class="cls-1" d="M125.67,48.71a.28.28,0,0,1-.31.31h-2v3.81a.27.27,0,0,1-.31.31,1.85,1.85,0,0,1-.39,0,.27.27,0,0,1-.19-.29V49h-1.94a.28.28,0,0,1-.31-.31.63.63,0,0,1,0-.29.28.28,0,0,1,.27-.11h4.78C125.57,48.31,125.67,48.44,125.67,48.71Z" transform="translate(-32.64 -19.29)"/><path class="cls-1" d="M114.8,52.83a.28.28,0,0,1-.31.31h-.38a.27.27,0,0,1-.19-.29V48.62a.27.27,0,0,1,.19-.29h.39a.27.27,0,0,1,.31.31Z" transform="translate(-32.64 -19.29)"/><path class="cls-1" d="M96.59,52.83a.28.28,0,0,1-.31.31H95.9a.27.27,0,0,1-.19-.29V48.62a.27.27,0,0,1,.19-.29h.39a.27.27,0,0,1,.31.31Z" transform="translate(-32.64 -19.29)"/><path class="cls-1" d="M89,51.84V49.54c0-.19-.14-.33-.43-.42A2.31,2.31,0,0,0,87.9,49H84.74v3.39h3.14a2.09,2.09,0,0,0,.71-.11c.28-.1.42-.26.42-.48Zm.87,0a1.12,1.12,0,0,1-.69,1,2.84,2.84,0,0,1-1.3.27H84.17a.28.28,0,0,1-.31-.31V48.62a.27.27,0,0,1,.31-.31h3.75q2,0,2,1.23Z" transform="translate(-32.64 -19.29)"/><path class="cls-1" d="M108.24,51.92a1,1,0,0,1-.65,1,2.79,2.79,0,0,1-1.24.25h-2a3.42,3.42,0,0,1-1.32-.23,1,1,0,0,1-.74-1V49.51a1,1,0,0,1,.75-1,3.57,3.57,0,0,1,1.32-.23h2.92q.32,0,.32.36c0,.24-.11.36-.32.36h-2.68q-1.42,0-1.42.49v2.42q0,.49,1.19.49h2a1.92,1.92,0,0,0,.61-.11c.27-.09.41-.21.41-.37v-.61h0V51h-1.93c-.21,0-.32-.12-.32-.37s.11-.37.32-.37h2.51a.27.27,0,0,1,.31.31h0s0,0,0,.05Z" transform="translate(-32.64 -19.29)"/></g></svg>